<?xml version="1.0" encoding="UTF-8" standalone="no"?>
<!-- Created with Inkscape (http://www.inkscape.org/) -->

<svg
   xmlns:dc="http://purl.org/dc/elements/1.1/"
   xmlns:cc="http://creativecommons.org/ns#"
   xmlns:rdf="http://www.w3.org/1999/02/22-rdf-syntax-ns#"
   xmlns:svg="http://www.w3.org/2000/svg"
   xmlns="http://www.w3.org/2000/svg"
   xmlns:sodipodi="http://sodipodi.sourceforge.net/DTD/sodipodi-0.dtd"
   xmlns:inkscape="http://www.inkscape.org/namespaces/inkscape"
   id="svg2"
   version="1.1"
   inkscape:version="0.91 r13725"
   xml:space="preserve"
   width="683.47247"
   height="284.25626"
   viewBox="0 0 683.47247 284.25626"
   sodipodi:docname="Logo AEETS.svg"><metadata
     id="metadata8"><rdf:RDF><cc:Work
         rdf:about=""><dc:format>image/svg+xml</dc:format><dc:type
           rdf:resource="http://purl.org/dc/dcmitype/StillImage" /><dc:title></dc:title></cc:Work></rdf:RDF></metadata><defs
     id="defs6"><clipPath
       clipPathUnits="userSpaceOnUse"
       id="clipPath36"><path
         d="m 0,227.405 546.778,0 L 546.778,0 0,0 0,227.405 Z"
         id="path38"
         inkscape:connector-curvature="0" /></clipPath></defs><sodipodi:namedview
     pagecolor="#ffffff"
     bordercolor="#666666"
     borderopacity="1"
     objecttolerance="10"
     gridtolerance="10"
     guidetolerance="10"
     inkscape:pageopacity="0"
     inkscape:pageshadow="2"
     inkscape:window-width="640"
     inkscape:window-height="480"
     id="namedview4"
     showgrid="false"
     inkscape:zoom="0.52086955"
     inkscape:cx="341.73624"
     inkscape:cy="142.12813"
     inkscape:window-x="0"
     inkscape:window-y="0"
     inkscape:window-maximized="0"
     inkscape:current-layer="g10" /><g
     id="g10"
     inkscape:groupmode="layer"
     inkscape:label="AEETS 24 po"
     transform="matrix(1.25,0,0,-1.25,0,284.25625)"><g
       id="g12"
       transform="translate(323.4132,227.4048)"><path
         d="m 0,0 -169.272,-55.687 -154.141,0 0,-171.718 546.778,0 0,171.718 L 0,-55.687 0,0 Z"
         style="fill:#fa501b;fill-opacity:1;fill-rule:nonzero;stroke:none"
         id="path14"
         inkscape:connector-curvature="0" /></g><g
       id="g16"
       transform="translate(75.587,76.8298)"><path
         d="m 0,0 9.389,31.021 1.996,0 L 20.711,0 0,0 Z m -5.056,57.32 -32.963,-96.582 25.13,0 5.839,17.728 34.533,0 5.875,-17.728 25.755,0 -32.963,96.582 -31.206,0 z"
         style="fill:#ffffff;fill-opacity:1;fill-rule:nonzero;stroke:none"
         id="path18"
         inkscape:connector-curvature="0" /></g><g
       id="g20"
       transform="translate(152.7973,37.5677)"><path
         d="m 0,0 72.528,0 0,21.36 -46.44,0 0,17.344 40.81,0 0,20.079 -40.81,0 0,16.439 46.44,0 0,21.361 L 0,96.583 0,0 Z"
         style="fill:#ffffff;fill-opacity:1;fill-rule:nonzero;stroke:none"
         id="path22"
         inkscape:connector-curvature="0" /></g><g
       id="g24"
       transform="translate(250.8853,37.5677)"><path
         d="m 0,0 72.528,0 0,21.36 -46.44,0 0,17.344 40.81,0 0,20.079 -40.81,0 0,16.439 46.44,0 0,21.361 L 0,96.583 0,0 Z"
         style="fill:#ffffff;fill-opacity:1;fill-rule:nonzero;stroke:none"
         id="path26"
         inkscape:connector-curvature="0" /></g><g
       id="g28"
       transform="translate(342.2303,112.7901)"><path
         d="m 0,0 25.235,0 0,-75.222 24.559,0 0,75.222 25.236,0 0,21.36 L 0,21.36 0,0 Z"
         style="fill:#ffffff;fill-opacity:1;fill-rule:nonzero;stroke:none"
         id="path30"
         inkscape:connector-curvature="0" /></g><g
       id="g32"><g
         id="g34"
         clip-path="url(#clipPath36)"><g
           id="g40"
           transform="translate(474.4297,97.9798)"><path
             d="m 0,0 c -9.982,2.218 -18.38,3.644 -18.38,9.665 0,4.12 3.961,6.972 11.25,6.972 6.179,0 16.478,-2.06 26.302,-7.289 l 7.605,19.648 C 16.32,34.224 5.07,37.552 -5.704,37.552 c -20.44,0 -36.759,-11.567 -36.759,-30.739 0,-20.756 19.33,-26.46 32.322,-29.629 12.518,-3.011 20.282,-4.436 20.282,-10.933 0,-5.228 -5.071,-6.813 -12.36,-6.813 -15.369,0 -29.312,7.447 -34.065,10.457 l -8.715,-19.488 c 7.923,-5.071 22.5,-12.201 40.404,-12.201 22.183,0 38.819,10.141 38.819,30.58 C 34.224,-12.2 19.964,-4.595 0,0"
             style="fill:#ffffff;fill-opacity:1;fill-rule:nonzero;stroke:none"
             id="path42"
             inkscape:connector-curvature="0" /></g></g></g></g></svg>