<?xml version="1.0" encoding="UTF-8" standalone="no"?>
<svg
   xmlns:dc="http://purl.org/dc/elements/1.1/"
   xmlns:cc="http://creativecommons.org/ns#"
   xmlns:rdf="http://www.w3.org/1999/02/22-rdf-syntax-ns#"
   xmlns:svg="http://www.w3.org/2000/svg"
   xmlns="http://www.w3.org/2000/svg"
   xmlns:sodipodi="http://sodipodi.sourceforge.net/DTD/sodipodi-0.dtd"
   xmlns:inkscape="http://www.inkscape.org/namespaces/inkscape"
   id="Layer_1"
   data-name="Layer 1"
   viewBox="0 0 410.75 132.5"
   version="1.1"
   sodipodi:docname="logo-bnc.svg"
   width="155"
   height="50"
   inkscape:version="0.92.4 (5da689c313, 2019-01-14)">
  <metadata
     id="metadata45">
    <rdf:RDF>
      <cc:Work
         rdf:about="">
        <dc:format>image/svg+xml</dc:format>
        <dc:type
           rdf:resource="http://purl.org/dc/dcmitype/StillImage" />
        <dc:title>LOGO_BN_signatureMC_RGB_GILROY</dc:title>
      </cc:Work>
    </rdf:RDF>
  </metadata>
  <sodipodi:namedview
     pagecolor="#ffffff"
     bordercolor="#666666"
     borderopacity="1"
     objecttolerance="10"
     gridtolerance="10"
     guidetolerance="10"
     inkscape:pageopacity="0"
     inkscape:pageshadow="2"
     inkscape:window-width="2560"
     inkscape:window-height="1377"
     id="namedview43"
     showgrid="false"
     scale-x="2.65"
     inkscape:zoom="8.8030056"
     inkscape:cx="86.781377"
     inkscape:cy="17.61292"
     inkscape:window-x="-8"
     inkscape:window-y="-8"
     inkscape:window-maximized="1"
     inkscape:current-layer="Layer_1"
     showguides="true"
     inkscape:guide-bbox="true">
    <sodipodi:guide
       position="17.494025,160.19529"
       orientation="1,0"
       id="guide25"
       inkscape:locked="false" />
  </sodipodi:namedview>
  <defs
     id="defs4">
    <style
       id="style2">.cls-1{fill:none;}.cls-2{fill:#e41c23;}.cls-3{fill:#00324d;}</style>
  </defs>
  <title
     id="title6">LOGO_BN_signatureMC_RGB_GILROY</title>
  <rect
     class="cls-1"
     width="521.64001"
     height="204.97"
     id="rect8"
     x="-39.600002"
     y="-139.64919"
     style="fill:none" />
  <path
     class="cls-2"
     d="m 72.530085,35.086027 c -2,0.45 -3.44,0.77 -4.9,0.22 a 7.21,7.21 0 0 1 -2.74,-2.8 l -13.62,-18.58997 a 7.83,7.83 0 0 0 -2.83,-2.81 c -1.45,-0.57 -2.92,-0.22 -4.91,0.23 L -0.24991468,23.076047 V 104.64602 L 43.680085,92.896007 c 2,-0.43 3.47,-0.78 4.92,-0.23 a 7.66,7.66 0 0 1 2.78,2.79 l 13.51,18.570023 a 7.65,7.65 0 0 0 2.79,2.78001 c 1.46,0.54 2.91,0.23 4.91,-0.24 L 116.41008,104.85603 V 23.306047 Z"
     id="path10"
     inkscape:connector-curvature="0"
     style="fill:#e41c23" />
  <path
     class="cls-3"
     d="m 167.98008,39.306027 c 1.44,-0.73 4.25,-2.13 4.25,-7.10999 0,-3.57 -2.18,-8.88999 -10.68,-8.88999 h -9.55 l -7.31,3.56999 v 31.12996 h 14.68 c 7.11,0 9,-1.20999 11,-3.13999 a 10.08,10.08 0 0 0 3,-7.15999 c -0.03,-3.43 -1.14,-6.81 -5.39,-8.39999 z m -16.33,-9.99999 h 8.3 c 3.29,0 5.32,0.87 5.32,3.71999 0,2.85 -2.27,3.86 -5.12,3.86 h -8.5 z m 8.88,22.69997 h -8.88 v -9.29999 h 9.24 c 2.61001,0 5.22,1.16 5.22,4.2 -0.02,3.55999 -2.05,5.09999 -5.58,5.09999 z"
     id="path12"
     inkscape:connector-curvature="0"
     style="fill:#00324d" />
  <polygon
     class="cls-3"
     points="391.87,55.17 395.42,49.04 378.51,49.04 378.51,41.74 393.37,41.74 396.91,35.6 379.24,35.6 371.41,39.42 371.41,70.3 394.2,70.3 397.74,64.16 378.51,64.16 378.51,55.17 "
     id="polygon14"
     style="fill:#00324d"
     transform="translate(-56.779915,-12.293913)" />
  <path
     class="cls-3"
     d="m 272.96008,53.026007 c 2.12,-2.7 3.62,-6.66999 3.62,-12.36998 0,-16.27999 -12.07999,-18.25998 -16.67,-18.25998 -0.32,0 -0.69,0 -1.08999,0 l -11.93001,5.85999 c -2.13999,2.73 -3.63999,6.67999 -3.63999,12.39999 0,16.27998 12.07999,18.26997 16.67,18.26997 a 18.09,18.09 0 0 0 8.89,-2.31999 l 4.07999,3.90999 3.82,-3.90999 z m -5.22,-4.92999 -3.67,-3.39 -3.72,3.92 3.48,3.27999 a 8.56,8.56 0 0 1 -3.92,0.92 c -3.91,0 -9.42,-2.42 -9.42,-12.12998 0,-9.70999 5.51,-12.11999 9.42,-12.11999 3.91,0 9.43,2.41 9.43,12.11999 a 15.4,15.4 0 0 1 -1.6,7.39999 z"
     id="path16"
     inkscape:connector-curvature="0"
     style="fill:#00324d" />
  <path
     class="cls-3"
     d="m 301.73008,26.916037 v 19.24998 c 0,4.19999 -2,6.61999 -7,6.61999 -3.38,0 -6.18,-2.13 -6.18,-6.99999 v -22.46997 0 l -7.37,3.58999 v 19.40998 c 0.09,3.47999 0.82,6.27999 2.7,8.39999 3.1,3.42999 7.83,4.20999 11,4.20999 8.74,0 14.25,-3.91999 14.25,-12.99998 v -22.60997 0 z"
     id="path18"
     inkscape:connector-curvature="0"
     style="fill:#00324d" />
  <polygon
     class="cls-3"
     points="295.25,70.3 295.25,35.61 288.49,38.91 288.49,59.76 288.39,59.76 274.62,35.6 266.99,39.33 266.99,70.3 273.75,70.3 273.75,45.56 273.85,45.56 288,70.3 "
     id="polygon20"
     style="fill:#00324d"
     transform="translate(-56.779915,-12.293913)" />
  <path
     class="cls-3"
     d="m 194.96008,23.306047 v 0 l -10.07,4.92999 -10.66,29.76996 h 7.66 l 2.41,-7.15999 h 12.79 l 2.22,7.15999 h 7.88 z m -8.74,21.54997 4.44,-13.71998 h 0.1 l 4.3,13.71998 z"
     id="path22"
     inkscape:connector-curvature="0"
     style="fill:#00324d" />
  <polygon
     class="cls-3"
     points="459.26,102.01 462.8,95.87 445.9,95.87 445.9,88.58 460.76,88.58 464.3,82.44 446.62,82.44 438.8,86.26 438.8,117.13 461.59,117.13 465.13,111 445.9,111 445.9,102.01 "
     id="polygon24"
     style="fill:#00324d"
     transform="translate(-56.779915,-12.293913)" />
  <polygon
     class="cls-3"
     points="229.73,117.13 229.73,82.45 222.96,85.75 222.96,106.6 222.87,106.6 209.1,82.44 201.47,86.17 201.47,117.13 208.23,117.13 208.23,92.4 208.32,92.4 222.48,117.13 "
     id="polygon26"
     style="fill:#00324d"
     transform="translate(-56.779915,-12.293913)" />
  <path
     class="cls-3"
     d="m 197.13008,70.145997 v 0 l -10.11,4.93 -10.61,29.760033 h 7.64 l 2.41,-7.150014 h 12.81 l 2.22,7.150014 h 7.88 z m -8.75,21.56001 4.45,-13.72001 h 0.1 l 4.3,13.72001 z"
     id="path28"
     inkscape:connector-curvature="0"
     style="fill:#00324d" />
  <path
     class="cls-3"
     d="m 338.89008,70.145997 v 0 l -10.1,4.93 -10.61,29.760033 h 7.63 l 2.41,-7.150014 h 12.81 l 2.22001,7.150014 h 7.88 z m -8.75999,21.56001 4.44999,-13.72001 h 0.10001 l 4.3,13.72001 z"
     id="path30"
     inkscape:connector-curvature="0"
     style="fill:#00324d" />
  <polygon
     class="cls-3"
     points="272.35,88.58 272.35,117.13 279.6,117.13 279.6,88.58 286.51,88.58 290.06,82.44 265.39,82.44 261.86,88.55 261.86,88.58 "
     id="polygon32"
     style="fill:#00324d"
     transform="translate(-56.779915,-12.293913)" />
  <polygon
     class="cls-3"
     points="292.94,117.13 300.19,117.13 300.19,82.44 300.18,82.44 292.94,85.97 "
     id="polygon34"
     style="fill:#00324d"
     transform="translate(-56.779915,-12.293913)" />
  <path
     class="cls-3"
     d="m 264.89008,69.225997 h -1 l -12,5.85 c -2.12999,2.73 -3.61,6.67 -3.61,12.38 -0.09,16.310023 11.99,18.250033 16.61,18.250033 4.62001,0 16.67001,-2.00001 16.67001,-18.260033 0,-16.26 -12.11001,-18.22 -16.67001,-18.22 z m 0,30.390019 c -3.91,0 -9.42,-2.42 -9.42,-12.130019 0,-9.71 5.51,-12.13 9.42,-12.13 3.91001,0 9.43001,2.42 9.43001,12.13 0,9.710019 -5.55001,12.130019 -9.43001,12.130019 z"
     id="path36"
     inkscape:connector-curvature="0"
     style="fill:#00324d" />
  <polygon
     class="cls-3"
     points="371.34,117.13 371.34,82.45 364.57,85.75 364.57,106.6 364.48,106.6 350.71,82.44 343.07,86.17 343.07,117.13 349.84,117.13 349.84,92.4 349.94,92.4 364.09,117.13 "
     id="polygon38"
     style="fill:#00324d"
     transform="translate(-56.779915,-12.293913)" />
  <polygon
     class="cls-3"
     points="411.45,117.13 432.32,117.13 435.94,110.85 418.7,110.85 418.7,82.45 411.45,85.98 "
     id="polygon40"
     style="fill:#00324d"
     transform="translate(-56.779915,-12.293913)" />
</svg>
