<svg
            viewBox="0 0 758 329"
            fill="#4286c7"
            xmlns="http://www.w3.org/2000/svg"
            
            data-testid="logo"
        >
            <g>
                <path
                    d="M0.299805 303.4L5.7998 294.6C8.0998 296.1 10.2998 297.4 12.1998 298.3C14.1998 299.2 15.8998 299.7 17.3998 299.7C18.5998 299.7 19.4998 299.4 20.2998 298.9C20.9998 298.4 21.3998 297.7 21.3998 296.8C21.3998 295.6 20.6998 294.6 19.3998 293.8C17.9998 293 16.4998 292.3 14.6998 291.6C12.7998 290.8 10.8998 289.9 8.9998 288.9C7.0998 287.9 5.4998 286.6 4.1998 285.1C2.8998 283.5 2.2998 281.5 2.2998 279C2.2998 275.6 3.69981 272.7 6.39981 270.5C9.0998 268.3 12.9998 267.2 17.8998 267.2C20.2998 267.2 22.8998 267.5 25.5998 268.1C28.2998 268.7 30.6998 269.7 32.9998 271L27.8998 279.9C26.6998 279.1 25.1998 278.4 23.2998 277.8C21.3998 277.2 19.7998 276.9 18.4998 276.9C17.6998 276.9 16.8998 277.1 15.9998 277.4C15.0998 277.7 14.5998 278.3 14.5998 279.2C14.5998 280.2 15.1998 281 16.4998 281.7C17.7998 282.3 19.1998 283 20.9998 283.7C22.8998 284.4 24.7998 285.3 26.7998 286.3C28.7998 287.3 30.3998 288.6 31.7998 290.2C33.1998 291.8 33.7998 294 33.7998 296.6C33.7998 299.2 33.0998 301.5 31.5998 303.4C30.0998 305.3 28.1998 306.8 25.7998 307.8C23.3998 308.8 20.6998 309.3 17.6998 309.3C14.8998 309.3 11.9998 308.8 8.9998 307.8C5.9998 306.8 2.9998 305.4 0.299805 303.4Z"
                    
                />
                <path
                    d="M84.7998 291.8C85.4998 294 86.8998 295.9 88.7998 297.3C90.7998 298.7 92.9998 299.4 95.6998 299.4C98.4998 299.4 100.8 298.9 102.7 298C104.5 297.1 106.2 295.9 107.7 294.5L114.8 302.9C111.7 305.4 108.6 307 105.5 308C102.4 309 99.4998 309.4 96.6998 309.4C92.1998 309.4 88.2998 308.5 84.7998 306.7C81.3998 304.9 78.6998 302.4 76.6998 299.2C74.7998 296 73.7998 292.4 73.7998 288.3C73.7998 284.3 74.6998 280.7 76.5998 277.5C78.4998 274.4 80.9998 271.9 84.1998 270C87.3998 268.2 91.0998 267.3 95.1998 267.3C99.2998 267.3 102.9 268.2 106.1 270C109.3 271.8 111.8 274.3 113.6 277.5C115.4 280.7 116.4 284.3 116.4 288.4V291.9H84.7998V291.8ZM104.4 285.3C103.8 282.9 102.7 281 100.9 279.5C99.0998 278 96.9998 277.3 94.5998 277.3C92.0998 277.3 89.9998 278 88.0998 279.5C86.2998 281 85.0998 282.9 84.4998 285.2H104.4V285.3Z"
                    
                />
                <path
                    d="M194.6 303.4C192.6 305.3 190.3 306.8 187.5 307.8C184.8 308.9 181.8 309.4 178.6 309.4C174.3 309.4 170.5 308.5 167.1 306.7C163.7 304.9 161.1 302.4 159.1 299.2C157.2 296 156.2 292.4 156.2 288.4C156.2 284.4 157.2 280.7 159.1 277.6C161 274.5 163.7 271.9 167.1 270.1C170.5 268.3 174.3 267.4 178.6 267.4C181.8 267.4 184.8 267.9 187.5 269C190.2 270.1 192.6 271.5 194.6 273.4L186.4 281.1C184.5 278.7 181.9 277.5 178.6 277.5C175.6 277.5 173.2 278.5 171.2 280.6C169.3 282.7 168.3 285.3 168.3 288.4C168.3 291.5 169.3 294.1 171.2 296.2C173.1 298.3 175.6 299.3 178.6 299.3C181.8 299.3 184.4 298.1 186.4 295.7L194.6 303.4Z"
                    
                />
                <path
                    d="M236.5 268.1H248.2V289.8C248.2 292.8 248.8 295.2 250.1 296.8C251.4 298.4 253.2 299.3 255.6 299.3C258.1 299.3 260.2 298.4 261.8 296.6C263.4 294.8 264.2 292.5 264.2 289.8V268H275.9V308.5H265.7L265.2 303.5C263.6 305.3 261.7 306.8 259.5 307.8C257.3 308.8 254.9 309.3 252.2 309.3C247.1 309.3 243.2 307.6 240.5 304.3C237.9 301 236.5 296.1 236.5 289.6V268.1Z"
                    
                />
                <path
                    d="M321.3 308.5V268H331.5L332.1 273.8C335 269.4 339.1 267.2 344.3 267.2C346.1 267.2 347.9 267.5 349.7 268L348.1 278.1C346.5 277.6 345 277.3 343.5 277.3C340.4 277.3 337.8 278.5 335.9 280.8C334 283.1 333 286.4 333 290.7V308.6H321.3V308.5Z"
                    
                />
                <path
                    d="M387.8 254.2C387.8 252.3 388.4 250.7 389.6 249.5C390.8 248.3 392.4 247.7 394.3 247.7C396.2 247.7 397.8 248.3 399 249.5C400.2 250.7 400.8 252.3 400.8 254.2C400.8 256.1 400.2 257.7 399 258.9C397.8 260.1 396.2 260.7 394.3 260.7C392.4 260.7 390.8 260.1 389.6 258.9C388.4 257.7 387.8 256.2 387.8 254.2ZM388.4 308.5V268H400.1V308.5H388.4Z"
                    
                />
                <path
                    d="M442.499 268H449.199V257.9H460.899V268H470.699V278.1H460.899V293C460.899 294.9 461.499 296.4 462.699 297.5C463.899 298.6 465.499 299.1 467.399 299.1C468.799 299.1 470.199 298.8 471.699 298.2V307.8C469.099 308.8 466.599 309.3 464.099 309.3C459.299 309.3 455.599 308 452.999 305.4C450.399 302.8 449.099 299.1 449.099 294.3V278H442.399V268H442.499Z"
                    
                />
                <path
                    d="M523.7 268L533.2 287.8C533.6 288.7 534 289.7 534.4 290.8C534.8 291.9 535.1 293.1 535.4 294.4L546.3 268H558.6L533.4 328.8H521.1L530.3 306.5L511.5 268H523.7Z"
                    
                />
                <path
                    d="M596.399 302.9C596.399 301 596.999 299.4 598.199 298.2C599.399 297 600.999 296.4 602.899 296.4C604.799 296.4 606.399 297 607.599 298.2C608.799 299.4 609.399 301 609.399 302.9C609.399 304.8 608.799 306.4 607.599 307.6C606.399 308.8 604.799 309.4 602.899 309.4C600.999 309.4 599.399 308.8 598.199 307.6C596.999 306.4 596.399 304.8 596.399 302.9Z"
                    
                />
                <path
                    d="M653.6 254.2C653.6 252.3 654.2 250.7 655.4 249.5C656.6 248.3 658.2 247.7 660.1 247.7C662 247.7 663.6 248.3 664.8 249.5C666 250.7 666.6 252.3 666.6 254.2C666.6 256.1 666 257.7 664.8 258.9C663.6 260.1 662 260.7 660.1 260.7C658.2 260.7 656.6 260.1 655.4 258.9C654.2 257.7 653.6 256.2 653.6 254.2ZM654.2 308.5V268H665.9V308.5H654.2Z"
                    
                />
                <path
                    d="M707.899 288.3C707.899 284.2 708.799 280.6 710.699 277.5C712.599 274.3 715.099 271.8 718.399 270C721.699 268.2 725.399 267.3 729.499 267.3C733.699 267.3 737.399 268.2 740.599 270C743.799 271.8 746.399 274.3 748.299 277.5C750.199 280.7 751.099 284.3 751.099 288.3C751.099 292.3 750.199 296 748.299 299.1C746.399 302.3 743.899 304.8 740.599 306.6C737.399 308.4 733.699 309.3 729.499 309.3C725.299 309.3 721.599 308.4 718.399 306.6C715.099 304.8 712.599 302.3 710.699 299.1C708.799 295.9 707.899 292.3 707.899 288.3ZM719.199 288.3C719.199 291.4 720.199 294 722.099 296.1C723.999 298.2 726.499 299.2 729.499 299.2C732.499 299.2 734.899 298.2 736.899 296.1C738.799 294 739.799 291.4 739.799 288.3C739.799 285.2 738.799 282.6 736.899 280.5C734.999 278.4 732.499 277.4 729.499 277.4C726.499 277.4 724.099 278.4 722.099 280.5C720.199 282.5 719.199 285.1 719.199 288.3Z"
                    
                />
                <path
                    d="M75.5 49.5C56.6 49.5 39.2 56.5 26 68.1V13C26 5.8 20.2 0 13 0C5.8 0 0 5.8 0 13V125C0 166.6 33.9 200.5 75.5 200.5C117.1 200.5 151 166.6 151 125C151 83.4 117.1 49.5 75.5 49.5ZM75.5 174.5C48.2 174.5 26 152.3 26 125C26 97.7 48.2 75.5 75.5 75.5C102.8 75.5 125 97.7 125 125C125 152.3 102.8 174.5 75.5 174.5Z"
                    
                />
                <path
                    d="M609.5 120.5C596.5 115.1 583.7 112.4 583.1 112.3C583 112.3 573.2 110.2 563 106.2C547.3 99.9 545.5 95 545.5 95C545.5 89.8 552.1 83.6 561.6 80C577 74.1 601.3 74.1 618.8 93.7C623.6 99 631.8 99.5 637.1 94.7C642.4 89.9 642.9 81.7 638.1 76.4C626.6 63.6 611.8 55.2 595.2 52.1C580.9 49.4 565.7 50.7 552.3 55.8C532.1 63.6 519.5 78.6 519.5 95.1C519.5 109.2 530.3 120.8 551.5 129.6C564.5 135 577.3 137.7 577.9 137.8C578 137.8 587.8 139.9 598 143.9C613.7 150.1 615.5 155.1 615.6 155.1C615.6 160.3 609 166.5 599.5 170.1C584.1 176 559.8 176 542.3 156.4C537.5 151.1 529.3 150.6 524 155.4C518.7 160.2 518.2 168.4 523 173.7C534.5 186.5 549.3 194.9 565.9 198C570.8 198.9 575.7 199.4 580.7 199.4C590.3 199.4 600 197.7 608.8 194.3C629 186.5 641.6 171.5 641.6 155C641.5 140.9 630.7 129.3 609.5 120.5Z"
                    
                />
                <path
                    d="M738.5 175C723.7 175 708.5 167.1 708.5 154C708.5 142.2 708.3 107.9 708 76H726.5C733.7 76 739.5 70.2 739.5 63C739.5 55.8 733.7 50 726.5 50H707.8C707.6 29 707.5 13.3 707.5 12.9C707.4 5.8 701.6 0 694.5 0H694.4C687.2 0.1 681.5 5.9 681.5 13.1C681.5 13.5 681.6 29.2 681.8 50H673.5C666.3 50 660.5 55.8 660.5 63C660.5 70.2 666.3 76 673.5 76H682C682.2 107.9 682.5 142.3 682.5 154C682.5 168 689.1 180.6 701 189.3C711.2 196.8 724.5 200.9 738.4 200.9C745.6 200.9 751.4 195.1 751.4 187.9C751.4 180.7 745.6 175 738.5 175Z"
                    
                />
                <path
                    d="M279.9 159.6L279.4 160C270 169.7 257.4 175 243.9 175C242 175 240.1 174.9 238.3 174.7L240.1 188.5L229.2 199.6C234 200.5 238.9 201.1 243.9 201.1C264.3 201.1 283.4 193.1 297.8 178.5L325 153.1L307.3 134.1L279.9 159.6Z"
                    
                />
                <path
                    d="M234.3 174C211.6 169.5 194.5 149.4 194.5 125.4C194.5 116 197.1 107.2 201.7 99.7L187.9 97.1L181 84C173.1 95.9 168.5 110.2 168.5 125.5C168.5 160.5 192.4 189.9 224.7 198.5L236 187L234.3 174Z"
                    
                />
                <path
                    d="M204.1 96.2C213.1 83.9 227.6 76 244 76C257.7 76 270.5 81.5 280 91.5L280.3 91.8L290.1 100.9L294.2 86.6L307.2 81.4L298.5 73.3C284.1 58.3 264.8 50 244 50C219.3 50 197.4 61.9 183.6 80.3L190.5 93.7L204.1 96.2Z"
                    
                />
                <path
                    d="M326.6 135L365.6 171.4L369.5 158.1L383.5 152.5L344.3 116L310.4 84.3999L297.4 89.4999L293.3 103.9L326.6 135Z"
                    
                />
                <path
                    d="M390.5 92L391.1 91.4C400.6 81.4 413.3 75.9 427.1 75.9C433.6 75.9 439.9 77.2 445.6 79.5L455.4 69.6L453.4 54.8C445.2 51.7 436.3 50 427 50C406.2 50 386.9 58.3 372.5 73.3L349.2 95L366.9 114L390.5 92Z"
                    
                />
                <path
                    d="M457.6 56.5L459.5 71L449.3 81.3C465.4 89.5 476.5 106.2 476.5 125.5C476.5 137.5 472.2 148.6 465 157.1L471.8 170.2L485.7 172.8C496.2 159.8 502.5 143.4 502.5 125.5C502.5 94.8 484 68.3 457.6 56.5Z"
                    
                />
                <path
                    d="M462.2 160.3C453.2 169.4 440.8 175 427 175C413.5 175 400.9 169.7 391.5 160L391.3 159.8L386.8 155.6L372.8 161.2L368.9 174.5L373.1 178.4C387.4 193 406.5 201 427 201C449 201 468.9 191.5 482.7 176.4L469.2 173.9L462.2 160.3Z"
                    
                />
            </g>
        </svg>