<?xml version="1.0" encoding="utf-8"?>
<!-- Generator: Adobe Illustrator 22.0.1, SVG Export Plug-In . SVG Version: 6.00 Build 0)  -->
<svg version="1.1" id="Calque_1" xmlns="http://www.w3.org/2000/svg" xmlns:xlink="http://www.w3.org/1999/xlink" x="0px" y="0px"
	 width="281.3px" height="92.7px" viewBox="0 0 281.3 92.7" style="enable-background:new 0 0 281.3 92.7;" xml:space="preserve">
<style type="text/css">
	.st0{fill:#004990;}
	.st1{fill:#F58020;}
</style>
<title>coveo_logo_blue_orange</title>
<g id="Layer_2">
	<g id="Layer_1-2">
		<path class="st0" d="M34.7,60.2c-3-3.7-7.5-5.9-12.3-5.9c-8.1,0-14.3,7.1-14.3,15.1c0,8.9,6.2,15.3,14.9,15.3
			c4.7,0,8.6-2.3,11.9-5.7v10.6c-3.7,1.9-7.8,2.9-11.9,2.9c-12.7,0-23-9.7-23-22.7c0-13.3,10.4-23.2,23.5-23.2c4,0,7.9,1,11.4,2.9
			L34.7,60.2z"/>
		<path class="st0" d="M57.5,69.6c0.1,8.2,6.8,14.7,14.9,14.6S87.1,77.5,87,69.3c-0.1-8.1-6.7-14.6-14.8-14.6
			C64,54.7,57.4,61.4,57.5,69.6 M95.1,69.6c0.2,12.5-9.8,22.7-22.3,22.9c-0.2,0-0.5,0-0.7,0C59.5,92.8,49,82.8,48.8,70.1
			S58.5,47,71.2,46.7c0.3,0,0.6,0,1,0c12.5-0.2,22.8,9.7,23,22.2C95.1,69.2,95.1,69.4,95.1,69.6"/>
		<polygon class="st0" points="126.6,75 139.1,48 148.4,48 126.6,92.7 105,48 114.3,48 		"/>
		<path class="st0" d="M191.5,64.8c-1-6.5-5.2-10.7-11.9-10.7c-6.5,0-11.2,4.5-12.3,10.7H191.5z M167,70.9c0,7.3,5,14.3,13,14.3
			c6.3,0,9.7-3.2,12.8-8.4l7,3.9c-3.9,7.4-11.6,11.9-20,11.8c-13.1,0-21.1-9.9-21.1-22.7c0-13.3,7.1-23.2,20.9-23.2
			s20.1,10.1,20.1,22.9v1.5H167z"/>
		<path class="st0" d="M220.6,69.6c0.1,8.2,6.8,14.7,14.9,14.6c8.2-0.1,14.7-6.8,14.6-14.9c-0.1-8.1-6.7-14.6-14.8-14.6
			C227.2,54.7,220.5,61.4,220.6,69.6 M258.4,69.6c0.1,12.7-10.2,23-22.9,23.1c-12.7,0.1-23-10.2-23.1-22.9
			c-0.1-12.7,10.2-23,22.9-23.1c0,0,0.1,0,0.1,0c12.5-0.2,22.8,9.7,23,22.2C258.4,69.2,258.4,69.4,258.4,69.6"/>
		<polygon class="st1" points="197,20.5 161.3,0 161.3,41.1 		"/>
	</g>
</g>
<g>
	<path class="st0" d="M269.8,40.5l2.6,9.7h-1.2l-1.5-5.9l-2.7,6.3l-2.7-6.3l-1.6,6h-1.2l2.6-9.7l2.9,7L269.8,40.5z"/>
	<path class="st0" d="M273.7,40.9h2.3c1.8,0,3.1,0.5,4,1.4s1.3,2,1.3,3.2c0,1.2-0.5,2.3-1.4,3.3s-2.2,1.4-3.9,1.4h-2.3V40.9z
		 M275,42.1V49h0.1c0.9,0,1.7,0,2.1-0.1c0.5-0.1,0.9-0.3,1.4-0.6c0.4-0.3,0.8-0.7,1-1.1c0.3-0.5,0.4-1,0.4-1.6
		c0-0.7-0.2-1.4-0.6-1.9s-0.9-1-1.5-1.2c-0.6-0.2-1.3-0.3-2.3-0.3H275z"/>
</g>
</svg>
