<?xml version="1.0" encoding="UTF-8" standalone="no"?>
<svg
   xmlns:dc="http://purl.org/dc/elements/1.1/"
   xmlns:cc="http://creativecommons.org/ns#"
   xmlns:rdf="http://www.w3.org/1999/02/22-rdf-syntax-ns#"
   xmlns:svg="http://www.w3.org/2000/svg"
   xmlns="http://www.w3.org/2000/svg"
   id="svg8"
   version="1.1"
   viewBox="0 0 210 297"
   height="297mm"
   width="210mm">
  <defs
     id="defs2" />
  <metadata
     id="metadata5">
    <rdf:RDF>
      <cc:Work
         rdf:about="">
        <dc:format>image/svg+xml</dc:format>
        <dc:type
           rdf:resource="http://purl.org/dc/dcmitype/StillImage" />
        <dc:title></dc:title>
      </cc:Work>
    </rdf:RDF>
  </metadata>
  <g
     id="layer1">
    <g
       style="fill:none;fill-rule:evenodd"
       transform="matrix(0.26458333,0,0,0.26458333,-116.78724,40.454897)"
       id="g3694">
      <path
         style="fill:#f58020"
         d="M 140.7,80.1 0,162.2 V 0.4 l 140.7,79.7"
         transform="matrix(1,0,0,-1,637.04,163.66)"
         id="path3680" />
      <g
         style="fill:#ffffff"
         id="g3692">
        <path
           d="m 138.3,128.1 c -13,14.8 -29,22.8 -48.6,22.8 -31.9,0 -56.5,-28.2 -56.5,-59.4 0,-34.8 24.2,-60.1 58.7,-60.1 18.8,0 34,8.7 46.4,22.4 V 12.1 C 123.5,4.1 108.6,0.8 91.6,0.8 c -50,0 -91,38.4 -91,89.2 0,52.5 40.6,91.3 92.8,91.3 15.2,0 31.9,-3.6 44.9,-11.2 v -42"
           transform="matrix(1,0,0,-1,0.594,367.15)"
           id="path3682" />
        <path
           d="m 33.3,90.3 c 0,-31.9 25.8,-59.1 58,-59.1 32.3,0 58,27.1 58,59.1 0,32.3 -25.7,59.1 -58,59.1 -32.2,0 -58,-26.8 -58,-59.1 m 148.7,0 C 182,39.2 142.1,0.1 91.4,0.1 40.7,0.1 0.8,39.2 0.8,90.3 c 0,51.1 39.8,90.3 90.5,90.3 50.7,0 90.7,-39.2 90.7,-90.3"
           transform="matrix(1,0,0,-1,194.3,366.36)"
           id="path3684" />
        <path
           d="m 129.8,110.2 c -4,25.4 -20.6,42.4 -46.8,42.4 -25.3,0 -44.2,-18 -48.3,-42.4 h 95.1 M 33.1,85.6 C 33.4,56.5 53,29.4 84.2,29.4 c 25,0 38.4,12.7 50.8,33 L 162.5,46.8 C 146.5,17.4 116.8,0.4 83.9,0.4 32.1,0.4 0.6,39.6 0.6,89.6 c 0,52.2 27.9,91.3 82.6,91.3 54,0 79.4,-39.9 79.4,-90.2 v -5 L 33.1,85.6"
           transform="matrix(1,0,0,-1,626.15,366.66)"
           id="path3686" />
        <path
           d="m 33.1,90.3 c 0,-31.9 25.7,-59.1 58,-59.1 32.3,0 58,27.1 58,59.1 0,32.3 -25.7,59.1 -58,59.1 -32.3,0 -58,-26.8 -58,-59.1 m 148.6,0 C 181.7,39.2 141.9,0.1 91.1,0.1 40.4,0.1 0.6,39.2 0.6,90.3 c 0,51.1 39.8,90.3 90.5,90.3 50.7,0 90.6,-39.2 90.6,-90.3"
           transform="matrix(1,0,0,-1,837.05,366.36)"
           id="path3688" />
        <path
           d="m 500.2,296.7 48.9,-105.9 h 36.6 L 500.2,366.3 415,190.9 h 36.6 l 48.6,105.8"
           id="path3690" />
      </g>
    </g>
  </g>
</svg>
