<?xml version="1.0" encoding="utf-8"?>
<!-- Generator: Adobe Illustrator 16.0.0, SVG Export Plug-In . SVG Version: 6.00 Build 0)  -->
<svg version="1.2" baseProfile="tiny" id="Layer_1" xmlns="http://www.w3.org/2000/svg" xmlns:xlink="http://www.w3.org/1999/xlink"
	 x="0px" y="0px" width="1000px" height="1000px" viewBox="0 0 1000 1000" xml:space="preserve">
<g>
	<path fill="#00874E" d="M309.406,445.197h-37.561v109.61h38.176c34.483,0,56.651-21.553,56.651-54.807
		C366.672,467.366,343.274,445.197,309.406,445.197z M308.791,536.333h-14.166v-72.046h15.396c20.321,0,34.483,15.394,34.483,36.33
		C344.504,521.553,329.726,536.333,308.791,536.333z"/>
	<path fill="#00874E" d="M43.392,450.738v98.525l85.592,49.261l85.591-49.261v-98.525l-85.591-49.261L43.392,450.738z
		 M191.178,464.287v72.046l-62.194,35.714L66.79,535.714v-71.427l62.194-35.716L191.178,464.287z"/>
	<path fill="#00874E" d="M803.258,455.05c0,6.157-4.932,11.699-11.703,11.699c-6.157,0-11.701-4.929-11.701-11.699
		c0-6.157,4.931-11.703,11.701-11.703C797.713,443.347,803.258,448.893,803.258,455.05z M801.404,479.681h-19.699v75.126h19.699
		V479.681z"/>
	<path fill="#00874E" d="M492.288,508.623c-8.62-3.079-11.083-4.931-11.083-8.623c0-3.079,2.463-5.541,7.389-5.541
		c7.39,0,12.931,4.308,17.86,8.62l11.083-12.315c-7.392-8.004-17.858-12.316-28.943-12.316c-16.009,0-27.093,9.237-27.093,22.169
		c0,14.777,11.698,20.937,22.784,24.628c1.229,0.619,2.463,0.619,3.696,1.232c6.158,1.847,9.85,3.08,9.85,6.777
		c0,2.46-1.229,5.539-9.237,5.539c-7.389,0-14.779-3.692-18.473-9.236l-11.7,12.314c8.007,9.236,17.857,13.549,30.173,13.549
		c17.86,0,28.943-8.623,28.943-22.786C518.15,519.087,508.301,514.78,492.288,508.623z"/>
	<path fill="#00874E" d="M931.337,508.623c-8.623-3.079-11.083-4.931-11.083-8.623c0-3.079,2.46-5.541,7.384-5.541
		c7.39,0,12.936,4.308,17.86,8.62l11.082-12.315c-7.39-8.004-17.853-12.316-28.942-12.316c-16.007,0-27.09,9.237-27.09,22.169
		c0,14.777,11.696,20.937,22.784,24.628c1.228,0.619,2.459,0.619,3.692,1.232c6.157,1.847,9.85,3.08,9.85,6.777
		c0,2.46-1.227,5.539-9.236,5.539c-7.384,0-14.774-3.692-18.474-9.236l-11.696,12.314c8.006,9.236,17.855,13.549,30.17,13.549
		c17.86,0,28.942-8.623,28.942-22.786C957.2,519.087,947.344,514.78,931.337,508.623z"/>
	<path fill="#00874E" d="M553.251,455.05c0,6.157-4.926,11.699-11.696,11.699c-6.159,0-11.703-4.929-11.703-11.699
		c0-6.774,4.926-11.703,11.703-11.703C547.712,443.347,553.251,448.893,553.251,455.05z M529.852,583.743
		c12.93,0,21.553-8.617,21.553-26.478v-77.585h-19.706v76.973c0,6.771-3.08,10.468-7.391,10.468c-2.46,0-4.306-0.618-6.771-1.852
		l-3.079,16.627C519.382,583.13,523.081,583.743,529.852,583.743L529.852,583.743z"/>
	<path fill="#00874E" d="M614.827,483.99c-5.539-3.696-12.315-5.542-20.319-5.542c-12.316,0-22.166,4.313-28.323,12.316
		c1.227,1.233,9.85,10.47,11.696,12.315c3.079-4.312,6.157-6.773,10.47-8.003c1.847-0.617,3.078-0.617,4.924-0.617
		c2.467,0,4.926,0.617,6.777,1.23c4.926,1.848,7.386,5.544,7.386,10.468v4.926c-0.613,0-6.772-3.079-16.622-3.079
		c-16.014,0-27.71,10.47-27.71,24.017c0,13.55,10.463,23.399,24.632,23.399c8.617,0,14.161-3.692,19.087-8.004h0.613v6.771h18.473
		v-49.261C625.91,495.689,622.218,488.917,614.827,483.99z M607.438,530.176c0,3.691-8.004,9.851-17.24,9.851
		c-5.539,0-9.852-3.693-9.852-8.624c0-3.079,1.846-9.236,11.696-9.236c7.392,0,15.396,2.465,15.396,2.465V530.176z"/>
	<path fill="#00874E" d="M662.242,488.301L662.242,488.301l-0.613-8.62h-19.705v75.126h19.705v-33.867
		c0-13.549,6.771-22.786,23.398-22.786v-19.707C675.171,478.447,667.168,481.527,662.242,488.301z"/>
	<path fill="#00874E" d="M746.604,548.029h0.613v6.777h18.474v-109.61h-19.707v40.643h-0.613c-3.69-4.929-12.928-7.392-19.086-7.392
		c-24.018,0-36.333,19.707-36.333,38.793c0,14.162,6.158,23.399,11.083,28.33c6.776,6.771,16.014,10.463,25.25,10.463
		C730.591,556.033,737.981,554.807,746.604,548.029z M727.512,538.18c-10.463,0-19.087-9.236-19.087-20.939
		c0-11.696,8.624-20.935,19.087-20.935c11.702,0,19.093,11.085,19.093,20.935C746.604,528.943,737.981,538.18,727.512,538.18z"/>
	<path fill="#00874E" d="M837.737,485.839h-0.613v-6.159h-19.706v75.126h19.706v-38.8c0-17.24,10.464-19.701,17.24-19.701
		c11.083,0,15.394,9.238,15.394,17.856v40.645h19.707v-40.645c0-22.166-12.314-35.715-32.021-35.715
		C843.281,478.447,837.737,485.839,837.737,485.839z"/>
	<path fill="#00874E" d="M451.035,516.627c0-22.167-15.394-38.18-36.947-38.18c-21.552,0-36.946,16.012-36.946,38.793
		c0,22.786,16.007,38.793,38.793,38.793c13.547,0,24.63-4.926,32.021-13.543c-1.233-1.851-9.853-10.47-11.701-12.314
		c-3.692,4.305-10.466,8.617-18.473,8.617c-9.85,0-17.242-5.539-19.703-15.394h52.957
		C451.035,522.166,451.035,519.087,451.035,516.627z M397.461,509.236c2.463-9.236,8.62-14.16,17.24-14.16
		c8.624,0,14.781,4.924,16.627,14.16H397.461z"/>
</g>
</svg>
