<?xml version="1.0" encoding="UTF-8"?>
<!DOCTYPE svg PUBLIC "-//W3C//DTD SVG 1.1//EN" "http://www.w3.org/Graphics/SVG/1.1/DTD/svg11.dtd">
<svg version="1.2" width="322.17mm" height="69.52mm" viewBox="1531 14163 32217 6952" preserveAspectRatio="xMidYMid" fill-rule="evenodd" stroke-width="28.222" stroke-linejoin="round" xmlns="http://www.w3.org/2000/svg" xmlns:ooo="http://xml.openoffice.org/svg/export" xmlns:xlink="http://www.w3.org/1999/xlink" xmlns:presentation="http://sun.com/xmlns/staroffice/presentation" xmlns:smil="http://www.w3.org/2001/SMIL20/" xmlns:anim="urn:oasis:names:tc:opendocument:xmlns:animation:1.0" xml:space="preserve">
 <defs class="ClipPathGroup">
  <clipPath id="presentation_clip_path" clipPathUnits="userSpaceOnUse">
   <rect x="1531" y="14163" width="32217" height="6952"/>
  </clipPath>
  <clipPath id="presentation_clip_path_shrink" clipPathUnits="userSpaceOnUse">
   <rect x="1563" y="14169" width="32153" height="6939"/>
  </clipPath>
 </defs>
 <defs class="TextShapeIndex">
  <g ooo:slide="id1" ooo:id-list="id3 id4 id5 id6 id7 id8 id9 id10 id11 id12 id13"/>
 </defs>
 <defs class="EmbeddedBulletChars">
  <g id="bullet-char-template-57356" transform="scale(0.00048828125,-0.00048828125)">
   <path d="M 580,1141 L 1163,571 580,0 -4,571 580,1141 Z"/>
  </g>
  <g id="bullet-char-template-57354" transform="scale(0.00048828125,-0.00048828125)">
   <path d="M 8,1128 L 1137,1128 1137,0 8,0 8,1128 Z"/>
  </g>
  <g id="bullet-char-template-10146" transform="scale(0.00048828125,-0.00048828125)">
   <path d="M 174,0 L 602,739 174,1481 1456,739 174,0 Z M 1358,739 L 309,1346 659,739 1358,739 Z"/>
  </g>
  <g id="bullet-char-template-10132" transform="scale(0.00048828125,-0.00048828125)">
   <path d="M 2015,739 L 1276,0 717,0 1260,543 174,543 174,936 1260,936 717,1481 1274,1481 2015,739 Z"/>
  </g>
  <g id="bullet-char-template-10007" transform="scale(0.00048828125,-0.00048828125)">
   <path d="M 0,-2 C -7,14 -16,27 -25,37 L 356,567 C 262,823 215,952 215,954 215,979 228,992 255,992 264,992 276,990 289,987 310,991 331,999 354,1012 L 381,999 492,748 772,1049 836,1024 860,1049 C 881,1039 901,1025 922,1006 886,937 835,863 770,784 769,783 710,716 594,584 L 774,223 C 774,196 753,168 711,139 L 727,119 C 717,90 699,76 672,76 641,76 570,178 457,381 L 164,-76 C 142,-110 111,-127 72,-127 30,-127 9,-110 8,-76 1,-67 -2,-52 -2,-32 -2,-23 -1,-13 0,-2 Z"/>
  </g>
  <g id="bullet-char-template-10004" transform="scale(0.00048828125,-0.00048828125)">
   <path d="M 285,-33 C 182,-33 111,30 74,156 52,228 41,333 41,471 41,549 55,616 82,672 116,743 169,778 240,778 293,778 328,747 346,684 L 369,508 C 377,444 397,411 428,410 L 1163,1116 C 1174,1127 1196,1133 1229,1133 1271,1133 1292,1118 1292,1087 L 1292,965 C 1292,929 1282,901 1262,881 L 442,47 C 390,-6 338,-33 285,-33 Z"/>
  </g>
  <g id="bullet-char-template-9679" transform="scale(0.00048828125,-0.00048828125)">
   <path d="M 813,0 C 632,0 489,54 383,161 276,268 223,411 223,592 223,773 276,916 383,1023 489,1130 632,1184 813,1184 992,1184 1136,1130 1245,1023 1353,916 1407,772 1407,592 1407,412 1353,268 1245,161 1136,54 992,0 813,0 Z"/>
  </g>
  <g id="bullet-char-template-8226" transform="scale(0.00048828125,-0.00048828125)">
   <path d="M 346,457 C 273,457 209,483 155,535 101,586 74,649 74,723 74,796 101,859 155,911 209,963 273,989 346,989 419,989 480,963 531,910 582,859 608,796 608,723 608,648 583,586 532,535 482,483 420,457 346,457 Z"/>
  </g>
  <g id="bullet-char-template-8211" transform="scale(0.00048828125,-0.00048828125)">
   <path d="M -4,459 L 1135,459 1135,606 -4,606 -4,459 Z"/>
  </g>
  <g id="bullet-char-template-61548" transform="scale(0.00048828125,-0.00048828125)">
   <path d="M 173,740 C 173,903 231,1043 346,1159 462,1274 601,1332 765,1332 928,1332 1067,1274 1183,1159 1299,1043 1357,903 1357,740 1357,577 1299,437 1183,322 1067,206 928,148 765,148 601,148 462,206 346,322 231,437 173,577 173,740 Z"/>
  </g>
 </defs>
 <defs class="TextEmbeddedBitmaps"/>
 <g class="SlideGroup">
  <g>
   <g id="container-id1">
    <g id="id1" class="Slide" clip-path="url(#presentation_clip_path)">
     <g class="Page">
      <g class="com.sun.star.drawing.ClosedBezierShape">
       <g id="id3">
        <rect class="BoundingBox" stroke="none" fill="none" x="9589" y="15706" width="3348" height="3870"/>
        <path fill="rgb(0,135,78)" stroke="none" d="M 10915,15706 L 9590,15706 9590,19574 10937,19574 C 12154,19574 12936,18813 12936,17640 12936,16488 12111,15706 10915,15706 Z M 10894,18922 L 10394,18922 10394,16380 10937,16380 C 11654,16380 12154,16923 12154,17662 12154,18400 11633,18922 10894,18922 Z"/>
       </g>
      </g>
      <g class="com.sun.star.drawing.PolyPolygonShape">
       <g id="id4">
        <rect class="BoundingBox" stroke="none" fill="none" x="1531" y="14163" width="6041" height="6953"/>
        <path fill="rgb(0,135,78)" stroke="none" d="M 1531,15901 L 1531,19377 4551,21115 7571,19377 7571,15901 4551,14163 1531,15901 Z M 6745,16379 L 6745,18921 4551,20181 2357,18899 2357,16379 4551,15119 6745,16379 Z"/>
       </g>
      </g>
      <g class="com.sun.star.drawing.ClosedBezierShape">
       <g id="id5">
        <rect class="BoundingBox" stroke="none" fill="none" x="27512" y="15640" width="828" height="3934"/>
        <path fill="rgb(0,135,78)" stroke="none" d="M 28339,16053 C 28339,16270 28164,16466 27925,16466 27708,16466 27512,16292 27512,16053 27512,15836 27686,15640 27925,15640 28143,15640 28339,15836 28339,16053 Z M 28273,16922 L 27577,16922 27577,19573 28273,19573 28273,16922 Z"/>
       </g>
      </g>
      <g class="com.sun.star.drawing.ClosedBezierShape">
       <g id="id6">
        <rect class="BoundingBox" stroke="none" fill="none" x="16172" y="16879" width="2088" height="2717"/>
        <path fill="rgb(0,135,78)" stroke="none" d="M 17367,17944 C 17063,17835 16976,17770 16976,17640 16976,17531 17063,17444 17237,17444 17498,17444 17693,17596 17867,17748 L 18258,17314 C 17998,17031 17628,16879 17237,16879 16672,16879 16281,17205 16281,17661 16281,18183 16694,18400 17085,18531 17128,18552 17172,18552 17215,18574 17433,18639 17563,18683 17563,18813 17563,18900 17520,19009 17237,19009 16976,19009 16715,18878 16585,18683 L 16172,19117 C 16455,19443 16802,19595 17237,19595 17867,19595 18258,19291 18258,18791 18280,18313 17932,18161 17367,17944 Z"/>
       </g>
      </g>
      <g class="com.sun.star.drawing.ClosedBezierShape">
       <g id="id7">
        <rect class="BoundingBox" stroke="none" fill="none" x="31661" y="16879" width="2088" height="2717"/>
        <path fill="rgb(0,135,78)" stroke="none" d="M 32856,17944 C 32552,17835 32465,17770 32465,17640 32465,17531 32552,17444 32726,17444 32987,17444 33182,17596 33356,17748 L 33747,17314 C 33487,17031 33117,16879 32726,16879 32161,16879 31770,17205 31770,17661 31770,18183 32183,18400 32574,18531 32617,18552 32661,18552 32704,18574 32921,18639 33052,18683 33052,18813 33052,18900 33009,19009 32726,19009 32465,19009 32204,18878 32074,18683 L 31661,19117 C 31944,19443 32291,19595 32726,19595 33356,19595 33747,19291 33747,18791 33769,18313 33421,18161 32856,17944 Z"/>
       </g>
      </g>
      <g class="com.sun.star.drawing.ClosedBezierShape">
       <g id="id8">
        <rect class="BoundingBox" stroke="none" fill="none" x="18148" y="15640" width="1372" height="4955"/>
        <path fill="rgb(0,135,78)" stroke="none" d="M 19519,16053 C 19519,16270 19345,16466 19106,16466 18888,16466 18692,16292 18692,16053 18692,15814 18866,15640 19106,15640 19323,15640 19519,15836 19519,16053 Z M 18692,20594 C 19149,20594 19453,20290 19453,19660 L 19453,16922 18758,16922 18758,19638 C 18758,19877 18649,20007 18497,20007 18410,20007 18345,19986 18258,19942 L 18149,20529 C 18323,20572 18453,20594 18692,20594 Z"/>
       </g>
      </g>
      <g class="com.sun.star.drawing.ClosedBezierShape">
       <g id="id9">
        <rect class="BoundingBox" stroke="none" fill="none" x="19865" y="16879" width="2218" height="2717"/>
        <path fill="rgb(0,135,78)" stroke="none" d="M 21690,17075 C 21495,16944 21256,16879 20973,16879 20539,16879 20191,17031 19974,17314 20017,17357 20321,17683 20386,17748 20495,17596 20604,17509 20756,17466 20821,17444 20865,17444 20930,17444 21017,17444 21104,17466 21169,17487 21343,17553 21430,17683 21430,17857 L 21430,18031 C 21408,18031 21191,17922 20843,17922 20278,17922 19865,18292 19865,18770 19865,19248 20234,19595 20734,19595 21038,19595 21234,19465 21408,19313 L 21430,19313 21430,19552 22082,19552 22082,17813 C 22082,17487 21951,17248 21690,17075 Z M 21430,18705 C 21430,18835 21147,19052 20821,19052 20626,19052 20473,18922 20473,18748 20473,18639 20539,18422 20886,18422 21147,18422 21430,18509 21430,18509 L 21430,18705 Z"/>
       </g>
      </g>
      <g class="com.sun.star.drawing.ClosedBezierShape">
       <g id="id10">
        <rect class="BoundingBox" stroke="none" fill="none" x="22646" y="16879" width="1523" height="2696"/>
        <path fill="rgb(0,135,78)" stroke="none" d="M 23363,17227 L 23342,16923 22646,16923 22646,19574 23342,19574 23342,18379 C 23342,17900 23581,17574 24168,17574 L 24168,16879 C 23820,16879 23537,16988 23363,17227 Z"/>
       </g>
      </g>
      <g class="com.sun.star.drawing.ClosedBezierShape">
       <g id="id11">
        <rect class="BoundingBox" stroke="none" fill="none" x="24340" y="15706" width="2674" height="3913"/>
        <path fill="rgb(0,135,78)" stroke="none" d="M 26339,19335 L 26361,19335 26361,19574 27013,19574 27013,15706 26317,15706 26317,17140 26296,17140 C 26166,16966 25840,16879 25622,16879 24775,16879 24340,17575 24340,18248 24340,18748 24557,19074 24731,19248 24970,19487 25296,19617 25622,19617 25774,19617 26035,19574 26339,19335 Z M 25666,18987 C 25296,18987 24992,18661 24992,18248 24992,17836 25296,17510 25666,17510 26079,17510 26339,17901 26339,18248 26339,18661 26035,18987 25666,18987 Z"/>
       </g>
      </g>
      <g class="com.sun.star.drawing.ClosedBezierShape">
       <g id="id12">
        <rect class="BoundingBox" stroke="none" fill="none" x="28836" y="16879" width="2545" height="2696"/>
        <path fill="rgb(0,135,78)" stroke="none" d="M 29554,17140 L 29532,17140 29532,16923 28837,16923 28837,19574 29532,19574 29532,18205 C 29532,17596 29902,17509 30141,17509 30532,17509 30684,17835 30684,18139 L 30684,19574 31380,19574 31380,18139 C 31380,17357 30945,16879 30250,16879 29750,16879 29554,17140 29554,17140 Z"/>
       </g>
      </g>
      <g class="com.sun.star.drawing.ClosedBezierShape">
       <g id="id13">
        <rect class="BoundingBox" stroke="none" fill="none" x="13305" y="16879" width="2610" height="2739"/>
        <path fill="rgb(0,135,78)" stroke="none" d="M 15913,18226 C 15913,17444 15370,16879 14609,16879 13848,16879 13305,17444 13305,18248 13305,19052 13870,19617 14674,19617 15152,19617 15543,19443 15804,19139 15761,19074 15456,18770 15391,18705 15261,18856 15022,19009 14739,19009 14392,19009 14131,18813 14044,18465 L 15913,18465 C 15913,18422 15913,18313 15913,18226 Z M 14022,17966 C 14109,17640 14326,17466 14631,17466 14935,17466 15152,17640 15217,17966 L 14022,17966 Z"/>
       </g>
      </g>
     </g>
    </g>
   </g>
  </g>
 </g>
</svg>