<?xml version="1.0" encoding="UTF-8"?>
<!DOCTYPE svg PUBLIC "-//W3C//DTD SVG 1.1//EN" "http://www.w3.org/Graphics/SVG/1.1/DTD/svg11.dtd">
<svg version="1.2" width="312.7mm" height="116.61mm" viewBox="2004 11809 31270 11661" preserveAspectRatio="xMidYMid" fill-rule="evenodd" stroke-width="28.222" stroke-linejoin="round" xmlns="http://www.w3.org/2000/svg" xmlns:ooo="http://xml.openoffice.org/svg/export" xmlns:xlink="http://www.w3.org/1999/xlink" xmlns:presentation="http://sun.com/xmlns/staroffice/presentation" xmlns:smil="http://www.w3.org/2001/SMIL20/" xmlns:anim="urn:oasis:names:tc:opendocument:xmlns:animation:1.0" xml:space="preserve">
 <defs class="ClipPathGroup">
  <clipPath id="presentation_clip_path" clipPathUnits="userSpaceOnUse">
   <rect x="2004" y="11809" width="31270" height="11661"/>
  </clipPath>
  <clipPath id="presentation_clip_path_shrink" clipPathUnits="userSpaceOnUse">
   <rect x="2035" y="11820" width="31208" height="11638"/>
  </clipPath>
 </defs>
 <defs class="TextShapeIndex">
  <g ooo:slide="id1" ooo:id-list="id3 id4"/>
 </defs>
 <defs class="EmbeddedBulletChars">
  <g id="bullet-char-template-57356" transform="scale(0.00048828125,-0.00048828125)">
   <path d="M 580,1141 L 1163,571 580,0 -4,571 580,1141 Z"/>
  </g>
  <g id="bullet-char-template-57354" transform="scale(0.00048828125,-0.00048828125)">
   <path d="M 8,1128 L 1137,1128 1137,0 8,0 8,1128 Z"/>
  </g>
  <g id="bullet-char-template-10146" transform="scale(0.00048828125,-0.00048828125)">
   <path d="M 174,0 L 602,739 174,1481 1456,739 174,0 Z M 1358,739 L 309,1346 659,739 1358,739 Z"/>
  </g>
  <g id="bullet-char-template-10132" transform="scale(0.00048828125,-0.00048828125)">
   <path d="M 2015,739 L 1276,0 717,0 1260,543 174,543 174,936 1260,936 717,1481 1274,1481 2015,739 Z"/>
  </g>
  <g id="bullet-char-template-10007" transform="scale(0.00048828125,-0.00048828125)">
   <path d="M 0,-2 C -7,14 -16,27 -25,37 L 356,567 C 262,823 215,952 215,954 215,979 228,992 255,992 264,992 276,990 289,987 310,991 331,999 354,1012 L 381,999 492,748 772,1049 836,1024 860,1049 C 881,1039 901,1025 922,1006 886,937 835,863 770,784 769,783 710,716 594,584 L 774,223 C 774,196 753,168 711,139 L 727,119 C 717,90 699,76 672,76 641,76 570,178 457,381 L 164,-76 C 142,-110 111,-127 72,-127 30,-127 9,-110 8,-76 1,-67 -2,-52 -2,-32 -2,-23 -1,-13 0,-2 Z"/>
  </g>
  <g id="bullet-char-template-10004" transform="scale(0.00048828125,-0.00048828125)">
   <path d="M 285,-33 C 182,-33 111,30 74,156 52,228 41,333 41,471 41,549 55,616 82,672 116,743 169,778 240,778 293,778 328,747 346,684 L 369,508 C 377,444 397,411 428,410 L 1163,1116 C 1174,1127 1196,1133 1229,1133 1271,1133 1292,1118 1292,1087 L 1292,965 C 1292,929 1282,901 1262,881 L 442,47 C 390,-6 338,-33 285,-33 Z"/>
  </g>
  <g id="bullet-char-template-9679" transform="scale(0.00048828125,-0.00048828125)">
   <path d="M 813,0 C 632,0 489,54 383,161 276,268 223,411 223,592 223,773 276,916 383,1023 489,1130 632,1184 813,1184 992,1184 1136,1130 1245,1023 1353,916 1407,772 1407,592 1407,412 1353,268 1245,161 1136,54 992,0 813,0 Z"/>
  </g>
  <g id="bullet-char-template-8226" transform="scale(0.00048828125,-0.00048828125)">
   <path d="M 346,457 C 273,457 209,483 155,535 101,586 74,649 74,723 74,796 101,859 155,911 209,963 273,989 346,989 419,989 480,963 531,910 582,859 608,796 608,723 608,648 583,586 532,535 482,483 420,457 346,457 Z"/>
  </g>
  <g id="bullet-char-template-8211" transform="scale(0.00048828125,-0.00048828125)">
   <path d="M -4,459 L 1135,459 1135,606 -4,606 -4,459 Z"/>
  </g>
  <g id="bullet-char-template-61548" transform="scale(0.00048828125,-0.00048828125)">
   <path d="M 173,740 C 173,903 231,1043 346,1159 462,1274 601,1332 765,1332 928,1332 1067,1274 1183,1159 1299,1043 1357,903 1357,740 1357,577 1299,437 1183,322 1067,206 928,148 765,148 601,148 462,206 346,322 231,437 173,577 173,740 Z"/>
  </g>
 </defs>
 <defs class="TextEmbeddedBitmaps"/>
 <g class="SlideGroup">
  <g>
   <g id="container-id1">
    <g id="id1" class="Slide" clip-path="url(#presentation_clip_path)">
     <g class="Page">
      <g class="com.sun.star.drawing.ClosedBezierShape">
       <g id="id3">
        <rect class="BoundingBox" stroke="none" fill="none" x="2004" y="11809" width="31272" height="11662"/>
        <path fill="rgb(0,147,161)" stroke="none" d="M 6310,11809 C 4787,11809 3395,12604 2733,13730 2136,14790 2004,16513 2004,17639 2004,18766 2136,20488 2733,21548 3395,22675 4720,23470 6310,23470 L 28968,23470 C 30491,23470 31817,22675 32545,21548 33141,20488 33274,18766 33274,17639 33274,16513 33141,14790 32545,13730 31883,12604 30558,11809 28968,11809 L 6310,11809 Z"/>
       </g>
      </g>
      <g class="com.sun.star.drawing.ClosedBezierShape">
       <g id="id4">
        <rect class="BoundingBox" stroke="none" fill="none" x="2997" y="12869" width="27363" height="9674"/>
        <path fill="rgb(255,255,255)" stroke="none" d="M 21349,17043 L 23271,17043 23271,16977 C 23271,16116 22939,16049 22277,16049 21548,15983 21416,16248 21349,17043 Z M 7967,16049 C 8563,16049 8961,16116 8961,16977 L 8961,17043 7106,17043 C 7106,16314 7238,16049 7967,16049 Z M 5317,17706 C 5317,19760 5847,20488 7967,20488 8762,20488 9424,20422 9888,20157 10352,19892 10617,19428 10617,18633 L 8894,18633 C 8894,19229 8497,19296 7901,19296 7106,19296 6973,18964 6973,17971 L 6973,17904 10551,17904 10551,17639 C 10551,15387 9954,14857 7901,14857 5780,14857 5317,15585 5317,17706 Z M 11809,16646 C 11809,17772 12207,18236 14459,18236 14658,18236 14989,18236 15188,18302 15387,18368 15453,18567 15453,18832 15453,19296 15254,19362 14459,19362 13996,19362 13532,19362 13532,18766 L 11809,18766 C 11809,19958 12406,20356 13466,20488 13797,20488 14128,20488 14526,20488 15983,20488 17176,20223 17176,18633 17176,17109 16381,17043 14526,16977 13598,16977 13532,16778 13532,16447 13532,16049 13598,15983 14526,15983 14857,15983 15254,15983 15321,16447 L 16977,16447 16977,16248 C 16977,14923 15586,14923 14592,14923 12936,14857 11809,14923 11809,16646 Z M 26053,14857 L 30359,14857 30359,16116 29101,16116 29101,20422 27378,20422 27378,16116 26119,16116 26119,14857 26053,14857 Z M 19693,17639 C 19693,15519 20157,14857 22343,14857 24397,14857 24993,15387 24993,17639 L 24993,17904 21416,17904 21416,17971 C 21416,18965 21548,19296 22343,19296 22873,19296 23271,19230 23337,18633 L 24993,18633 C 24993,19428 24728,19826 24264,20091 23801,20356 23138,20422 22343,20422 20157,20422 19693,19693 19693,17639 Z M 4058,21482 C 3197,20555 2998,19097 2998,17706 2998,16314 3197,14857 4058,13929 4588,13333 5648,12869 6576,12869 L 18302,12869 18302,22542 6576,22542 C 5648,22476 4588,22012 4058,21482 Z"/>
       </g>
      </g>
     </g>
    </g>
   </g>
  </g>
 </g>
</svg>