<?xml version="1.0" encoding="utf-8"?>
<!-- Generator: Adobe Illustrator 16.0.0, SVG Export Plug-In . SVG Version: 6.00 Build 0)  -->
<svg version="1.2" baseProfile="tiny" id="Layer_1" xmlns="http://www.w3.org/2000/svg" xmlns:xlink="http://www.w3.org/1999/xlink"
	 x="0px" y="0px" width="1000px" height="1000px" viewBox="0 0 1000 1000" xml:space="preserve">
<g>
	<path fill="#0093A1" d="M178.88,334.745c-43.19,0-82.627,22.534-101.406,54.459c-16.901,30.046-20.656,78.87-20.656,110.797
		c0,31.923,3.755,80.749,20.656,110.794c18.779,31.925,56.337,54.46,101.406,54.46h642.239c43.192,0,80.751-22.535,101.406-54.46
		c16.901-30.045,20.657-78.871,20.657-110.794c0-31.927-3.756-80.751-20.657-110.797c-18.778-31.925-56.338-54.459-101.406-54.459
		H178.88z"/>
	<path fill="#FFFFFF" d="M605.162,483.099h54.459v-1.877c0-24.413-9.39-26.291-28.17-26.291
		C610.796,453.054,607.038,460.564,605.162,483.099 M225.827,454.931c16.901,0,28.17,1.878,28.17,26.291v1.877h-52.582
		C201.415,462.441,205.17,454.931,225.827,454.931 M150.711,501.879c0,58.215,15.023,78.871,75.116,78.871
		c22.535,0,41.313-1.879,54.459-9.391c13.146-7.511,20.658-20.655,20.658-43.19h-48.827c0,16.9-11.267,18.777-28.167,18.777
		c-22.535,0-26.291-9.388-26.291-37.557v-1.877h101.405v-7.512c0-63.851-16.9-78.872-75.114-78.872
		C163.856,421.128,150.711,441.785,150.711,501.879 M334.746,471.831c0,31.925,11.267,45.069,75.114,45.069
		c5.634,0,15.023,0,20.658,1.879c5.634,1.878,7.511,7.512,7.511,15.024c0,13.143-5.634,15.021-28.169,15.021
		c-13.144,0-26.289,0-26.289-16.9h-48.825c0,33.804,16.9,45.07,46.947,48.825c9.389,0,18.778,0,30.046,0
		c41.314,0,75.115-7.51,75.115-52.58c0-43.192-22.535-45.07-75.115-46.947c-26.291,0-28.168-5.635-28.168-15.023
		c0-11.268,1.877-13.145,28.168-13.145c9.39,0,20.656,0,22.534,13.145h46.946v-5.635c0-37.557-39.436-37.557-67.603-37.557
		C366.669,421.128,334.746,423.007,334.746,471.831 M738.492,421.128h122.063v35.681h-35.68v122.063H776.05V456.809h-35.681v-35.681
		H738.492z M558.215,500.001c0-60.094,13.146-78.873,75.116-78.873c58.213,0,75.114,15.022,75.114,78.873v7.51H607.038v1.878
		c0,28.17,3.758,37.558,26.293,37.558c15.022,0,26.29-1.877,28.167-18.777h46.947c0,22.535-7.512,33.801-20.656,41.313
		c-13.146,7.513-31.923,9.39-54.458,9.39C571.36,578.871,558.215,558.215,558.215,500.001 M115.032,608.917
		c-24.412-26.289-30.047-67.603-30.047-107.038c0-39.438,5.635-80.751,30.047-107.041c15.023-16.901,45.069-30.047,71.359-30.047
		h332.388v274.174H186.392C160.102,637.087,130.056,623.941,115.032,608.917"/>
</g>
</svg>
