<?xml version="1.0" encoding="utf-8"?>
<!-- Generator: Adobe Illustrator 19.0.0, SVG Export Plug-In . SVG Version: 6.00 Build 0)  -->
<svg version="1.1"
	 id="svg2" sodipodi:docname="Logo ETS.svg" inkscape:version="0.91 r13725" xmlns:svg="http://www.w3.org/2000/svg" xmlns:sodipodi="http://sodipodi.sourceforge.net/DTD/sodipodi-0.dtd" xmlns:cc="http://creativecommons.org/ns#" xmlns:dc="http://purl.org/dc/elements/1.1/" xmlns:rdf="http://www.w3.org/1999/02/22-rdf-syntax-ns#" xmlns:inkscape="http://www.inkscape.org/namespaces/inkscape"
	 xmlns="http://www.w3.org/2000/svg" xmlns:xlink="http://www.w3.org/1999/xlink" x="0px" y="0px" viewBox="-26 222.6 558.2 348.4"
	 style="enable-background:new -26 222.6 558.2 348.4;" xml:space="preserve">
<style type="text/css">
	.st0{clip-path:url(#SVGID_2_);}
	.st1{filter:url(#Adobe_OpacityMaskFilter);}
	.st2{fill:url(#path44_1_);}
	.st3{mask:url(#mask34);}
	.st4{fill:url(#path56_1_);}
	.st5{clip-path:url(#SVGID_4_);}
	.st6{fill:#E73136;}
	.st7{fill:#636363;}
	.st8{fill:#FFFFFF;}
	.st9{clip-path:url(#SVGID_6_);}
	.st10{filter:url(#Adobe_OpacityMaskFilter_1_);}
	.st11{fill:url(#path168_1_);}
	.st12{mask:url(#mask158);}
	.st13{fill:url(#path182_1_);}
	.st14{clip-path:url(#SVGID_8_);}
	.st15{fill:#1C1C1B;}
</style>
<sodipodi:namedview  id="namedview4" inkscape:zoom="0.67544564" inkscape:cy="174.19125" guidetolerance="10" gridtolerance="10" inkscape:cx="279.07501" objecttolerance="10" showgrid="false" borderopacity="1" bordercolor="#666666" pagecolor="#ffffff" inkscape:pageopacity="0" inkscape:window-height="480" inkscape:pageshadow="2" inkscape:window-width="640" inkscape:window-maximized="0" inkscape:window-x="0" inkscape:current-layer="g10" inkscape:window-y="0">
	</sodipodi:namedview>
<g id="g10" transform="matrix(1.25,0,0,-1.25,0,348.3825)" inkscape:label="ETS couleur 24 po" inkscape:groupmode="layer">
	<g id="g3598">
		<g id="g12">
			<g>
				<defs>
					<path id="SVGID_1_" d="M8.8-13.9c0.5-11,21.8-20.9,54.7-25.2l0,0c7.9-1.2,13.3-1.5,22.2-2l0,0c4-0.2,15.6-0.7,15.6-0.7l0,0
						l0.1,2.5c0,0-13.5,0.6-17.5,0.7l0,0c-5.6,0.2-9.6,0.4-16.4,1.4l0,0C31.1-32.7,12-22,11.6-13.7l0,0C11.6-13.7,8.8-13.9,8.8-13.9
						z"/>
				</defs>
				<clipPath id="SVGID_2_">
					<use xlink:href="#SVGID_1_"  style="overflow:visible;"/>
				</clipPath>
				<g id="g14" class="st0">
					<g id="g20">
						<g id="g22">
						</g>
						<defs>
							<filter id="Adobe_OpacityMaskFilter" filterUnits="userSpaceOnUse" x="8.8" y="13.7" width="92.6" height="28.1">
								<feColorMatrix  type="matrix" values="1 0 0 0 0  0 1 0 0 0  0 0 1 0 0  0 0 0 1 0"/>
							</filter>
						</defs>
						<mask maskUnits="userSpaceOnUse" x="8.8" y="13.7" width="92.6" height="28.1" id="mask34">
							<g id="g36" class="st1">
								<g id="g38">
									<g id="g40">
										<g id="g42">
											
												<linearGradient id="path44_1_" gradientUnits="userSpaceOnUse" x1="-1168.5345" y1="-358.5958" x2="1642.5164" y2="-358.5958" gradientTransform="matrix(23.3133 0 0 23.3133 1007.2498 8461.0801)">
												<stop  offset="0" style="stop-color:#FFFFFF"/>
												<stop  offset="1" style="stop-color:#FFFFFF;stop-opacity:0"/>
											</linearGradient>
											<path id="path44" inkscape:connector-curvature="0" class="st2" d="M-26235.2-26113h52428v52428h-52428V-26113z"/>
										</g>
									</g>
								</g>
							</g>
						</mask>
						<g id="g46" class="st3">
							<g id="g48">
								
									<linearGradient id="path56_1_" gradientUnits="userSpaceOnUse" x1="-40.8862" y1="-350.1211" x2="-39.8862" y2="-350.1211" gradientTransform="matrix(29.1417 0 0 -29.1417 1269.4623 -10230.8799)">
									<stop  offset="0" style="stop-color:#E73136"/>
									<stop  offset="1" style="stop-color:#FFFFFF"/>
								</linearGradient>
								<path id="path56" inkscape:connector-curvature="0" class="st4" d="M8.8-13.9c0.5-11,21.8-20.9,54.7-25.2l0,0
									c7.9-1.2,13.3-1.5,22.2-2l0,0c4-0.2,15.6-0.7,15.6-0.7l0,0l0.1,2.5c0,0-13.5,0.6-17.5,0.7l0,0c-5.6,0.2-9.6,0.4-16.4,1.4
									l0,0C31.1-32.7,12-22,11.6-13.7l0,0C11.6-13.7,8.8-13.9,8.8-13.9z"/>
							</g>
						</g>
					</g>
				</g>
			</g>
		</g>
		<g id="g58">
			<g>
				<defs>
					<rect id="SVGID_3_" x="-76.6" y="-212.9" width="558.1" height="348.4"/>
				</defs>
				<clipPath id="SVGID_4_">
					<use xlink:href="#SVGID_3_"  style="overflow:visible;"/>
				</clipPath>
				<g id="g60" class="st5">
					<g id="g66" transform="translate(414.582,189.202)">
						<path id="path68" inkscape:connector-curvature="0" class="st6" d="M-20.8-178.1c-0.5,10.4-20.6,17.8-59.8,22.1
							c-19,2.1-41.3,3.1-66.3,3.1c-21.7,0-44.9-0.8-69-2.4c-41.8-2.7-84.8-8.4-120.9-16c-3-0.6-5.9-1.4-8.6-2.1
							c-1.6-0.4-3.1-0.8-4.7-1.2c-25.7-6.2-56.2-16.2-55.7-28.5l2.8,0.1c-0.4,7.9,19.6,17.6,53.5,25.8c2.6,0.6,5.3,1.1,8.1,1.7
							c1.7,0.3,3.5,0.7,5.3,1.1c31.7,6.7,73.3,11.8,120.4,14.9c21.7,1.4,43.1,2.1,63.7,2.1c26.3,0,50.1-1.1,70.7-3.4
							c39.2-4.3,53.4-12,53.7-17.8L-20.8-178.1z"/>
					</g>
					<g id="g70" transform="translate(179.5476,234.9143)">
						<path id="path72" inkscape:connector-curvature="0" class="st7" d="M-20.8-178.1l-89.9,0l-40.2-161.1h90.6l6.1,25h-60.3
							l11.6,46.2h51.6l6.2,24.8h-51.8l9.9,40h59.6L-20.8-178.1z"/>
					</g>
					<g id="g74" transform="translate(170.5523,274.6475)">
						<path id="path76" inkscape:connector-curvature="0" class="st7" d="M-20.8-178.1L-20.8-178.1c-3.6,0-7.1-1.9-13.5-5.5
							l-0.6-0.3l-31.8-19l-4.4-2.6l5.1-0.5l6.9-0.7l0.3,0l0.3,0.1l36.2,11.2c4.2,1,8.4,2.5,9.6,7c0.5,1.9,0.2,4.2-0.9,6.1
							c-1.1,1.9-2.8,3.3-4.8,3.8C-19.1-178.2-19.9-178.1-20.8-178.1"/>
					</g>
					<g id="g78" transform="translate(176.0702,238.9718)">
						<path id="path80" inkscape:connector-curvature="0" class="st6" d="M-20.8-178.1h-89.9l-40.2-161.1h90.6l6.1,25h-60.3
							l11.6,46.2h51.6l6.2,24.8h-51.8l9.9,40h59.6L-20.8-178.1z"/>
					</g>
					<g id="g82" transform="translate(167.0767,278.7057)">
						<path id="path84" inkscape:connector-curvature="0" class="st6" d="M-20.8-178.1L-20.8-178.1c-3.6,0-7.1-1.9-13.5-5.5
							l-0.5-0.3l-31.8-19l-4.4-2.6l5.1-0.5l6.9-0.7l0.3,0l0.3,0.1l36.2,11.2c4.2,1,8.4,2.5,9.6,7c0.5,1.9,0.2,4.2-0.9,6.1
							c-1.1,1.9-2.8,3.3-4.8,3.8C-19.1-178.2-19.9-178.1-20.8-178.1"/>
					</g>
					<g id="g86" transform="translate(238.5528,136.5875)">
						<path id="path88" inkscape:connector-curvature="0" class="st7" d="M-20.8-178.1c-1.5-0.1-3.1-0.2-4.6-0.4l-9.7-38.9l-0.3-1.3
							h-1.3h-24.2l-1-4.1h30L-20.8-178.1z"/>
					</g>
					<g id="g90" transform="translate(187.1243,232.0875)">
						<path id="path92" inkscape:connector-curvature="0" class="st7" d="M-20.8-178.1l-1-4.1h40.7l1,4.1H-20.8z"/>
					</g>
					<g id="g94" transform="translate(305.4346,253.0678)">
						<path id="path96" inkscape:connector-curvature="0" class="st7" d="M-20.8-178.1l-4.9-19.7l-0.3-1.3h-1.3h-41.1l-20.9-84.1
							c1.5,0.1,3.1,0.3,4.6,0.4l19.8,79.7h42.4l6.2,25H-20.8z"/>
					</g>
					<g id="g98" transform="translate(223.5781,135.3273)">
						<path id="path100" inkscape:connector-curvature="0" class="st6" d="M-20.8-178.1c-3-0.2-8.7-0.6-15.6-1.1
							c-1.5-0.1-3-0.2-4.6-0.3l-9.4-37.9h30l10,40.2C-13.9-177.5-17.3-177.8-20.8-178.1"/>
					</g>
					<g id="g102" transform="translate(188.8611,257.127)">
						<path id="path104" inkscape:connector-curvature="0" class="st6" d="M-20.8-178.1l-6.2-25h45.2l-1-4.1l-20.5-82.4
							c1.6,0.1,3.1,0.2,4.6,0.3c5.2,0.4,9.5,0.7,11.9,0.9c4.7,0.4,9.4,0.8,14.1,1.2l20.9,84.1h42.4l5.2,21l1,4.1H-20.8z"/>
					</g>
					<g id="g106" transform="translate(241.4755,148.3613)">
						<path id="path108" inkscape:connector-curvature="0" class="st8" d="M-20.8-178.1"/>
					</g>
					<g id="g110" transform="translate(380.1014,150.7887)">
						<path id="path112" inkscape:connector-curvature="0" class="st7" d="M-20.8-178.1c0-25.5-19.2-51.3-55.9-51.3
							c-14.9,0-29.2,3.7-41.7,10.8l-0.1-0.5l-0.3-1.2l1-0.6c13.2-8.2,28.6-12.5,44.6-12.5c36.7,0,55.9,25.8,55.9,51.3
							c0,5.9-1,11-2.6,15.5c-0.7-0.2-1.4-0.5-2.1-0.7C-21.2-170.6-20.8-174.2-20.8-178.1"/>
					</g>
					<g id="g114" transform="translate(333.5987,177.444)">
						<path id="path116" inkscape:connector-curvature="0" class="st7" d="M-20.8-178.1c-3.7,3.2-7.6,6.7-11.3,10.7
							c4.5-5.7,9.9-10.5,14.8-14.8c2.1-2,4.2-4,6.2-6.1C-13.9-184.5-17.4-181.3-20.8-178.1"/>
					</g>
					<g id="g118" transform="translate(375.8179,172.5517)">
						<path id="path120" inkscape:connector-curvature="0" class="st7" d="M-20.8-178.1c-2,2.9-4.1,5.5-6.3,7.9
							c2-2.5,3.8-5.1,5.4-8.1C-21.4-178.3-21.1-178.2-20.8-178.1"/>
					</g>
					<g id="g122" transform="translate(402.0217,253.6151)">
						<path id="path124" inkscape:connector-curvature="0" class="st7" d="M-20.8-178.1c-1,0.6-1.9,1.1-2.9,1.6l-5.7-22.9l-0.7-2.8
							l-2.1,2c-11.6,10.9-22.8,12.5-28.5,12.5c-15.3,0-23.6-11.6-23.6-22.4c0-7.8,4.2-14.3,9.5-19.8c-3.5,4.6-6,9.8-6,15.8
							c0,10.9,8.3,22.4,23.6,22.4c5.7,0,16.9-1.6,28.5-12.5l2.1-2l0.7,2.8l5.8,23.5l0.3,1.2L-20.8-178.1z"/>
					</g>
					<g id="g126" transform="translate(398.5462,257.6753)">
						<path id="path128" inkscape:connector-curvature="0" class="st6" d="M-20.8-178.1c-14.8,8.9-28.9,10.7-38.2,10.7
							c-15.5,0-28.8-5.1-38.4-14.9c-8.5-8.7-13.4-20.6-13.4-32.8c0-14.2,6.3-24.4,13.7-32.5c3.7-4,7.6-7.5,11.3-10.7
							c3.4-3.2,6.9-6.4,9.7-10.1c0.8-1,1.5-2,2.1-3.1c0.2,0,0.3,0.1,0.5,0.1c3.3,0.8,6.5,1.5,9.6,2.3c7.1,1.8,13.6,3.7,19.5,5.6
							c-1.6,3-3.4,5.7-5.4,8.1c-2.9,3.6-6,6.7-8.9,9.6l-0.1,0.1l-4.8,4.5c-2.6,2.2-5.2,4.6-7.6,7.1c-5.3,5.6-9.5,12-9.5,19.8
							c0,10.9,8.3,22.4,23.6,22.4c5.7,0,16.9-1.6,28.5-12.5l2.1-2l0.7,2.8l5.7,22.9l0.1,0.6l0.3,1.2L-20.8-178.1z"/>
					</g>
					<g id="g130" transform="translate(378.9138,161.5552)">
						<path id="path132" inkscape:connector-curvature="0" class="st6" d="M-20.8-178.1c-6.1-2-12.9-4-20.5-5.9
							c-2.2-0.6-4.4-1.1-6.7-1.6c-0.8-0.2-1.7-0.4-2.5-0.6c0.1-1.1,0.2-2.1,0.2-3.3c0-13-8.3-26-26.7-26c-12.4,0-24.1,5.3-34.9,15.6
							l-2.1,2l-0.7-2.8l-6.2-25l-0.3-1.2l1-0.7c0.9-0.6,1.9-1.2,2.9-1.7c12.5-7.1,26.9-10.8,41.7-10.8c36.7,0,55.9,25.8,55.9,51.3
							C-19.6-184.9-20.1-181.4-20.8-178.1"/>
					</g>
				</g>
			</g>
		</g>
		<g id="g134">
			<g>
				<defs>
					<path id="SVGID_5_" d="M386.9,10.6c0.2-3.6-10.4-13.1-51.9-23.7l0,0c-35.3-9-82.5-16.1-132.9-20l0,0c-10.9-0.8-57-3.9-68.1-4.4
						l0,0l-0.7,0l-1-8.3l1,0c10.9,0.5,57.6,3.8,69.3,4.7l0,0c35.8,2.8,70.4,7.2,100.3,12.8l0,0c12.3,2.3,23.8,4.8,34.2,7.4l0,0
						c38.8,9.9,57.3,20.3,56.6,31.9l0,0L386.9,10.6L386.9,10.6z"/>
				</defs>
				<clipPath id="SVGID_6_">
					<use xlink:href="#SVGID_5_"  style="overflow:visible;"/>
				</clipPath>
				<g id="g136" class="st9">
					<g id="g142">
						<g id="g144">
						</g>
						<defs>
							<filter id="Adobe_OpacityMaskFilter_1_" filterUnits="userSpaceOnUse" x="132.3" y="-11.1" width="261.5" height="56.9">
								<feColorMatrix  type="matrix" values="1 0 0 0 0  0 1 0 0 0  0 0 1 0 0  0 0 0 1 0"/>
							</filter>
						</defs>
						<mask maskUnits="userSpaceOnUse" x="132.3" y="-11.1" width="261.5" height="56.9" id="mask158">
							<g id="g160" class="st10">
								<g id="g162">
									<g id="g164">
										<g id="g166">
											
												<linearGradient id="path168_1_" gradientUnits="userSpaceOnUse" x1="-41.3759" y1="-356.5993" x2="-40.3759" y2="-356.5993" gradientTransform="matrix(159.5159 -13.7259 13.7259 159.5159 11603.5605 56405.1523)">
												<stop  offset="0" style="stop-color:#FFFFFF;stop-opacity:0"/>
												<stop  offset="0.415" style="stop-color:#FFFFFF"/>
												<stop  offset="1" style="stop-color:#FFFFFF"/>
											</linearGradient>
											<path id="path168" inkscape:connector-curvature="0" class="st11" d="M-26235.2-26113h52428v52428h-52428V-26113z"/>
										</g>
									</g>
								</g>
							</g>
						</mask>
						<g id="g170" class="st12">
							<g id="g172">
								
									<linearGradient id="path182_1_" gradientUnits="userSpaceOnUse" x1="-41.5722" y1="-355.2989" x2="-40.5722" y2="-355.2989" gradientTransform="matrix(199.3949 17.1574 17.1574 -199.3949 14514.8516 -70160.9688)">
									<stop  offset="0" style="stop-color:#FFFFFF"/>
									<stop  offset="0.415" style="stop-color:#E73136"/>
									<stop  offset="1" style="stop-color:#E73136"/>
								</linearGradient>
								<path id="path182" inkscape:connector-curvature="0" class="st13" d="M386.9,10.6c0.2-3.6-10.4-13.1-51.9-23.7l0,0
									c-35.3-9-82.5-16.1-132.9-20l0,0c-10.9-0.8-57-3.9-68.1-4.4l0,0l-0.7,0l-1-8.3l1,0c10.9,0.5,57.6,3.8,69.3,4.7l0,0
									c35.8,2.8,70.4,7.2,100.3,12.8l0,0c12.3,2.3,23.8,4.8,34.2,7.4l0,0c38.8,9.9,57.3,20.3,56.6,31.9l0,0L386.9,10.6L386.9,10.6
									z"/>
							</g>
						</g>
					</g>
				</g>
			</g>
		</g>
		<g id="g184">
			<g>
				<defs>
					<rect id="SVGID_7_" x="-76.6" y="-212.9" width="558.1" height="348.4"/>
				</defs>
				<clipPath id="SVGID_8_">
					<use xlink:href="#SVGID_7_"  style="overflow:visible;"/>
				</clipPath>
				<g id="g186" class="st14">
					<g id="g192" transform="translate(17.9104,9.5892)">
						<path id="path194" inkscape:connector-curvature="0" class="st15" d="M-20.8-178.1h-17.9v31.9h4.1v-28.7h15.7L-20.8-178.1z"/>
					</g>
					<g id="g196" transform="translate(36.2267,23.9718)">
						<path id="path198" inkscape:connector-curvature="0" class="st15" d="M-20.8-178.1c0,1-0.2,2.7-1.4,4
							c-0.7,0.7-1.9,1.4-3.7,1.4c-2.7,0-5-1.8-5.8-5.5H-20.8z M-19.5-192.3c-0.7-0.2-2.4-0.7-4.9-0.7c-6.7,0-11.8,3.8-11.8,11.7
							c0,7,4.3,11.8,10.3,11.8c2.9,0,5.5-1.1,7.2-3.4c1.9-2.6,2-6.2,2-8.1H-32c0-1.4,0-4.3,2-6.5c1.7-1.8,4.1-2.4,6.6-2.4
							c2.7,0,4.9,0.8,6.1,1.3C-17.4-188.6-19.5-192.3-19.5-192.3z"/>
					</g>
					<g id="g200" transform="translate(72.2281,28.6761)">
						<path id="path202" inkscape:connector-curvature="0" class="st15" d="M-20.8-178.1c-1.1,0.4-2.8,0.8-4.5,0.8
							c-4.5,0-7.8-3.1-7.8-8.1c0-5.3,3.1-7.9,7-7.9c2.4,0,4.5,0.9,5.2,1.3V-178.1z M-22.8-195.8c-0.9-0.2-2.1-0.5-3.9-0.5
							c-6.6,0-10.5,4.5-10.5,10.5c0,5.8,3.7,11.6,12,11.6c1.3,0,4.9-0.1,8.3-1.8v-18.3c0-2.5,0-4.6-1.3-6.9
							c-1.9-3.2-5.3-5.2-9.8-5.2c-1.4,0-5,0.2-8.1,2.1v3.9c0.6-0.5,1.2-1,2.6-1.6c1.8-0.8,3.8-1.2,5.6-1.2c3.1,0,5.7,1.2,6.7,4.2
							c0.6,1.7,0.6,3.3,0.6,6.1L-22.8-195.8z"/>
					</g>
					<g id="g204" transform="translate(87.5138,34.8735)">
						<path id="path206" inkscape:connector-curvature="0" class="st15" d="M-20.8-178.1v3l8.5,3.3v-3L-20.8-178.1z M-12.7-189
							c0,1-0.2,2.7-1.4,4c-0.7,0.7-1.9,1.4-3.7,1.4c-2.7,0-5-1.8-5.8-5.5H-12.7z M-11.4-203.2c-0.7-0.2-2.4-0.7-4.9-0.7
							c-6.7,0-11.8,3.8-11.8,11.7c0,7,4.3,11.8,10.3,11.8c2.9,0,5.5-1.1,7.2-3.4c1.9-2.6,2-6.2,2-8.1h-15.4c0-1.4,0-4.3,2-6.5
							c1.7-1.8,4.1-2.4,6.6-2.4c2.7,0,4.9,0.8,6.1,1.3C-9.3-199.5-11.4-203.2-11.4-203.2z"/>
					</g>
					<g id="g208" transform="translate(103.3411,9.5892)">
						<path id="path210" inkscape:connector-curvature="0" class="st15" d="M-20.8-178.1v22.3h3.8v-3.6l2.4,3.4
							c2,0.7,4.1,0.8,4.8,0.8c1.2,0,3.6-0.2,5.6-1.9c2.3-1.9,2.3-4.3,2.3-6.4v-14.7h-3.9v13.1c0,3.8-0.7,6.6-5.2,6.6
							c-1.8,0-4-0.6-5.9-1.9l0-17.9H-20.8z"/>
					</g>
					<path id="path212" inkscape:connector-curvature="0" class="st15" d="M110.9-168.5h-3.8v22.3h3.8
						C110.9-146.2,110.9-168.5,110.9-168.5z M111.1-138.2c0-1.3-1-2.2-2.2-2.2c-1.2,0-2.2,1-2.2,2.2c0,1.2,0.9,2.2,2.2,2.2
						C110.1-136,111.1-137,111.1-138.2"/>
					<g id="g214" transform="translate(151.1917,23.9718)">
						<path id="path216" inkscape:connector-curvature="0" class="st15" d="M-20.8-178.1c0,1-0.2,2.7-1.4,4
							c-0.7,0.7-1.9,1.4-3.7,1.4c-2.7,0-5-1.8-5.8-5.5H-20.8z M-19.5-192.3c-0.7-0.2-2.4-0.7-4.9-0.7c-6.7,0-11.8,3.8-11.8,11.7
							c0,7,4.3,11.8,10.3,11.8c2.9,0,5.5-1.1,7.2-3.4c1.9-2.6,2-6.2,2-8.1H-32c0-1.4,0-4.3,2-6.5c1.7-1.8,4.1-2.4,6.6-2.4
							c2.7,0,4.9,0.8,6.1,1.3C-17.4-188.6-19.5-192.3-19.5-192.3z"/>
					</g>
					<g id="g218" transform="translate(175.9752,13.6139)">
						<path id="path220" inkscape:connector-curvature="0" class="st15" d="M-20.8-178.1c0.6-0.4,2.3-1.4,5-1.4
							c5.1,0,7.4,4.1,7.4,8.9c0,2.8-0.8,4.7-1.7,5.8c-1.4,1.7-3.3,2.5-5.5,2.5c-2.3,0-4.2-0.8-5.1-1.3L-20.8-178.1z M-18.7-159.8
							c0.7,0.2,1.9,0.6,3.7,0.6c6.6,0,10.7-4.4,10.7-11.3c0-7-4.2-12.2-10.9-12.2c-2.7,0-4.3,0.7-5.5,1.3v-10.4h-3.8v32h3.8v-3.2
							C-20.8-162.9-18.7-159.8-18.7-159.8z"/>
					</g>
					<g id="g222" transform="translate(211.932,20.8072)">
						<path id="path224" inkscape:connector-curvature="0" class="st15" d="M-20.8-178.1c0,4-1.6,8.6-6.2,8.6
							c-3.8,0-6.3-3.3-6.3-8.8c0-1.7,0.2-4.2,1.5-6c1.2-1.8,3-2.6,4.7-2.6C-22.7-186.8-20.8-182.2-20.8-178.1 M-27.2-189.9
							c-6.3,0-10.3,4.3-10.3,11.4c0,6.8,4,12.1,10.6,12.1c6.1,0,10.1-4.6,10.1-11.6S-20.7-189.9-27.2-189.9"/>
					</g>
					<g id="g226" transform="translate(239.1131,9.5892)">
						<path id="path228" inkscape:connector-curvature="0" class="st15" d="M-20.8-178.1h-3.8v3.6l-2.4-3.4c-2-0.7-4.3-0.8-4.8-0.8
							c-5.9,0-7.9,3.6-7.9,8.1v14.9h3.9v-13.5c0-3.5,0.7-6.3,5.2-6.3c1.8,0,4.1,0.6,5.9,1.9v17.9h3.8V-178.1z"/>
					</g>
					<g id="g230" transform="translate(248.6538,9.5892)">
						<path id="path232" inkscape:connector-curvature="0" class="st15" d="M-20.8-178.1h-3.9v22.3h3.9v-3.3l2.1,3
							c0.5,0.2,1.9,0.8,4,0.8c1.2,0,1.8-0.2,2.5-0.5v-3.6c-0.9,0.4-1.9,0.9-3.5,0.9c-2.2,0-4-1-5-1.8V-178.1z"/>
					</g>
					<path id="path234" inkscape:connector-curvature="0" class="st15" d="M256-168.5h-3.8v31.9h3.8C256-136.6,256-168.5,256-168.5z
						"/>
					<g id="g236" transform="translate(282.9817,33.1551)">
						<path id="path238" inkscape:connector-curvature="0" class="st15" d="M-20.8-178.1h-2.6l3.3,8.4h3.7L-20.8-178.1z"/>
					</g>
					<path id="path240" inkscape:connector-curvature="0" class="st15" d="M274.8-168.5H271v22.3h3.8
						C274.8-146.2,274.8-168.5,274.8-168.5z M275.1-138.2c0-1.3-1-2.2-2.2-2.2c-1.2,0-2.2,1-2.2,2.2c0,1.2,0.9,2.2,2.2,2.2
						C274.1-136,275.1-137,275.1-138.2"/>
					<g id="g242" transform="translate(301.2068,9.5892)">
						<path id="path244" inkscape:connector-curvature="0" class="st15" d="M-20.8-178.1v22.3h3.8v-3.6l2.4,3.4
							c2,0.7,4.1,0.8,4.8,0.8c1.2,0,3.6-0.2,5.6-1.9c2.3-1.9,2.3-4.3,2.3-6.4v-14.7h-3.9v13.1c0,3.8-0.7,6.6-5.2,6.6
							c-1.8,0-4-0.6-5.9-1.9v-17.9H-20.8z"/>
					</g>
					<g id="g246" transform="translate(340.7808,27.9073)">
						<path id="path248" inkscape:connector-curvature="0" class="st15" d="M-20.8-178.1c-1.5,0.9-3.3,1.4-5.1,1.4
							c-0.8,0-2.6-0.1-4.3-1.5c-2.2-1.8-3-4.7-3-7.6c0-5.1,2.9-8.1,7.2-8.1c2.4,0,4.3,0.8,5.2,1.2L-20.8-178.1z M-17-196.4h-3.8v3.1
							l-2.1-3.1c-0.9-0.3-1.8-0.5-3.5-0.5c-7.3,0-10.9,4.8-10.9,11.3c0,6.3,3.8,12.1,10.8,12.1c1.1,0,3.5-0.2,5.7-1.4v10.4h3.8
							C-17-164.5-17-196.4-17-196.4z"/>
					</g>
					<g id="g250" transform="translate(369.1367,9.5892)">
						<path id="path252" inkscape:connector-curvature="0" class="st15" d="M-20.8-178.1h-3.8v3.6l-2.4-3.4c-2-0.7-4.3-0.8-4.8-0.8
							c-5.9,0-7.9,3.6-7.9,8.1v14.9h3.9v-13.5c0-3.5,0.7-6.3,5.2-6.3c1.8,0,4.1,0.6,5.9,1.9v17.9h3.8V-178.1z"/>
					</g>
					<g id="g254" transform="translate(382.7487,22.073)">
						<path id="path256" inkscape:connector-curvature="0" class="st15" d="M-20.8-178.1c2.1-1,4.8-2.3,4.8-6.2
							c0-3.7-2.9-6.9-7.8-6.9c-2.1,0-4.2,0.6-6.1,1.4v3.6c0.5-0.4,1.1-0.7,2.2-1.2c1-0.4,2.3-0.8,3.5-0.8c2.9,0,4.2,2,4.2,3.6
							c0,2.4-2,3.2-3.5,3.8l-1.5,0.5c-1.6,0.7-4.7,1.9-4.7,5.9c0,3.8,3.2,6.6,7.6,6.6c2.6,0,4.5-0.9,5.2-1.3v-3.4
							c-1.3,1.1-2.9,1.8-4.6,1.8c-3,0-4.1-1.8-4.1-3.4c0-1.9,1.6-2.6,2.9-3.2L-20.8-178.1z"/>
					</g>
					<g id="g258" transform="translate(399.3932,9.3173)">
						<path id="path260" inkscape:connector-curvature="0" class="st15" d="M-20.8-178.1c-0.6-0.1-1.3-0.3-2-0.3
							c-1.5,0-3.1,0.5-4.1,1.7c-1.1,1.3-1.1,2.6-1.1,5v13.4h-2.6l2.1,2.8h0.5v4.3l3.9,1.2v-5.6h4.6v-2.8h-4.6v-11.6
							c0-2.4,0-2.7,0.1-3.2c0.4-2.1,2-2.3,2.8-2.3c0.5,0,1.4,0.1,2.7,0.6L-20.8-178.1z"/>
					</g>
					<g id="g262" transform="translate(407.8952,9.5892)">
						<path id="path264" inkscape:connector-curvature="0" class="st15" d="M-20.8-178.1h-3.9v22.3h3.9v-3.3l2.1,3
							c0.5,0.2,1.9,0.8,4,0.8c1.2,0,1.8-0.2,2.5-0.5v-3.6c-0.9,0.4-1.9,0.9-3.5,0.9c-2.2,0-4-1-5-1.8V-178.1z"/>
					</g>
					<path id="path266" inkscape:connector-curvature="0" class="st15" d="M402.1-168.5h-3.8v22.3h3.8
						C402.1-146.2,402.1-168.5,402.1-168.5z M402.3-138.2c0-1.3-1-2.2-2.2-2.2c-1.2,0-2.2,1-2.2,2.2c0,1.2,0.9,2.2,2.2,2.2
						C401.3-136,402.3-137,402.3-138.2"/>
					<g id="g268" transform="translate(442.359,23.9718)">
						<path id="path270" inkscape:connector-curvature="0" class="st15" d="M-20.8-178.1c0,1-0.2,2.7-1.4,4
							c-0.7,0.7-1.9,1.4-3.7,1.4c-2.7,0-5-1.8-5.8-5.5H-20.8z M-19.5-192.3c-0.7-0.2-2.4-0.7-4.9-0.7c-6.7,0-11.8,3.8-11.8,11.7
							c0,7,4.3,11.8,10.3,11.8c2.9,0,5.5-1.1,7.2-3.4c1.9-2.6,2-6.2,2-8.1H-32c0-1.4,0-4.3,2-6.5c1.7-1.8,4.1-2.4,6.6-2.4
							c2.7,0,4.9,0.8,6.1,1.3C-17.4-188.6-19.5-192.3-19.5-192.3z"/>
					</g>
				</g>
			</g>
		</g>
	</g>
</g>
</svg>
