<svg version="1.2" xmlns="http://www.w3.org/2000/svg" viewBox="0 0 9901 1673" width="2000" height="338">
	<title>tmp_cfb847b6-3748-4132-8f6e-b757d6832cdb</title>
	<style>
		.s0 { fill: #da291c } 
	</style>
	<path id="Path 0" fill-rule="evenodd" class="s0" d="m703 222h669v1262h-669v-197h-526v-868h526zm1 395h-329v471l328.5 0.5 0.5 197.5h451v-866h-451zm3670.5-203.5c233.2 0.1 256.5 0.3 272 1.8 9.4 1 24.9 2.9 34.5 4.3 9.6 1.4 24.7 4 33.5 5.9 8.8 1.8 21.9 5 29 7 7.1 2 19.1 5.9 26.5 8.7 7.4 2.7 19.4 7.8 26.5 11.3 7.1 3.5 17.1 8.9 22 12 4.9 3.1 13.3 8.9 18.5 12.8 5.2 4 13.7 11.5 19 16.7 5.2 5.2 13.1 14.3 17.5 20.2 4.4 5.8 10.6 15.3 13.7 21 3.2 5.7 7.8 15.3 10.2 21.3 2.5 6 5.6 15 7.1 20 1.4 5 3.7 14.4 5 21 1.3 6.6 2.9 15.8 3.5 20.5 0.6 4.7 1.4 15.7 1.8 24.4 0.7 15.6 0.7 15.9-1.3 15.3-1.1-0.4-9.4-2.6-18.5-5.1-9.1-2.4-29.6-7.8-45.5-11.9-15.9-4.2-42.3-10.8-58.5-14.7-16.2-3.9-42.3-10-58-13.5-15.7-3.5-38.9-8.4-51.5-10.9-12.6-2.5-31.1-5.9-41-7.5-9.9-1.7-25-4-49-7.5l-210-0.3c-185.9-0.3-211.4-0.2-222 1.2-6.6 0.9-15.6 2.5-20 3.6-4.4 1.1-12.6 4.2-18.3 7-8.1 3.9-11.6 6.3-17 11.7-4.2 4.2-8.1 9.3-10.4 13.7-2 3.9-4.6 10.1-5.7 14-1.2 3.9-2.6 11.7-3.2 17.5-0.8 7.6-0.8 13.6 0 21.5 0.6 6 1.8 13.7 2.6 17 0.9 3.3 3 8.9 4.8 12.4 1.8 3.5 5.5 8.7 8.2 11.5 2.8 2.8 8.2 6.7 12 8.8 3.9 2 10.1 4.6 14 5.7 3.9 1.2 11.1 2.8 16 3.6 4.9 0.8 16.4 1.9 25.5 2.5 9.1 0.6 115.1 4.6 235.5 9 120.4 4.4 227.3 8.4 237.5 9 10.2 0.6 26.8 1.7 37 2.6 10.2 0.8 25.3 2.4 33.5 3.4 8.3 1.1 21.3 3.1 29 4.5 7.7 1.4 19.4 3.9 26 5.6 6.6 1.6 16.7 4.6 22.5 6.6 5.8 1.9 15 5.5 20.5 8 5.5 2.4 13.8 6.7 18.5 9.5 4.7 2.8 11.9 7.6 16 10.7 4.1 3.1 11.3 9.5 16 14.2 4.7 4.7 11.5 12.8 15.3 18 3.7 5.2 9.6 15.2 13.2 22.4 3.5 7.2 7.9 16.8 9.6 21.5 1.7 4.7 4.8 15.4 7 23.8 2.1 8.3 5 23 6.3 32.5 1.4 9.4 3 23.5 3.5 31.2 0.6 7.7 1.1 27.6 1.1 44.3 0 16.6-0.5 35.9-1.1 43-0.5 7-1.8 18.5-2.9 25.7-1 7.2-3 18.4-4.5 25-1.5 6.6-4.7 18.3-7.3 26-2.6 8-7.7 20.3-11.9 28.5-4 8-10.3 18.8-14 24-3.8 5.2-11.7 14.5-17.8 20.6-6.1 6.1-14.8 13.9-19.5 17.4-4.7 3.4-12.8 8.8-18 11.8-5.2 3.1-14.7 8-21 10.8-6.3 2.9-16.9 7-23.5 9.2-6.6 2.2-17.4 5.4-24 7.1-6.6 1.6-18.3 4.2-26 5.6-7.7 1.4-21 3.4-29.5 4.5-8.5 1-22.9 2.5-32 3.2-13.1 1-72.6 1.3-288.5 1.3-212.6 0-275.4-0.3-287.5-1.3-8.5-0.7-21.6-1.9-29-2.8-7.4-0.8-20.5-2.6-29-4-8.5-1.4-23.1-4.5-32.5-6.9-9.4-2.3-22.6-6.3-29.5-8.8-6.9-2.5-16.6-6.4-21.5-8.7-4.9-2.3-13.1-6.5-18-9.5-4.9-2.9-12.8-8.1-17.5-11.5-4.7-3.5-12-9.7-16.4-13.9-4.3-4.2-10.4-10.8-13.5-14.6-3.2-3.8-7.6-9.7-9.8-13-2.2-3.3-6.1-9.8-8.6-14.5-2.5-4.7-6.4-13.1-8.6-18.7-2.3-5.7-5.4-14.9-7-20.5-1.6-5.7-3.8-15-5-20.8-1.2-5.8-2.8-15.7-3.6-22-0.8-6.3-2-20.7-2.5-32-0.6-11.3-0.9-21-0.6-21.5 0.2-0.6 6.3 0.5 15.3 2.8 8.1 2 36.2 9.1 62.3 15.7 26.1 6.5 60.1 14.9 75.5 18.5 15.4 3.7 39.9 9.3 54.5 12.5 14.6 3.2 38 8.1 52 10.9 14 2.7 33.4 6.2 60.5 10.5l192 0.4c122.2 0.2 200.5-0.1 215.5-0.7 12.9-0.6 27.3-1.5 32-2.1 4.7-0.6 13.2-2 19-3.1 5.8-1.2 13.9-3.3 18-4.6 4.1-1.4 10.4-4 14-5.8 3.6-1.8 9.3-5.4 12.8-7.9 3.4-2.5 8.1-7 10.3-9.8 2.3-2.9 5.4-7.8 6.9-10.8 1.5-3 3.7-8.4 4.8-12 1.1-3.6 2.6-11.2 3.2-17 0.8-6.5 1-14.7 0.6-21.5-0.4-6-1.4-14.4-2.2-18.5-0.9-4.1-2.9-10.7-4.5-14.5-1.6-3.8-5.1-9.9-7.7-13.5-2.6-3.6-7.7-8.7-11.3-11.4-3.5-2.6-10-6.6-14.4-8.8-4.4-2.2-11.8-5.3-16.5-6.8-4.7-1.5-12.9-3.7-18.2-4.9-5.4-1.2-14-2.8-19-3.6-5.1-0.8-16.7-2.1-25.8-3-9.1-0.8-104-4.9-211-9-107-4.1-207.6-8.2-223.5-9-15.9-0.9-37.8-2.2-48.5-3.1-10.7-0.8-28.9-2.6-40.5-3.9-11.6-1.4-27.7-3.7-36-5.1-8.2-1.4-22.2-4.4-31-6.6-8.8-2.2-20.5-5.6-26-7.5-5.5-2-14.5-5.7-20-8.3-5.5-2.6-13.2-6.6-17-9-3.8-2.3-10.6-7.1-15-10.5-4.4-3.4-10.5-8.9-13.6-12.1-3-3.3-8.2-9.5-11.5-13.9-3.3-4.4-8.2-12.5-11.1-18-2.8-5.5-6.5-13.4-8.1-17.5-1.6-4.1-4.4-12.5-6.1-18.5-1.7-6-4-15.7-5.1-21.5-1.1-5.8-2.6-15.7-3.4-22-0.8-6.3-2-20-2.7-30.5-0.7-11.6-0.9-29-0.6-44.5 0.3-14 1.3-31.6 2.2-39 0.9-7.4 2.9-20.1 4.5-28.2 1.7-8.2 5-21 7.5-28.5 2.5-7.6 7.2-19.2 10.4-25.8 3.3-6.6 8.5-15.8 11.6-20.5 3.2-4.7 8.9-12.3 12.9-16.9 3.9-4.7 11.2-12 16.1-16.4 4.9-4.3 13.9-11.2 20-15.2 6.1-4.1 17.5-10.5 25.5-14.4 8-3.8 21.3-9.3 29.5-12.1 8.3-2.8 21.3-6.6 29-8.5 7.7-1.9 19.2-4.3 25.5-5.5 6.3-1.1 18-2.9 26-4 8-1 23.1-2.6 33.5-3.4 10.4-0.9 21.9-1.7 25.5-1.9 3.6-0.2 121.3-0.3 261.5-0.2zm-2221.5 3c84.6 0.2 158.8 0.8 171 1.4 11.8 0.6 29.6 1.5 39.5 2.1 9.9 0.6 25.7 1.8 35 2.6 9.3 0.8 24.7 2.4 34 3.5 9.3 1.1 24 3.1 32.5 4.5 8.5 1.3 20.2 3.4 26 4.5 5.8 1.1 17 3.6 25 5.6 8 1.9 20.8 5.5 28.5 8 7.7 2.5 18.5 6.3 24 8.5 5.5 2.2 15.4 6.7 22 10 6.6 3.3 16.9 9.3 23 13.3 6.1 4 14.4 10.2 18.5 13.7 4.1 3.5 10.8 10 14.8 14.4 4 4.3 10.1 11.9 13.7 16.9 3.5 5 8.8 13.7 11.8 19.5 3 5.8 7.1 14.8 9 20 2 5.2 4.7 13.5 6.2 18.5 1.4 5 3.7 14.4 5 21 1.3 6.6 3.1 18.1 4 25.5 0.9 7.4 2 23.4 2.5 35.5 0.4 12.1 0.7 22.1 0.7 22.3-0.1 0.1-8.3-2-18.2-4.8-9.9-2.8-28.1-7.7-40.5-11-12.4-3.2-32.8-8.4-45.5-11.4-12.7-3-33.3-7.8-46-10.6-12.7-2.8-34-7.3-47.5-10-13.5-2.7-33.6-6.5-44.8-8.4-11.1-2-30.2-5.1-42.5-7-12.2-1.9-33.2-4.9-46.7-6.5-13.5-1.7-31.5-3.8-40-4.6-8.5-0.8-24.7-2.2-36-3.1-16.9-1.4-41.5-1.8-139.5-2.1-77.5-0.3-128.8-0.1-147 0.6-15.4 0.6-34.5 1.8-42.5 2.6-8 0.8-20.1 2.4-27 3.6-6.9 1.1-17.9 3.6-24.5 5.5-6.6 1.9-16.5 5.6-22 8.2-5.5 2.7-12.3 6.3-15 8.2-2.7 1.8-7.4 5.4-10.4 7.9-3 2.5-8.2 8-11.4 12.1-3.3 4.1-7.4 10.2-9.3 13.5-1.8 3.3-4.9 9.8-6.8 14.5-1.9 4.7-4.8 13.7-6.5 20-1.6 6.3-3.7 15.5-4.5 20.5-0.9 5-2.2 15.1-3.1 22.5-0.8 7.4-1.9 24.8-2.5 38.5-0.5 13.8-1 48.6-1 77.5 0 28.9 0.5 62.6 1 75 0.5 12.4 1.4 26.8 2 32 0.6 5.2 1.8 13.8 2.6 19 0.9 5.2 2.4 12.7 3.4 16.5 1 3.8 3.3 11 5.1 16 1.9 5 5.4 12.6 7.9 16.9 2.6 4.6 7.9 11.5 12.5 16.4 4.4 4.6 10.9 10.3 14.5 12.7 3.6 2.3 9.9 6 14 8 4.1 2.1 12.2 5.3 18 7.2 5.8 1.9 17 4.7 25 6.3 8 1.6 20.6 3.6 28 4.4 7.4 0.9 22.3 2 33 2.7 13.4 0.7 67.5 0.9 172.5 0.6 104.1-0.3 157.6-0.8 167.5-1.6 8-0.6 22.8-2 33-3.2 10.2-1.1 23.9-3.1 30.5-4.4 6.6-1.3 16.1-3.6 21-5 4.9-1.4 14.1-5 20.3-8 9.5-4.7 12.4-6.7 19.1-13.2 6.1-6.1 8.7-9.6 12-16.3 2.5-5 5-12.4 6.3-18 1.9-8.6 2.1-13.5 2.9-94.5l-206-83c-122.3-49.3-206.3-83.6-206.7-84.5-0.5-1.3 5.2-1.4 48.8-0.8 27.1 0.5 59.4 1.2 71.8 1.8 12.4 0.5 34 1.7 48 2.5 14 0.9 36.1 2.5 49 3.6 12.9 1 32.5 2.8 43.5 3.9 11 1.1 32.8 3.6 48.5 5.6 15.7 1.9 37.7 4.8 49 6.5 11.3 1.6 32.7 5 47.5 7.5 14.8 2.5 37.6 6.5 50.5 9 12.9 2.5 36.8 7.4 53 11 16.2 3.6 39.4 9 51.5 12 12.1 3.1 33.5 8.9 47.5 12.9 14 4 27.2 8 33 10.5l-0.1 16.3c0 8.9-0.4 42.7-0.9 75.2-0.5 32.5-1.4 64.2-1.9 70.5-0.6 6.3-1.8 17.8-2.6 25.5-0.9 7.7-2.5 19.2-3.6 25.5-1.1 6.3-3.1 16.7-4.5 23-1.4 6.3-4.1 16.7-5.9 23-1.9 6.3-5.5 16.7-8 23-2.6 6.3-6.8 15.8-9.5 21-2.7 5.2-7.6 13.5-10.9 18.5-3.2 5-9.5 13.3-13.8 18.5-4.4 5.2-12.2 13.3-17.4 17.8-5.2 4.6-14.8 12-21.4 16.4-6.6 4.4-18.8 11.3-27 15.3-8.3 4.1-20.6 9.4-27.5 11.8-6.9 2.5-19.3 6.4-27.5 8.6-8.3 2.3-22.7 5.7-32 7.6-9.3 1.9-24.9 4.5-34.5 5.9-9.6 1.4-26.7 3.4-38 4.5-11.3 1.1-27.7 2.5-36.5 3.1-8.8 0.5-26.6 1.4-39.5 2-13.4 0.6-97.7 1-196.3 1-103.3 0-181.6-0.4-194.9-1-12.3-0.6-33-1.9-46-3-13.1-1.1-32-3.1-42-4.5-10.1-1.3-24.6-3.6-32.3-5-7.7-1.4-20.3-4.1-28-6-7.7-1.8-19.8-5.2-27-7.5-7.2-2.3-17.4-6-22.7-8.1-5.4-2.2-14.9-6.4-21-9.5-6.2-3.1-15.1-8-19.8-10.9-4.7-2.9-12.8-8.6-18-12.6-5.2-4.1-13.5-11.5-18.5-16.4-5-5-12.4-13.6-16.6-19-4.1-5.5-10-14.3-13.1-19.5-3.1-5.2-7.7-14-10.3-19.5-2.6-5.5-6.7-15.6-9.2-22.5-2.5-6.9-6.2-19.2-8.3-27.5-2.1-8.2-4.9-21.3-6.3-29-1.4-7.7-3.5-22.3-4.6-32.5-1.2-10.2-2.6-25-3.2-33-0.6-8.2-1.3-54.1-1.6-105.5-0.3-57.9-0.1-104.1 0.6-127 0.6-19.8 1.8-44.3 2.6-54.5 0.8-10.2 2.4-25.9 3.6-35 1.1-9.1 3.1-22.6 4.5-30 1.3-7.4 4-20 6-28 2-8 5.4-19.8 7.5-26.2 2.1-6.5 6.4-17.5 9.4-24.5 3-7.1 8.2-17.5 11.5-23.3 3.3-5.8 9.7-15.5 14.2-21.5 4.5-6 12.9-15.8 18.7-21.6 5.8-5.8 14.2-13.2 18.6-16.6 4.4-3.3 11.6-8.4 16-11.2 4.4-2.9 13.6-8.1 20.5-11.6 6.9-3.5 17-8.1 22.5-10.3 5.5-2.2 15.6-5.8 22.5-8 6.9-2.2 17.9-5.4 24.5-7.1 6.6-1.6 19-4.3 27.5-6 8.5-1.7 23.8-4.1 34-5.5 10.2-1.4 25.9-3.2 35-4 9.1-0.8 24.4-2 34-2.7 9.6-0.6 29.9-1.5 45-1.9 15.1-0.4 94.8-0.6 177-0.5zm1102 137.7c77.4-0.1 144.9 0.2 157.5 0.8 12.1 0.6 28.1 1.5 35.5 2 7.4 0.6 21.8 1.9 32 3 10.2 1.1 25.5 3.1 34 4.5 8.5 1.4 21.6 3.9 29 5.5 7.4 1.7 19.5 4.8 26.8 7 7.2 2.2 17.4 5.6 22.5 7.6 5 2 14.4 6.2 20.7 9.3 6.3 3.1 16 8.6 21.5 12.3 5.5 3.7 13.6 9.7 18 13.5 4.4 3.8 11.5 10.9 15.9 15.8 4.3 5 10.5 13 13.8 18 3.3 5 8.6 14.2 11.8 20.5 3.2 6.3 7.8 17.1 10.3 24 2.5 6.9 6.3 19.9 8.6 29 2.2 9.1 4.9 22.1 6 29 1.2 6.9 2.7 18.4 3.5 25.5 0.8 7.1 2.1 20.2 2.8 29 1 11.7 1.3 42.7 1.3 116.5 0 73.5-0.3 104.5-1.3 115.5-0.7 8.3-2 20.8-2.8 28-0.8 7.2-2.4 18.4-3.5 25-1.1 6.6-3.4 17.6-5 24.5-1.7 6.9-4.6 17.2-6.6 23-1.9 5.8-6.4 16.6-9.9 24-3.6 7.4-9.3 17.5-12.7 22.5-3.4 5-10.5 13.4-15.7 18.9-5.2 5.4-12.9 12.4-17 15.6-4.1 3.1-11.6 8.1-16.5 11.1-4.9 2.9-13.7 7.5-19.5 10-5.8 2.6-15.4 6.4-21.5 8.4-6.1 2-17.1 5.2-24.5 7-7.4 1.9-20 4.6-28 6-8 1.3-21.5 3.4-30 4.4-8.5 1.1-24.3 2.7-35 3.5-10.7 0.9-28.1 2.1-38.5 2.7-11.2 0.7-74.4 1.3-154.5 1.6-92 0.3-145.9 0.1-168-0.6-17.9-0.7-41.1-1.9-51.5-2.7-10.4-0.8-25.1-2.1-32.5-3-7.4-0.8-21.2-2.8-30.5-4.4-9.3-1.5-22.8-4.3-30-6-7.2-1.8-18.8-5.1-26-7.5-7.2-2.3-17.7-6.4-23.5-8.9-5.8-2.6-14.6-7.1-19.5-10-4.9-3-12.6-8-17-11.4-4.4-3.3-12.7-10.9-18.5-16.8-5.8-6-13.4-15.2-16.9-20.4-3.5-5.2-9-14.9-12.2-21.5-3.2-6.6-7.7-17.4-9.9-24-2.3-6.6-5.2-16.3-6.5-21.5-1.3-5.2-3.3-14.2-4.4-20-1.1-5.8-2.9-17.2-4-25.5-1.1-8.2-2.5-22-3.3-30.5-1-11.6-1.3-41.4-1.3-118 0-75.4 0.3-106.7 1.3-118.5 0.7-8.8 2-21.9 2.8-29 0.8-7.1 2.5-19.7 3.9-28 1.4-8.2 4-21.3 5.9-29 1.9-7.7 5.3-19.4 7.6-26 2.3-6.6 6.6-17.2 9.6-23.5 3-6.3 8.9-16.7 13.1-23 5.7-8.5 11.1-14.9 20.7-24.6 9.4-9.4 16.2-15.1 24.1-20.3 6.1-4.1 15.5-9.6 21-12.4 5.5-2.7 14.5-6.7 20-8.9 5.5-2.1 16.1-5.7 23.5-7.9 7.4-2.2 21.2-5.5 30.5-7.4 9.3-1.9 25.3-4.6 35.5-5.9 10.2-1.4 27.1-3.2 37.5-4.1 10.4-0.9 26.9-1.9 36.5-2.4 9.6-0.4 78.5-0.9 153-0.9zm-145.5 167.3c-7.7 0.9-18.3 2.5-23.5 3.5-5.2 1.1-13.6 3.1-18.5 4.5-4.9 1.5-12.8 4.4-17.5 6.6-4.7 2.2-11.2 6-14.5 8.3-3.3 2.4-8.6 7.2-11.9 10.7-3.2 3.5-7.5 9.3-9.6 12.9-2 3.6-4.9 9.4-6.3 13-1.4 3.6-3.5 10.1-4.6 14.5-1.1 4.4-2.7 11.8-3.5 16.5-0.8 4.7-2 14.1-2.8 21-1 9.3-1.3 32.9-1.3 91.5 0 70.6 0.2 80.5 1.8 93.5 1 8 3.2 19.7 4.7 26 1.9 7.2 4.8 15.2 7.9 21.5 3.6 7.3 6.8 12 11.8 17.4 3.7 4 10 9.4 13.8 11.9 3.8 2.6 10.6 6.1 15 8 4.4 1.8 12.9 4.6 19 6.2 6.1 1.6 17.3 3.8 25 4.9 7.7 1.1 20.8 2.6 29 3.3 11.2 1 46.4 1.3 140.5 1.3 93.2 0 129.7-0.3 142-1.3 9.1-0.7 21.9-2 28.5-2.8 6.6-0.8 16.5-2.4 22-3.5 5.5-1.1 14.1-3.4 19-5 4.9-1.7 12.8-5 17.5-7.4 4.7-2.4 11-6.5 14-9.1 3-2.6 7.7-7.4 10.4-10.8 2.7-3.4 6.3-9 8.1-12.6 1.8-3.6 4.4-10.1 5.9-14.5 1.5-4.4 3.5-12.7 4.6-18.5 1.1-5.8 2.5-15 3.1-20.5 0.7-6.2 1.3-36.3 1.6-78.5 0.3-44.5 0.1-75-0.7-87-0.6-10.2-1.8-23.5-2.6-29.5-0.8-6-2.6-15.4-4-20.7-1.3-5.4-3.5-12.6-4.9-16-1.4-3.5-4.2-9.2-6.2-12.8-2.2-4-7-9.8-12.2-15-4.7-4.7-11.5-10.2-15.1-12.3-3.6-2-10.1-5.1-14.5-6.8-4.4-1.7-12.9-4.4-19-5.9-6.1-1.6-15.7-3.5-21.5-4.4-5.8-0.8-15.2-2-21-2.5-5.8-0.6-19.1-1.5-29.5-2.1-10.9-0.6-65.7-0.9-128.5-0.8-60.2 0-115.8 0.5-123.5 0.9-7.7 0.5-20.3 1.6-28 2.4zm3300-165c104.1 0.2 159.8 0.6 172 1.4 9.9 0.6 26.1 1.8 36 2.6 9.9 0.9 25.2 2.5 34 3.6 8.8 1.1 21.2 2.9 27.5 4 6.3 1.1 16.2 3.1 22 4.4 5.8 1.3 15.4 3.7 21.5 5.5 6.1 1.8 16.2 5.2 22.5 7.7 6.3 2.5 14.9 6.2 19 8.3 4.1 2.1 12.4 7.1 18.5 11.1 7 4.7 14.6 11 21 17.4 6.1 6 12.7 13.9 16.7 20 3.7 5.5 8.7 14.3 11.2 19.5 2.5 5.2 6.3 15 8.6 21.8 2.2 6.7 5.1 17.7 6.5 24.5 1.3 6.7 3.1 17.4 3.9 23.7 0.9 6.3 2 17.6 2.6 25 0.5 7.4 1 20.6 1 45h-191l-0.5-2.2c-0.3-1.3-0.5-4.7-0.5-7.5 0-2.9-0.6-8.6-1.4-12.5-0.8-4-2.3-9.8-3.5-12.8-1.1-3-4-8.3-6.5-11.7-2.5-3.5-7.4-8.4-10.8-10.9-3.5-2.6-9.4-6.2-13.3-7.9-3.9-1.8-11.5-4.7-17-6.4-5.5-1.6-14.5-3.9-20-5-5.5-1.1-18.1-2.9-28-4-9.9-1.1-28.4-2.5-41-3.2-15.4-0.7-62.7-0.9-143-0.6-79.5 0.3-123.7 0.8-131 1.5-6.1 0.7-15.9 1.9-22 2.8-6.1 0.8-15.1 2.6-20 3.9-4.9 1.2-12.6 3.7-17 5.5-4.4 1.7-10.9 5.1-14.5 7.5-3.6 2.3-9.3 7.3-12.8 11.1-3.5 3.8-8 10.3-10.1 14.4-2.1 4.1-5.1 11.1-6.5 15.5-1.5 4.4-3.5 12.7-4.6 18.5-1.1 5.8-2.4 14.3-3 19-0.5 4.7-1.4 17.7-2 29-0.5 11.3-1 45-1 75 0 30 0.5 63.5 1 74.5 0.6 11 1.9 26.1 3 33.5 1.1 7.4 2.9 16.9 4.1 21 1.1 4.1 3.2 10.4 4.6 14 1.5 3.6 4.1 9 5.8 12 1.8 3 5.9 8.4 9.1 11.9 3.3 3.5 8.8 8.3 12.4 10.6 3.6 2.4 9.9 5.8 14 7.6 4.1 1.7 12.4 4.4 18.5 5.9 6.1 1.6 15.7 3.5 21.5 4.3 5.8 0.9 17 2.2 25 2.9 11.1 1 45.9 1.3 148 1.3 99.9 0 137.9-0.3 151-1.3 9.6-0.7 22.7-2 29-2.8 6.3-0.8 16.7-2.6 23-4 6.3-1.4 14.9-3.9 19-5.5 4.1-1.5 10.2-4.6 13.5-6.7 3.3-2.1 8.2-6.1 10.8-8.8 2.6-2.7 6.3-7.8 8.2-11.4 1.8-3.6 4.3-9.9 5.4-14 1.1-4.1 2.5-12.5 3.1-18.5 0.5-6 1-13.4 1-21.5l191.5 0.5-0.3 20c-0.1 11-0.7 26.5-1.3 34.5-0.5 8-1.7 19.7-2.5 26-0.8 6.3-2.6 16.7-4 23-1.4 6.3-3.9 15.8-5.6 21-1.7 5.2-5.1 14-7.7 19.5-2.6 5.5-7.2 13.8-10.3 18.5-3 4.7-8 11.3-10.9 14.7-3 3.3-8.5 8.9-12.4 12.3-3.9 3.5-11.3 9.1-16.5 12.6-5.2 3.4-15.1 9-22 12.3-6.9 3.2-17.9 7.8-24.5 10.1-6.6 2.2-17.9 5.6-25 7.5-7.1 1.8-19.1 4.5-26.5 5.9-7.4 1.4-19.8 3.4-27.5 4.5-7.7 1.1-20.5 2.7-28.5 3.5-8 0.9-24.2 2.2-36 3-11.8 0.9-37.7 2-57.5 2.7-23.5 0.7-80.9 0.9-165 0.6-79.1-0.3-135.2-0.9-145-1.6-8.8-0.6-23.4-1.8-32.5-2.6-9.1-0.9-24.4-2.7-34-4.1-9.6-1.4-24.7-4-33.5-5.9-8.8-1.9-22.1-5.3-29.5-7.6-7.4-2.2-18.4-6.1-24.5-8.5-6.1-2.5-15.3-6.8-20.5-9.6-5.2-2.8-12.9-7.3-17-10.1-4.1-2.7-10.6-7.6-14.5-10.7-3.9-3.2-10.3-9.2-14.2-13.4-4-4.2-10-11.3-13.4-15.8-3.4-4.6-8.5-12.6-11.5-17.8-2.9-5.2-7.4-14.5-9.9-20.5-2.6-6-6.4-16.8-8.6-24-2.1-7.2-5.3-19.5-6.9-27.5-1.6-8-3.8-21.5-4.9-30-1.1-8.5-2.6-22-3.3-30-1-10.7-1.3-39.7-1.3-112 0-70.5 0.4-102.1 1.3-114 0.7-9.1 2.2-24.6 3.3-34.5 1.1-9.9 3.1-24.1 4.5-31.5 1.3-7.4 3.8-19.1 5.5-26 1.7-6.9 5.1-18.4 7.6-25.5 2.4-7.1 7.1-18.4 10.3-25 3.2-6.6 8.2-15.6 11-20 2.9-4.4 7.9-11.1 11-15 3.1-3.9 9.9-11 15.1-15.8 5.2-4.9 13.2-11.5 17.9-14.7 4.7-3.2 12.8-8 18-10.8 5.2-2.8 14.7-7.2 21-9.7 6.3-2.5 16.7-6.1 23-8 6.3-1.8 16.7-4.5 23-5.9 6.3-1.4 18.5-3.7 27-5.1 8.5-1.3 24.3-3.4 35-4.4 10.7-1.1 28.7-2.5 40-3.1 11.3-0.6 23.6-1.2 27.5-1.4 3.9-0.1 76.3-0.2 161-0.1zm-1362.5 0.5h789v144h-604v132h585v146h-585v155h604v145h-789zm1911.9 7h185.1l0.3 237.3c0.2 223.9 0.4 237.8 2.1 247.7 1 5.8 2.9 14.3 4.2 19 1.4 4.7 4.3 12.1 6.4 16.5 2.2 4.4 6.3 11.1 9.2 15 2.9 3.8 8.4 9.4 12.3 12.5 3.9 3 10.6 7.4 15 9.7 4.4 2.2 11.8 5.5 16.5 7.1 4.7 1.6 13.9 4.1 20.5 5.5 6.6 1.4 18.7 3.4 27 4.4 13.8 1.7 26 1.8 152 1.8 126.5 0 138.1-0.1 151.5-1.8 8-1 18.8-2.7 24-3.8 5.2-1.1 14.2-3.6 20-5.5 5.8-1.9 14-5.4 18.2-7.7 4.2-2.3 10.4-6.3 13.7-8.9 3.4-2.7 8.6-7.8 11.6-11.5 3.1-3.8 7.1-9.7 8.9-13.3 1.9-3.6 4.4-9 5.5-12 1.1-3 2.7-8 3.5-11 0.9-3 2.3-9.3 3.3-14 1.6-7.9 1.7-26.7 2.8-486.5h186l0.3 232.5c0.2 151.1-0.1 241-0.8 256.8-0.5 13.3-1.9 31.3-3 40-1.1 8.6-3.2 21.3-4.6 28.2-1.4 6.9-4.7 19-7.3 27-2.6 8-7.1 19.2-9.8 25-2.8 5.8-8.3 15.5-12.4 21.5-5.1 7.8-10.9 14.6-19.8 23.6-9 8.9-15.8 14.7-23.6 19.8-6.1 4.1-15.7 9.7-21.5 12.6-5.8 2.9-16 7.3-22.8 9.9-6.7 2.5-18.2 6.2-25.5 8.1-7.2 1.9-17.7 4.4-23.2 5.5-5.5 1.2-15.9 2.9-23 4-7.1 1.1-19.8 2.6-28 3.5-8.3 0.8-22.4 1.9-31.5 2.5-10 0.6-85.6 1-193 1-105.5 0-182.5-0.4-191.5-1-8.3-0.6-21.5-1.7-29.5-2.5-8-0.9-21.5-2.7-30-4.1-8.5-1.3-21.8-4-29.5-5.8-7.7-1.9-19.2-5.1-25.5-7.2-6.3-2-15.8-5.5-21-7.7-5.2-2.1-12.2-5.3-15.5-6.9-3.3-1.7-9.4-5.1-13.5-7.6-4.1-2.5-11.6-7.5-16.5-11.3-4.9-3.7-12.8-10.5-17.4-15-4.6-4.6-11.2-12-14.6-16.4-3.4-4.4-8-10.9-10.3-14.5-2.2-3.6-6.8-12.1-10.1-19-3.3-6.9-7.5-17.2-9.4-23-1.9-5.8-4.7-15.2-6.1-21-1.4-5.8-3.4-16.1-4.5-23-1.1-6.9-2.6-16.8-3.2-22-0.9-7.1-1.3-72.9-1.6-261.8zm1299 0.1c176.1 0 299.4 0.4 313.1 1 12.3 0.5 29.4 1.6 38 2.5 8.5 0.8 22.2 2.6 30.5 4 8.2 1.3 21.3 4 29 5.9 7.7 1.9 19.4 5.3 26 7.6 6.6 2.2 17.8 6.9 25 10.4 7.1 3.5 16.9 9 21.6 12.2 4.8 3.2 12.4 9 16.9 12.9 4.5 3.8 11.8 11.2 16.2 16.5 4.3 5.2 10.4 13.5 13.5 18.5 3.1 4.9 7.8 13.7 10.3 19.5 2.6 5.7 5.9 14.1 7.4 18.5 1.4 4.3 3.7 12.2 5 17.5 1.4 5.2 3.1 13.5 4 18.5 0.8 4.9 2.2 15.2 3.1 23 0.9 8.4 1.7 28.7 2.1 51.5 0.4 22.3 0.2 47.8-0.5 63-0.6 14-2 31.5-3.1 39-1.1 7.4-3.2 17.7-4.6 23-1.4 5.2-3.9 12.8-5.6 17-1.6 4.1-5.1 11-7.7 15.4-3 5.2-8.1 11.5-14.6 18.1-5.5 5.6-13.2 12.2-24 19.3l7.5 3.4c4.1 1.8 10.2 5.2 13.5 7.4 3.3 2.2 8.5 6.5 11.5 9.4 3.1 3 7.6 8.2 10 11.5 2.5 3.2 6.3 9.8 8.6 14.5 2.3 4.6 5.3 12 6.8 16.5 1.4 4.4 3.7 13.4 5 20 1.4 6.5 2.9 16.9 3.5 23 0.7 6.8 1.1 43.3 1.1 181.5h-186l-0.4-66.3c-0.3-62.6-0.4-66.7-2.3-75.2-1.2-5-3.5-12.6-5.3-17-1.8-4.5-5.1-11-7.5-14.5-2.4-3.6-7.4-9.5-11.2-13.1-3.8-3.6-9.8-8.2-13.3-10.3-3.6-2.1-9.1-4.9-12.3-6.3-3.2-1.3-9.7-3.5-14.5-4.9-4.8-1.4-12.6-3.2-17.2-4-4.7-0.8-15.1-1.9-23-2.4-8.8-0.6-87-1-381-1v215h-187l-0.2-360.4c-0.1-198.2 0.2-360.6 0.7-361 0.4-0.4 131.5-0.6 291.4-0.6zm-108.9 334.9c343.2 0 412.1-0.3 420-1 6.3-0.6 15.5-2.1 20.5-3.4 4.9-1.2 12.3-4 16.4-6.1 4-2.2 9.4-6 12-8.6 2.5-2.5 6-7.2 7.7-10.5 1.8-3.2 4.2-9.2 5.4-13.3 2-6.6 2.3-10.5 2.7-32 0.3-15 0-27.5-0.7-32-0.6-4.2-2.1-10.7-3.4-14.5-1.3-3.9-3.6-9.1-5.1-11.5-1.5-2.5-4.2-6.1-5.9-7.9-1.7-1.9-5.8-5.2-9.1-7.3-3.3-2.2-9.4-5-13.5-6.4-4.2-1.3-11.1-3.2-15.5-4.1-7.4-1.6-26.3-1.7-219.8-2.1l-211.7-0.3zm1599-335v145h-603v132h584v145h-584v155h603v145h-789l-0.2-360.3c-0.1-198.2 0.2-360.7 0.7-361 0.5-0.4 178.1-0.7 788.5-0.7z"/>
</svg>