<?xml version="1.0" encoding="utf-8"?>
<!-- Generator: Adobe Illustrator 19.0.0, SVG Export Plug-In . SVG Version: 6.00 Build 0)  -->
<svg version="1.1" id="Layer_1" xmlns="http://www.w3.org/2000/svg" xmlns:xlink="http://www.w3.org/1999/xlink" x="0px" y="0px"
	 viewBox="-114 258.5 381.2 276.5" style="enable-background:new -114 258.5 381.2 276.5;" xml:space="preserve">
<style type="text/css">
	.st0{fill:#EE2722;}
</style>
<g>
	<path class="st0" d="M204.7,279.5c-12.2-2.5-24.4-5-36.6-7.5c-38.6-7.9-77.6-9.1-116.8-6.8c-30,1.7-59.4,7.6-88.5,14.4
		c-7.3,1.7-7.2,1.8-7.1,9.3c0.1,19.1,0,38.3,0,54.7c-1.2-9.3-3-21.4-4.3-33.6c-1-9.1-1.3-18.3-2.1-27.4c-0.4-4.2,1.3-5.8,5.2-6.8
		c29.5-8.3,59.5-14,90.2-15.7c22-1.3,44.3-2.4,66.3-0.9c23.3,1.6,46.5,5.8,69.6,9.9c8.5,1.5,16.4,6.1,24.6,9.2
		C205,278.8,204.9,279.1,204.7,279.5z"/>
	<path class="st0" d="M40.4,381.7c-11.1-4.9-22.3-3.9-33.4-3.9c-2.8,0-5.3,0.6-5.3,4.4c0.1,3.7,2.7,3.6,5.2,3.7
		c7,0.3,14,0.6,20.9,0.9c9.8,0.4,13,3.7,12.9,13.5c-0.1,8.2-4.1,11.9-13.1,12c-8.5,0.1-17,0.2-25.5,0c-8.2-0.2-11.5-3.5-11.8-11.3
		c1.6,0.3,3.3,0.3,4.7,0.8c9.1,3.7,18.6,2.7,28.1,2.7c3.3,0,6.6-0.3,6.9-4.7c0.3-4.7-3.6-4.7-6.6-4.9c-7.5-0.6-15-0.5-22.4-1.2
		c-8.3-0.8-10.9-3.6-10.9-11.1c-0.1-8,3-12.3,10.8-12.8c9.4-0.6,19-0.5,28.4,0C36.4,370.4,40.3,375.1,40.4,381.7z"/>
	<path class="st0" d="M-64.3,380.1c-10.4-0.8-20.5-1.8-30.5-2.2c-7.4-0.3-9.3,1.9-9.6,9.5c-0.6,15-0.1,15.5,14.8,15.5
		c3.7,0,7.4,0.3,10.9-0.4c1.8-0.4,3.9-2.3,4.7-4.1c1.1-2.3-0.2-4.2-2.9-5.3c-4-1.6-7.8-3.7-11.6-5.9c8-0.5,15.7,0.8,23.4,3
		c0.5,0.2,1,0.9,1.2,1.4c3.4,7.7-1.8,18.7-10,19.3c-10.4,0.7-20.9,0.3-31.3-0.2c-5.4-0.3-8.3-4.2-8.6-9.4c-0.3-7-0.4-14,0-20.9
		c0.3-5.8,3.6-10,9.6-10.4c10.6-0.7,21.2-0.7,31.8,0.2C-66,370.6-63.7,375-64.3,380.1z"/>
	<path class="st0" d="M184.6,412.1c0-11.8,0-23.2,0-35c10.3,0,20.5-0.4,30.5,0.2c7.2,0.4,10.7,7.6,8.4,16.6
		c-0.8,3.2-0.8,5.6,0.1,8.6c0.9,2.9,0.2,6.2,0.2,9.7c-2.5,0-4.7,0-7.3,0c-0.1-1.2-0.2-2.5-0.4-3.8c-0.5-4.2-2.5-6.8-7.1-6.7
		c-3.8,0.1-7.7,0.3-11.5-0.1c-4.6-0.4-6,1.5-5.5,5.7c0.2,1.4-0.1,2.9-0.2,4.8C189.5,412.1,187.2,412.1,184.6,412.1z M192.6,393.8
		c6.6,0,12.9,0.2,19.2-0.2c1.2-0.1,3.2-2.4,3.3-3.8c0.1-1.4-1.6-4.1-2.7-4.2c-6.5-0.4-13.1-0.2-19.8-0.2
		C192.6,388.6,192.6,391,192.6,393.8z"/>
	<path class="st0" d="M101.3,526.1c-7,2.9-14,5.9-21.1,8.7c-1,0.4-2.3,0.2-3.3,0c-16.9-4.1-32-11.6-45.9-22.1
		c-20.2-15.2-35.1-34.6-46.6-56.9c-3-5.9-6.2-11.7-9.3-17.5c0.4-0.3,0.8-0.6,1.2-0.9c6.2,8.2,13.1,16,18.4,24.7
		c9.8,16.1,20.9,31,35.8,42.4c9.2,7,19.7,12.3,29.7,18.1c3.1,1.8,6.7,2.8,10,4.3c9.5,4.4,18.6-0.2,27.8-1.4c0.9-0.1,1.9-0.5,2.8-0.7
		C101,525.2,101.1,525.6,101.3,526.1z"/>
	<path class="st0" d="M-36.7,412.8c-4.1-0.3-8.8-0.6-13.4-1.1c-3.9-0.5-6.7-2.9-6.9-6.8c-0.3-6.6-0.3-13.3,0.1-19.9
		c0.3-4.2,3-7.2,7.5-7.4c8.1-0.3,16.3-0.8,24.4-0.2c6.7,0.5,9.4,4.2,9.8,11.1c0.2,4.5,0.2,9,0,13.5c-0.3,6.2-2.4,8.7-8.5,9.8
		C-27.8,412.5-32,412.4-36.7,412.8z M-36.2,384.8c-2.3,0-4.6-0.1-7,0c-3.1,0.2-5.9,1.4-5.8,4.8c0.1,5-2.4,10.7,2.7,14.8
		c0.7,0.5,1.9,0.6,2.9,0.6c4.8,0,9.6-0.1,14.4-0.1c3.5,0,4.9-2,5.4-5.2C-21.4,387.2-23.5,384.6-36.2,384.8z"/>
	<path class="st0" d="M47.5,377.1c12.1,0,23.9,0,36.2,0c0.1,1.9,0.2,3.8,0.3,6.6c-9.5,0-18.7,0-28.1,0c0,2.6,0,4.4,0,6.8
		c8.9,0,17.7,0,26.8,0c0,2.5,0,4.4,0,6.9c-8.7,0-17.4,0-26.7,0c-0.2,3-0.3,5.3-0.4,8.3c9.5,0,18.6,0,28,0c0,2.4,0,4.3,0,6.5
		c-12,0-23.9,0-36.1,0C47.5,400.6,47.5,389.1,47.5,377.1z"/>
	<path class="st0" d="M231.4,377c12,0,23.4,0,34.8,0c1.9,6.1,1.5,6.8-4.6,6.8c-6.2,0-12.3-0.2-18.5,0.2c-1.3,0.1-3.3,1.8-3.7,3.1
		c-0.8,2.8,1.2,3.6,3.8,3.6c7.5-0.1,14.9,0,22.9,0c0,2.3,0,4.3,0,6.9c-6.9,0-13.7,0-20.5,0c-6.9,0-7.1,0.3-5.8,8.1
		c8.7,0,17.6,0,26.9,0c0,2.5,0,4.3,0,6.5c-11.8,0-23.4,0-35.4,0C231.4,400.6,231.4,389,231.4,377z"/>
	<path class="st0" d="M131.7,388.3c-3.7,0.2-7.2,1.9-10.1-2.1c-0.7-1-2.7-1.2-4.1-1.3c-2.3-0.3-4.7-0.2-7-0.2
		c-12.3,0-15.5,4.1-12.1,16.3c0.5,1.8,3.2,4,5.1,4.2c4.8,0.6,9.6,0.3,14.5,0.2c1.4,0,3.6-0.6,4-1.5c2-4.9,5.9-3,9.2-3
		c1.2,6.6-0.7,10.3-6.8,10.8c-8.7,0.7-17.6,0.6-26.3,0.2c-4.8-0.2-8-3.5-8.1-8.6c-0.1-6-0.1-11.9,0.4-17.9c0.3-4,2.8-7.2,7-7.3
		c9.4-0.3,18.9-0.4,28.3,0.3C131,378.5,131.4,383.6,131.7,388.3z"/>
	<path class="st0" d="M170.3,377c3.1,0,5.4,0,7.8,0c0,9.6,0.4,19.2-0.3,28.7c-0.2,2.2-3.9,5.6-6.3,5.8c-8.6,0.8-17.2,1-25.8,0.3
		c-5.8-0.4-8.5-4.1-8.6-9.8c-0.2-8.1-0.1-16.3-0.1-24.8c2.8,0,5.1,0,8.2,0c0,6.6,0,13,0,19.4c0,8.1,1.1,9.2,9.2,9.2
		c2.8,0,5.7,0,8.5,0c5.8-0.1,7.3-1.6,7.3-7.5C170.3,391.4,170.3,384.4,170.3,377z"/>
</g>
</svg>
