<svg id="Artwork" xmlns="http://www.w3.org/2000/svg" width="1000" height="493.32" viewBox="0 0 1000 493.32"><defs><style>.cls-1{fill:#ffe900;}</style></defs><rect class="cls-1" x="3.24" y="327.68" width="993.52" height="114.02" transform="translate(-37.47 54.37) rotate(-6)"/><path d="M478.9,63.35a114,114,0,1,0,114,114A113.87,113.87,0,0,0,478.9,63.35Zm0,177.37a63.35,63.35,0,1,1,63.34-63.35A63.37,63.37,0,0,1,478.9,240.72Z"/><path d="M845.84,63.35a114,114,0,1,0,114,114A113.86,113.86,0,0,0,845.84,63.35Zm0,177.37a63.35,63.35,0,1,1,63.35-63.35A63.37,63.37,0,0,1,845.84,240.72Z"/><polygon points="776.39 56.76 776.39 6.08 548.35 6.08 548.35 56.76 637.03 56.76 637.03 285.31 687.71 285.31 687.71 56.76 776.39 56.76"/><path d="M170.78,120.1v50.68h70c-16.17,42.47-47,69.94-82.71,69.94a95,95,0,1,1,67.4-162.17l36-36A145.7,145.7,0,0,0,12.67,145.44,144.32,144.32,0,0,0,55.24,248.32a145.63,145.63,0,0,0,102.87,43.07c49.63,0,94.26-31.95,120.61-82.69v76.61H329.4V120.1Z"/></svg>