<?xml version="1.0" encoding="UTF-8"?>
<!DOCTYPE svg PUBLIC "-//W3C//DTD SVG 1.1//EN" "http://www.w3.org/Graphics/SVG/1.1/DTD/svg11.dtd">
<!-- Creator: CorelDRAW -->
<svg xmlns="http://www.w3.org/2000/svg" xml:space="preserve" width="200mm" height="75mm" style="shape-rendering:geometricPrecision; text-rendering:geometricPrecision; image-rendering:optimizeQuality; fill-rule:evenodd; clip-rule:evenodd"
viewBox="0 0 200 75"
 xmlns:xlink="http://www.w3.org/1999/xlink">
 <defs>
  <style type="text/css">
   <![CDATA[
    .str0 {stroke:black;stroke-width:0.0762}
    .fil3 {fill:none;fill-rule:nonzero}
    .fil0 {fill:#5F1068}
    .fil1 {fill:#FCFBFC}
    .fil2 {fill:black;fill-rule:nonzero}
   ]]>
  </style>
 </defs>
 <g id="Ebene_x0020_1">
  <metadata id="CorelCorpID_0Corel-Layer"/>
  <g id="_121821320">
   <path id="_122664976" class="fil0" d="M52.2304 13.76l-1.0935 0.0994 -0.8947 0.0994 -0.7953 0.0994 -0.7953 0.0994 -0.6958 0.0994 -0.5965 0.0994 -0.5965 0.0994 -0.5964 0.0993 -0.5965 0.0994 -0.497 0.0994 -0.4971 0.0994 -0.3976 0.0994 -0.4971 0.0994 -0.497 0.0994 -0.3976 0.0994 -0.4971 0.0994 -0.3976 0.0994 -0.3977 0.0994 -0.3976 0.0994 -0.3976 0.0994 -0.3977 0.0994 -0.3976 0.0994 -0.2982 0.0994 -0.3977 0.0994 -0.2982 0.0994 -0.2982 0.0994 -0.3977 0.0994 -0.2982 0.0994 -0.3976 0.0994 -0.2983 0.0994 -0.497 0.0994 -0.3976 0.0994 -0.2983 0.0994 -0.2982 0.0994 -0.2982 0.0994 -0.2983 0.0994 -0.2982 0.0994 -0.2982 0.0994 -0.2982 0.0994 -0.2983 0.0994 -0.2982 0.0994 -0.1988 0.0994 -0.2982 0.0994 -0.1989 0.0994 -0.2982 0.0994 -0.2982 0.0994 -0.2983 0.0994 -0.1988 0.0994 -0.2982 0.0994 -0.1988 0.0994 -0.2982 0.0993 -0.1989 0.0994 -0.2982 0.0994 -0.1988 0.0994 -0.2982 0.0994 -0.1989 0.0994 -0.1988 0.0994 -0.2982 0.0994 -0.1988 0.0994 -0.1988 0.0994 -0.2983 0.0994 -0.1988 0.0994 -0.1988 0.0994 -0.1988 0.0994 -0.1988 0.0994 -0.1989 0.0994 -0.1988 0.0994 -0.1988 0.0994 -0.1988 0.0994 -0.2982 0.0994 -0.1988 0.0994 -0.1989 0.0994 -0.1988 0.0994 -0.1988 0.0994 -0.1988 0.0994 -0.1989 0.0994 -0.1988 0.0994 -0.1988 0.0994 -0.1988 0.0994 -0.1988 0.0994 -0.1989 0.0994 -0.1987 0.0994 -0.1989 0.0994 -0.0994 0.0994 -0.1988 0.0994 -0.1988 0.0994 -0.2982 0.0994 -0.1989 0.0994 -0.1988 0.0994 -0.1988 0.0994 -0.0994 0.0994 -0.1989 0.0994 -0.1987 0.0994 -0.0995 0.0993 -0.1988 0.0994 -0.1988 0.0994 -0.1988 0.0994 -0.0994 0.0994 -0.1988 0.0994 -0.1989 0.0994 -0.0994 0.0994 -0.1988 0.0994 -0.1988 0.0994 -0.0994 0.0994 -0.1988 0.0994 -0.0994 0.0994 -0.1989 0.0994 -0.1988 0.0994 -0.0994 0.0994 -0.1988 0.0994 -0.0994 0.0994 -0.1988 0.0994 -0.0994 0.0994 -0.1989 0.0994 -0.0994 0.0994 -0.1988 0.0994 -0.0994 0.0994 -0.1988 0.0994 -0.0994 0.0994 -0.1988 0.0994 -0.0995 0.0994 -0.1988 0.0994 -0.0994 0.0994 -0.0994 0.0994 -0.1988 0.0994 -0.0994 0.0994 -0.0994 0.0994 -0.1989 0.0994 -0.0994 0.0994 -0.0994 0.0994 -0.0994 0.0994 -0.0994 0.0994 -0.1988 0.0994 -0.0994 0.0994 -0.0994 0.0994 -0.1988 0.0994 -0.0995 0.0993 -0.0994 0.0994 -0.0994 0.0994 -0.1988 0.0994 -0.0994 0.0994 -0.0994 0.0994 -0.1988 0.0994 -0.1988 0.0994 -0.0995 0.0994 -0.0994 0.0994 -0.0994 0.0994 -0.1988 0.0994 -0.0994 0.0994 -0.0994 0.0994 -0.0994 0.0994 -0.0994 0.0994 -0.0994 0.0994 -0.0995 0.0994 -0.1988 0.0994 -0.0994 0.0994 -0.0994 0.0994 -0.0994 0.0994 -0.0994 0.0994 -0.0994 0.0994 -0.0994 0.0994 -0.0994 0.0994 -0.0994 0.0994 -0.0995 0.0994 -0.0994 0.0994 -0.0994 0.0994 -0.0994 0.0994 -0.0994 0.0994 -0.0994 0.0994 -0.0994 0.0994 -0.0994 0.0994 -0.0994 0.0994 -0.0994 0.0994 -0.0994 0.0994 -0.0995 0.0994 -0.0994 0.0994 -0.0994 0.0994 -0.0994 0.0994 -0.0994 0.0994 -0.0994 0.1987 -0.0994 0.0994 -0.0994 0.0994 -0.0994 0.0994 -0.0994 0.0994 -0.0995 0.1988 -0.0994 0.0994 -0.0994 0.0994 -0.0994 0.0994 -0.0994 0.0994 -0.0994 0.0994 -0.0994 0.1988 -0.0994 0.0994 -0.0994 0.0994 -0.0994 0.0994 0 0.1988 -0.1989 0 -0.0994 0.1988 -0.0994 0.0994 -0.0994 0.0994 -0.0994 0.1988 -0.0994 0.0994 -0.0994 0.0994 -0.0994 0.1988 -0.0994 0.0994 -0.0994 0.1988 -0.0994 0.0994 -0.0995 0.1988 -0.0994 0.0994 -0.0994 0.1988 -0.0994 0.1988 -0.0994 0.0994 -0.0994 0.1987 -0.0994 0.1988 -0.0994 0.1988 -0.0994 0.0994 -0.0994 0.1988 -0.0995 0.1988 -0.0994 0.1988 -0.0994 0.2982 -0.0994 0.1988 -0.0994 0.1988 -0.0994 0.2982 -0.0994 0.1988 -0.0994 0.2982 -0.0994 0.2982 -0.0994 0.2982 -0.0994 0.2982 -0.0995 0.3976 -0.0994 0.3975 -0.0994 0.5964 0 2.7832 0.0994 0.497 0.0994 0.3976 0.0995 0.3975 0.0994 0.2982 0.0994 0.1988 0.0994 0.2982 0.0994 0.1988 0.0994 0.1988 0.0994 0.1988 0.0994 0.1988 0.0994 0.1988 0.0994 0.1988 0.0994 0.0994 0.0995 0.1988 0.0994 0.0994 0.0994 0.0994 0.0994 0.1988 0.0994 0.0994 0.0994 0.0994 0.0994 0.1988 0.0994 0.0994 0.0994 0.0994 0.0994 0.0994 0.0995 0.0994 0.0994 0.0994 0.0994 0.0994 0.0994 0.0994 0.0994 0.0993 0.0994 0.0994 0.0994 0.0994 0.0994 0.0994 0.0994 0.0994 0.0994 0.0994 0.1989 0.0994 0.0994 0.0994 0.0994 0.0994 0.0994 0.0994 0.1988 0.0994 0.0994 0.0994 0.0994 0.0994 0.1988 0.0994 0.0994 0.0994 0.2983 0.0994 0.1988 0.0994 0.0994 0.0994 0.0994 0.0994 0.1988 0.0994 0.0994 0.0994 0.1989 0.0994 0.1988 0.0994 0.1988 0.0994 0.1988 0.0994 0.1988 0.0994 0.1989 0.0994 0.1988 0.0994 0.1988 0.0994 0.2982 0.0994 0.1988 0.0994 0.2983 0.0994 0.1988 0.0994 0.2982 0.0994 0.2982 0.0994 0.1989 0.0994 0.3976 0.0994 0.2982 0.0994 0.2983 0.0994 0.2982 0.0994 0.3976 0.0994 0.2982 0.0993 0.3977 0.0994 0.497 0.0994 0.3977 0.0994 0.5964 0.0994 0.4971 0.0994 0.5964 0.0994 0.6959 0.0994 0.7953 0.0994 0.8947 0.0994 1.2923 0.0994 6.3622 0 1.3917 -0.0994 1.0935 -0.0994 0.8947 -0.0994 0.7952 -0.0994 0.7953 -0.0994 0.6959 -0.0994 0.5964 -0.0994 0.5965 -0.0994 0.5965 -0.0994 0.5964 -0.0994 0.4971 -0.0993 0.497 -0.0994 0.3976 -0.0994 0.4971 -0.0994 0.497 -0.0994 0.3977 -0.0994 0.497 -0.0994 0.3977 -0.0994 0.3976 -0.0994 0.3976 -0.0994 0.3977 -0.0994 0.3976 -0.0994 0.3976 -0.0994 0.2983 -0.0994 0.3976 -0.0994 0.2982 -0.0994 0.3977 -0.0994 0.2982 -0.0994 0.3976 -0.0994 0.2983 -0.0994 0.2982 -0.0994 0.2982 -0.0994 0.3977 -0.0994 0.2982 -0.0994 0.2982 -0.0994 0.2983 -0.0994 0.497 -0.0994 0.2982 -0.0994 0.2983 -0.0994 0.2982 -0.0994 0.2982 -0.0994 0.1988 -0.0994 0.2983 -0.0994 0.2982 -0.0994 0.2982 -0.0994 0.1988 -0.0994 0.2983 -0.0994 0.2982 -0.0994 0.1988 -0.0994 0.2982 -0.0994 0.1989 -0.0994 0.2982 -0.0993 0.1988 -0.0994 0.2982 -0.0994 0.1988 -0.0994 0.2983 -0.0994 0.1988 -0.0994 0.2982 -0.0994 0.1988 -0.0994 0.1989 -0.0994 0.1988 -0.0994 0.2982 -0.0994 0.1988 -0.0994 0.1988 -0.0994 0.1989 -0.0994 0.1988 -0.0994 0.1988 -0.0994 0.1988 -0.0994 0.2982 -0.0994 0.1989 -0.0994 0.1988 -0.0994 0.1988 -0.0994 0.1988 -0.0994 0.1988 -0.0994 0.1989 -0.0994 0.1988 -0.0994 0.1988 -0.0994 0.1988 -0.0994 0.1988 -0.0994 0.1989 -0.0994 0.1988 -0.0994 0.1988 -0.0994 0.1988 -0.0994 0.1988 -0.0994 0.1988 -0.0994 0.1989 -0.0994 0.0994 -0.0994 0.1988 -0.0994 0.1988 -0.0994 0.1988 -0.0994 0.1989 -0.0994 0.0994 -0.0994 0.2982 -0.0994 0.1988 -0.0993 0.0994 -0.0994 0.1988 -0.0994 0.1989 -0.0994 0.1988 -0.0994 0.0994 -0.0994 0.1988 -0.0994 0.1988 -0.0994 0.0994 -0.0994 0.1988 -0.0994 0.1989 -0.0994 0.0994 -0.0994 0.1988 -0.0994 0.1988 -0.0994 0.0994 -0.0994 0.1988 -0.0994 0.0995 -0.0994 0.1988 -0.0994 0.0994 -0.0994 0.1988 -0.0994 0.0994 -0.0994 0.1988 -0.0994 0.0994 -0.0994 0.1989 -0.0994 0.0994 -0.0994 0.1988 -0.0994 0.0994 -0.0994 0.1988 -0.0994 0.0994 -0.0994 0.1988 -0.0994 0.0994 -0.0994 0.0995 -0.0994 0.1988 -0.0994 0.0994 -0.0994 0.0994 -0.0994 0.0994 -0.0994 0.1988 -0.0994 0.0994 -0.0994 0.0994 -0.0994 0.1989 -0.0994 0.0994 -0.0994 0.0994 -0.0994 0.1988 -0.0994 0.0994 -0.0994 0.0994 -0.0993 0.0994 -0.0994 0.1988 -0.0994 0.0995 -0.0994 0.0994 -0.0994 0.1988 -0.0994 0.0994 -0.0994 0.0994 -0.0994 0.0994 -0.0994 0.0994 -0.0994 0.1988 -0.0994 0.0995 -0.0994 0.1988 -0.0994 0.0994 -0.0994 0.0994 -0.0994 0.0994 -0.0994 0.0994 -0.0994 0.1988 -0.0994 0.0994 -0.0994 0.0994 -0.0994 0.0995 -0.0994 0.0994 -0.0994 0.0994 -0.0994 0.0994 -0.0994 0.0994 -0.0994 0.0994 -0.0994 0.0994 -0.0994 0.1988 -0.0994 0.0994 -0.0994 0.0994 -0.0994 0.0995 -0.0994 0.0994 -0.0994 0.0994 -0.0994 0.0994 -0.1988 0.0994 -0.0994 0.0994 -0.0994 0.0994 -0.0994 0.0994 -0.0994 0.0994 -0.0994 0.0994 -0.0994 0.0995 -0.0994 0.0994 -0.1987 0.0994 -0.0994 0.0994 -0.0994 0.0994 -0.0994 0.0994 -0.0994 0.0994 -0.0994 0.0994 -0.0994 0.0994 -0.0994 0.0994 -0.1988 0.0994 -0.0994 0.0995 -0.0994 0.0994 -0.0994 0.0994 -0.0994 0.0994 -0.1988 0.0994 -0.0994 0.0994 -0.0994 0.0994 -0.0994 0.0994 -0.1988 0.0994 -0.0994 0.0994 -0.0994 0.0994 -0.1988 0.0995 -0.0994 0.0994 -0.0994 0.0994 -0.0994 0.0994 -0.1988 0.0994 -0.0994 0.0994 -0.0994 0.0994 -0.1988 0.0994 -0.1988 0.0994 -0.0994 0.0994 -0.1988 0.0995 -0.0994 0.0994 -0.1988 0.0994 -0.1987 0.0994 -0.1988 0.0994 -0.0994 0.0994 -0.1988 0.0994 -0.1988 0.0994 -0.1988 0.0994 -0.1988 0.0994 -0.1988 0.0994 -0.1988 0.0995 -0.2982 0.0994 -0.1988 0.0994 -0.2982 0.0994 -0.1988 0.0994 -0.2982 0.0994 -0.2982 0.0994 -0.3976 0.0994 -0.3976 0.0994 -0.3975 0.0994 -1.2922 0 -0.1988 0.1989 0 0.1988 -0.0994 0.1988 -0.0994 0.1988 -0.0994 0.1988 -0.0994 0.1989 -0.0994 0.1988 -0.0994 0.1988 -0.0994 0.1988 -0.0994 0.1988 -0.0994 0.1988 -0.0994 0.2983 -0.0994 0.1988 -0.0994 0.1988 -0.0994 0.2982 -0.0994 0.1989 -0.0994 0.1988 -0.0994 0.2982 -0.0994 0.1988 -0.0994 0.2983 -0.0994 0.1988 -0.0994 0.2982 -0.0994 0.2982 -0.0994 0.1988 -0.0994 0.2983 -0.0994 0.2982 -0.0994 0.2982 -0.0994 0.3977 -0.0994 0.2982 -0.0993 0.3976 -0.0994 0.0994 -0.0994 0 -0.3976c-1.7423,0.1449 -4.5995,0.9976 -6.1528,1.5015 -0.8824,0.2863 -1.9169,0.7499 -2.8044,1.0724 -0.9942,0.3614 -1.8931,0.8374 -2.7532,1.1236 -1.1794,0.3926 -3.949,1.9884 -5.0698,2.6838 -1.6543,1.0263 -3.1316,1.9308 -4.7333,3.0203 -2.7861,1.8951 -6.1424,4.6823 -8.4834,7.0237 -1.3481,1.3483 -2.4346,2.6586 -3.7271,4.0263 -0.7138,0.7554 -3.0493,4.1733 -3.3557,4.3978 -0.8549,-0.6264 -4.6893,-7.5718 -5.3681,-7.753 -0.4006,1.5003 -3.9603,4.4704 -5.4333,5.2028 -2.5761,1.281 -4.6474,2.252 -8.484,2.252l-1.3917 0c-2.5935,0 -6.0318,-1.4974 -7.4315,-2.708 -1.8698,-1.6171 -3.4041,-3.38 -3.4041,-6.8342 0,-4.9943 4.0415,-9.0073 7.0184,-11.1722 3.2506,-2.364 8.3155,-4.4332 13.8575,-4.4332l2.7835 0c2.0633,0 3.5877,0.2251 5.374,0.3938 0.7091,0.067 0.0183,1.4421 -0.1244,1.9726 -0.124,0.4605 -0.489,1.8145 -0.6768,2.2059 -0.5398,-0.2856 -1.0102,-0.7481 -1.6025,-0.982 -0.5363,-0.2119 -1.3341,-0.5613 -1.8581,-0.8259 -0.7039,-0.3553 -3.2996,-0.8759 -4.3927,-0.8759l-1.0935 0c-3.7013,0 -7.7526,1.9844 -10.0211,3.4982 -2.3938,1.5973 -4.8903,4.6694 -4.8903,8.6284l0 0.2981c0,4.938 4.1697,7.5543 9.1456,7.5543 2.5927,0 5.0065,-0.6988 6.7148,-1.6355 1.2456,-0.683 3.6238,-3.1095 3.6238,-4.8254l0 -0.497c0,-0.4369 -0.5313,-1.7891 -0.9941,-1.7891l-3.3799 0c-0.4998,0 -2.3224,0.2971 -2.8619,0.4185 -0.9158,0.2062 -1.6472,0.6086 -2.4146,0.9711l0.5591 -2.2682 0.6416 -2.2028 10.2018 0.0255 5.6043 8.3239c0.5564,-0.0463 2.5124,-2.3611 3.0063,-2.8585 0.8163,-0.8223 2.2351,-2.0258 3.1571,-2.7077 2.0839,-1.5412 4.5775,-3.5446 6.9926,-4.7372 2.7231,-1.3447 4.895,-2.6327 7.9056,-3.8242 1.2236,-0.4843 3.0148,-1.1468 4.3296,-1.5355 0.8123,-0.24 4.2368,-1.0841 4.6304,-1.3339l-0.2982 0 0 -0.2981 -0.0994 -0.3976 -0.0994 -0.2982 -0.0994 -0.1988 -0.0994 -0.2982 -0.0994 -0.1988 -0.0994 -0.1988 -0.0994 -0.1988 -0.0995 -0.1988 -0.0994 -0.0994 -0.0994 -0.1988 -0.0994 -0.1988 -0.0994 -0.0994 -0.0994 -0.1988 -0.0994 -0.0994 -0.0994 -0.0994 -0.0994 -0.1988 -0.0994 -0.0994 -0.0994 -0.0994 -0.0995 -0.0994 -0.0994 -0.0994 -0.0994 -0.0994 -0.0994 -0.0994 -0.0994 -0.0994 -0.0994 -0.1988 -0.0994 -0.0993 -0.1988 -0.0994 -0.0994 -0.0994 -0.0995 -0.0994 -0.0994 -0.0994 -0.0994 -0.0994 -0.0994 -0.0994 -0.0994 -0.0994 -0.1988 -0.0994 -0.0994 -0.0994 -0.0994 -0.0994 -0.0994 -0.0994 -0.1989 -0.0994 -0.0994 -0.0994 -0.1988 -0.0994 -0.0994 -0.0994 -0.1988 -0.0994 -0.0994 -0.0994 -0.1988 -0.0994 -0.1989 -0.0994 -0.2982 -0.0994 -0.0994 -0.0994 -0.1988 -0.0994 -0.1988 -0.0994 -0.1989 -0.0994 -0.1988 -0.0994 -0.1988 -0.0994 -0.1988 -0.0994 -0.1988 -0.0994 -0.1988 -0.0994 -0.2983 -0.0994 -0.1988 -0.0994 -0.2982 -0.0994 -0.1988 -0.0994 -0.2983 -0.0994 -0.2982 -0.0994 -0.2982 -0.0994 -0.2983 -0.0994 -0.3976 -0.0994 -0.2982 -0.0994 -0.3977 -0.0994 -0.3976 -0.0994 -0.2982 -0.0994 -0.3977 -0.0993 -0.497 -0.0994 -0.4971 -0.0994 -0.497 -0.0994 -0.5965 -0.0994 -0.6958 -0.0994 -0.7953 -0.0994 -0.9941 -0.0994 -1.1929 -0.0994 -6.4616 0 -1.3917 0.0994z"/>
   <path id="_122034920" class="fil1" d="M84.936 22.4076l0 -0.3976 -0.7952 0 -0.7953 0.0994 -0.5965 0.0994 -0.6958 0.0994 -1.0935 0.0994 -0.4971 0.0994 -0.5964 0.0994 -0.4971 0.0994 -0.497 0.0994 -0.3977 0.0994 -0.497 0.0994 -0.3977 0.0993 0 0.0994c-0.3936,0.2498 -3.8181,1.0939 -4.6304,1.3339 -1.3148,0.3887 -3.106,1.0512 -4.3296,1.5355 -3.0106,1.1915 -5.1825,2.4795 -7.9056,3.8242 -2.4151,1.1926 -4.9087,3.196 -6.9926,4.7372 -0.922,0.6819 -2.3408,1.8854 -3.1571,2.7077 -0.4939,0.4974 -2.4499,2.8122 -3.0063,2.8585l-5.6043 -8.3239 -10.2018 -0.0255 -0.6416 2.2028 -0.5591 2.2682c0.7674,-0.3625 1.4988,-0.7649 2.4146,-0.9711 0.5395,-0.1214 2.3621,-0.4185 2.8619,-0.4185l3.3799 0c0.4628,0 0.9941,1.3522 0.9941,1.7891l0 0.497c0,1.7159 -2.3782,4.1424 -3.6238,4.8254 -1.7083,0.9367 -4.1221,1.6355 -6.7148,1.6355 -4.9759,0 -9.1456,-2.6163 -9.1456,-7.5543l0 -0.2981c0,-3.959 2.4965,-7.0311 4.8903,-8.6284 2.2685,-1.5138 6.3198,-3.4982 10.0211,-3.4982l1.0935 0c1.0931,0 3.6888,0.5206 4.3927,0.8759 0.524,0.2646 1.3218,0.614 1.8581,0.8259 0.5923,0.2339 1.0627,0.6964 1.6025,0.982 0.1878,-0.3914 0.5528,-1.7454 0.6768,-2.2059 0.1427,-0.5305 0.8335,-1.9056 0.1244,-1.9726 -1.7863,-0.1687 -3.3107,-0.3938 -5.374,-0.3938l-2.7835 0c-5.542,0 -10.6069,2.0692 -13.8575,4.4332 -2.9769,2.1649 -7.0184,6.1779 -7.0184,11.1722 0,3.4542 1.5343,5.2171 3.4041,6.8342 1.3997,1.2106 4.838,2.708 7.4315,2.708l1.3917 0c3.8366,0 5.9079,-0.971 8.484,-2.252 1.473,-0.7324 5.0327,-3.7025 5.4333,-5.2028 0.6788,0.1812 4.5132,7.1266 5.3681,7.753 0.3064,-0.2245 2.6419,-3.6424 3.3557,-4.3978 1.2925,-1.3677 2.379,-2.678 3.7271,-4.0263 2.341,-2.3414 5.6973,-5.1286 8.4834,-7.0237 1.6017,-1.0895 3.079,-1.994 4.7333,-3.0203 1.1208,-0.6954 3.8904,-2.2912 5.0698,-2.6838 0.8601,-0.2862 1.759,-0.7622 2.7532,-1.1236 0.8875,-0.3225 1.922,-0.7861 2.8044,-1.0724 1.5533,-0.5039 4.4105,-1.3566 6.1528,-1.5015z"/>
   <path id="_122664592" class="fil2" d="M85.4702 42.2699l1.71 0.256c0.1536,1.1007 0.9471,1.6485 2.3858,1.6485 0.5427,0 1.0034,-0.0768 1.3874,-0.2252 0.384,-0.1485 0.6963,-0.3738 0.9318,-0.6656 0.2355,-0.2969 0.3942,-0.6297 0.4762,-0.9983 0.087,-0.3687 0.1279,-1.1161 0.1279,-2.2374 -0.7679,0.9113 -1.7304,1.367 -2.8773,1.367 -0.9113,0 -1.6997,-0.2201 -2.3653,-0.6604 -0.6604,-0.4403 -1.1826,-1.0496 -1.5666,-1.838 -0.3789,-0.7834 -0.5683,-1.7049 -0.5683,-2.7647 0,-1.6434 0.4096,-2.949 1.2287,-3.9166 0.8192,-0.9676 1.9097,-1.454 3.2715,-1.454 1.2288,0 2.2425,0.4966 3.0463,1.4847l0 -1.2441 1.6178 0 0 8.9852c0,1.3055 -0.0972,2.268 -0.2867,2.8773 -0.1894,0.6092 -0.4761,1.1161 -0.8703,1.5205 -0.3891,0.4096 -0.8755,0.7117 -1.4694,0.9165 -0.5888,0.2048 -1.2799,0.3072 -2.0684,0.3072 -1.3772,0 -2.4165,-0.3021 -3.1128,-0.9114 -0.6963,-0.6143 -1.029,-1.4284 -0.9983,-2.4472zm1.454 -6.241c0,2.6213 0.9523,3.932 2.8517,3.932 0.9011,0 1.6025,-0.3482 2.0991,-1.0342 0.5017,-0.6912 0.7526,-1.6383 0.7526,-2.8363 0,-1.152 -0.2611,-2.0787 -0.7731,-2.7903 -0.5171,-0.7116 -1.2185,-1.0649 -2.1093,-1.0649 -0.9267,0 -1.6332,0.3686 -2.1043,1.111 -0.4761,0.7372 -0.7167,1.6332 -0.7167,2.6827z"/>
   <path id="_1226645921" class="fil2" d="M96.9333 41.4149l0 -10.3931 1.5872 0 0 1.5718c0.6604,-1.2083 1.413,-1.8124 2.2526,-1.8124 0.5888,0 1.1878,0.1894 1.7971,0.5683l-0.599 1.6383c-0.4301,-0.2611 -0.8601,-0.3942 -1.2902,-0.3942 -0.4505,0 -0.8192,0.128 -1.1161,0.3788 -0.297,0.2458 -0.5171,0.6554 -0.6605,1.2288 -0.1433,0.5683 -0.215,1.157 -0.215,1.7714l0 5.4423 -1.7561 0z"/>
   <path id="_12266459212" class="fil2" d="M110.419 40.1247c-1.198,1.0189 -2.478,1.5308 -3.8398,1.5308 -1.0803,0 -1.9404,-0.2662 -2.5855,-0.8038 -0.6451,-0.5324 -0.9676,-1.2594 -0.9676,-2.181 0,-0.5324 0.1126,-1.0035 0.343,-1.4233 0.2304,-0.4198 0.6093,-0.7935 1.1417,-1.1212 0.5273,-0.3225 1.3977,-0.5632 2.606,-0.7116 1.454,-0.1792 2.5035,-0.3789 3.1537,-0.5991l0 -0.4659c0,-1.4079 -0.8345,-2.1144 -2.5086,-2.1144 -0.9062,0 -1.5462,0.1689 -1.9097,0.512 -0.3635,0.3379 -0.6349,0.8294 -0.8038,1.4693l-1.71 -0.2252c0.4505,-2.1401 2.0121,-3.2101 4.6794,-3.2101 0.7526,0 1.3926,0.0768 1.9302,0.2406 0.5324,0.1587 0.9676,0.3993 1.3055,0.7168 0.3328,0.3225 0.5478,0.6809 0.6502,1.0802 0.1024,0.3994 0.1485,1.0291 0.1485,1.8892l0 4.5771c0,0.2201 0.0461,0.5376 0.128,0.9574 0.087,0.4249 0.2304,0.814 0.4301,1.1724l-1.8483 0c-0.1792,-0.3686 -0.2918,-0.7987 -0.343,-1.2902zm-0.1485 -3.9319c-0.6195,0.2508 -1.582,0.471 -2.8824,0.6604 -1.0495,0.1536 -1.7253,0.3789 -2.0223,0.6758 -0.3021,0.3021 -0.4505,0.6656 -0.4505,1.0956 0,1.1008 0.6963,1.6486 2.0837,1.6486 0.4915,0 0.9318,-0.0614 1.3209,-0.1843 0.3891,-0.128 0.727,-0.3174 1.0137,-0.5785 0.2816,-0.2612 0.512,-0.5837 0.6809,-0.9677 0.169,-0.384 0.256,-0.9523 0.256,-1.7049l0 -0.645z"/>
   <path id="_122664592123" class="fil2" d="M114.08 38.3123l1.7407 -0.2713c0.2099,1.4386 1.111,2.1605 2.6981,2.1605 1.5922,0 2.3858,-0.5529 2.3858,-1.6537 0,-0.3993 -0.1382,-0.6911 -0.4198,-0.8806 -0.2816,-0.1945 -0.9165,-0.4147 -1.9046,-0.6604 -0.6399,-0.1638 -1.2134,-0.3123 -1.7151,-0.4608 -0.5068,-0.1433 -0.9523,-0.3532 -1.3362,-0.6195 -0.384,-0.2713 -0.6758,-0.5836 -0.8653,-0.9369 -0.1894,-0.3584 -0.2816,-0.7577 -0.2816,-1.2082 0,-0.5223 0.128,-0.9984 0.3789,-1.4336 0.256,-0.4352 0.6707,-0.8038 1.239,-1.111 0.5683,-0.302 1.3055,-0.4556 2.2066,-0.4556 0.8294,0 1.5359,0.1024 2.1144,0.3123 0.5786,0.2099 1.0291,0.5222 1.3517,0.9369 0.3174,0.4198 0.5375,0.9728 0.6553,1.6742l-1.7202 0.2252c-0.1741,-1.1314 -0.9318,-1.6946 -2.2835,-1.6946 -1.5,0 -2.2475,0.4454 -2.2475,1.3362 0,0.2509 0.0716,0.4659 0.215,0.6451 0.1485,0.1792 0.3225,0.3072 0.5273,0.3891 0.2048,0.0819 0.7731,0.2509 1.6998,0.512 0.2406,0.0563 0.7833,0.2048 1.6281,0.4301 0.8447,0.2304 1.4847,0.5836 1.9199,1.0598 0.4352,0.4761 0.6553,1.0597 0.6553,1.7458 0,1.0239 -0.3993,1.8277 -1.2031,2.4165 -0.7987,0.5888 -1.7971,0.8857 -3.0002,0.8857 -2.5599,0 -4.0395,-1.1161 -4.4388,-3.3432z"/>
   <path id="_1226645921234" class="fil2" d="M124.099 38.3123l1.7407 -0.2713c0.2099,1.4386 1.111,2.1605 2.6981,2.1605 1.5922,0 2.3858,-0.5529 2.3858,-1.6537 0,-0.3993 -0.1382,-0.6911 -0.4198,-0.8806 -0.2816,-0.1945 -0.9165,-0.4147 -1.9046,-0.6604 -0.6399,-0.1638 -1.2134,-0.3123 -1.7151,-0.4608 -0.5068,-0.1433 -0.9523,-0.3532 -1.3362,-0.6195 -0.384,-0.2713 -0.6758,-0.5836 -0.8653,-0.9369 -0.1894,-0.3584 -0.2816,-0.7577 -0.2816,-1.2082 0,-0.5223 0.128,-0.9984 0.3789,-1.4336 0.256,-0.4352 0.6707,-0.8038 1.239,-1.111 0.5683,-0.302 1.3055,-0.4556 2.2066,-0.4556 0.8294,0 1.5359,0.1024 2.1144,0.3123 0.5786,0.2099 1.0291,0.5222 1.3517,0.9369 0.3174,0.4198 0.5375,0.9728 0.6553,1.6742l-1.7202 0.2252c-0.1741,-1.1314 -0.9318,-1.6946 -2.2835,-1.6946 -1.5,0 -2.2475,0.4454 -2.2475,1.3362 0,0.2509 0.0716,0.4659 0.215,0.6451 0.1485,0.1792 0.3225,0.3072 0.5273,0.3891 0.2048,0.0819 0.7731,0.2509 1.6998,0.512 0.2406,0.0563 0.7833,0.2048 1.6281,0.4301 0.8447,0.2304 1.4847,0.5836 1.9199,1.0598 0.4352,0.4761 0.6553,1.0597 0.6553,1.7458 0,1.0239 -0.3993,1.8277 -1.2031,2.4165 -0.7987,0.5888 -1.7971,0.8857 -3.0002,0.8857 -2.5599,0 -4.0395,-1.1161 -4.4388,-3.3432z"/>
   <path id="_12266459212345" class="fil2" d="M144.542 41.4149l-3.9576 -10.3931 1.8585 0 2.2373 6.2256c0.2355,0.6656 0.4556,1.367 0.6604,2.0991 0.1587,-0.5529 0.3789,-1.2134 0.6554,-1.9813l2.3141 -6.3434 1.8124 0 -3.9422 10.3931 -1.6383 0z"/>
   <path id="_122664592123456" class="fil2" d="M158.463 40.1247c-1.198,1.0189 -2.478,1.5308 -3.8398,1.5308 -1.0803,0 -1.9404,-0.2662 -2.5855,-0.8038 -0.6451,-0.5324 -0.9676,-1.2594 -0.9676,-2.181 0,-0.5324 0.1126,-1.0035 0.343,-1.4233 0.2304,-0.4198 0.6093,-0.7935 1.1417,-1.1212 0.5273,-0.3225 1.3977,-0.5632 2.606,-0.7116 1.454,-0.1792 2.5035,-0.3789 3.1537,-0.5991l0 -0.4659c0,-1.4079 -0.8345,-2.1144 -2.5086,-2.1144 -0.9062,0 -1.5462,0.1689 -1.9097,0.512 -0.3635,0.3379 -0.6349,0.8294 -0.8038,1.4693l-1.71 -0.2252c0.4505,-2.1401 2.0121,-3.2101 4.6794,-3.2101 0.7526,0 1.3926,0.0768 1.9302,0.2406 0.5324,0.1587 0.9676,0.3993 1.3055,0.7168 0.3328,0.3225 0.5478,0.6809 0.6502,1.0802 0.1024,0.3994 0.1485,1.0291 0.1485,1.8892l0 4.5771c0,0.2201 0.0461,0.5376 0.128,0.9574 0.087,0.4249 0.2304,0.814 0.4301,1.1724l-1.8483 0c-0.1792,-0.3686 -0.2918,-0.7987 -0.343,-1.2902zm-0.1485 -3.9319c-0.6195,0.2508 -1.582,0.471 -2.8824,0.6604 -1.0495,0.1536 -1.7253,0.3789 -2.0223,0.6758 -0.3021,0.3021 -0.4505,0.6656 -0.4505,1.0956 0,1.1008 0.6963,1.6486 2.0837,1.6486 0.4915,0 0.9318,-0.0614 1.3209,-0.1843 0.3891,-0.128 0.727,-0.3174 1.0137,-0.5785 0.2816,-0.2612 0.512,-0.5837 0.6809,-0.9677 0.169,-0.384 0.256,-0.9523 0.256,-1.7049l0 -0.645z"/>
   <polygon id="_1226645921234567" class="fil2" points="162.799,41.4149 162.799,27.0591 164.555,27.0591 164.555,41.4149 "/>
   <polygon id="_12266459212345678" class="fil2" points="167.253,41.4149 167.253,27.0591 169.01,27.0591 169.01,41.4149 "/>
   <path id="_122664592123456789" class="fil2" d="M178.86 38.0717l1.8175 0.2253c-0.599,2.2373 -2.1247,3.3585 -4.5771,3.3585 -1.0393,0 -1.925,-0.215 -2.6622,-0.6399 -0.7322,-0.425 -1.3005,-1.0342 -1.6947,-1.8278 -0.3942,-0.7936 -0.5888,-1.7561 -0.5888,-2.8875 0,-1.6895 0.4352,-3.0309 1.3005,-4.0293 0.8703,-0.9932 2.0581,-1.4898 3.5582,-1.4898 0.3277,0 0.6451,0.0256 0.942,0.0717 0.2918,0.0512 0.5734,0.1279 0.8397,0.2252 0.2713,0.1024 0.5222,0.2253 0.7526,0.3789 0.2406,0.1485 0.4607,0.3174 0.6604,0.5068 0.2099,0.21 0.3994,0.4403 0.5683,0.6912 0.1792,0.2611 0.3379,0.5376 0.4659,0.8243 0.1178,0.2918 0.2201,0.6041 0.3021,0.9471 0.0768,0.3277 0.1331,0.681 0.1638,1.0496 0.0102,0.1075 0.0154,0.5017 0.0154,1.1827l-7.7565 0c0.0615,1.0905 0.3687,1.9557 0.9318,2.5905 0.5581,0.6349 1.3004,0.9523 2.2169,0.9523 1.3209,0 2.2373,-0.7116 2.7442,-2.1298zm-5.7853 -2.8517l5.8006 0c-0.0768,-0.9983 -0.384,-1.7458 -0.9113,-2.2424 -0.5324,-0.4967 -1.1775,-0.7424 -1.9353,-0.7424 -0.5631,0 -1.0495,0.1229 -1.4693,0.3686 -0.4198,0.2458 -0.7629,0.5888 -1.0291,1.024 -0.2662,0.4403 -0.4198,0.9727 -0.4556,1.5922z"/>
   <path id="_12266459212345678910" class="fil2" d="M182.823 45.4185l-0.1946 -1.6485c0.3789,0.0973 0.7168,0.1485 1.0035,0.1485 0.4096,0 0.7475,-0.0768 1.0137,-0.2407 0.2663,-0.1587 0.4557,-0.3635 0.5683,-0.6143 0.1178,-0.2509 0.3123,-0.7629 0.5939,-1.5411l0.0461 -0.0921 -3.9473 -10.4085 1.8943 0 2.1554 6.0157c0.3225,0.896 0.5785,1.7049 0.7679,2.4114 0.1895,-0.7884 0.4301,-1.5769 0.7219,-2.3704l2.2169 -6.0567 1.7714 0 -3.9627 10.5723c-0.3788,1.0086 -0.6963,1.7765 -0.9574,2.3039 -0.2611,0.5222 -0.6041,0.942 -1.0342,1.2594 -0.43,0.3123 -0.9369,0.4711 -1.5154,0.4711 -0.343,0 -0.7219,-0.0666 -1.1417,-0.21z"/>
   <line id="_122035496" class="fil3 str0" x1="84.2396" y1="49.5437" x2="192.696" y2= "49.5437" />
   <path id="_121822208" class="fil2" d="M107.858 61.3393l2.7455 -7.1467 1.0184 0 2.9252 7.1467 -1.0782 0 -0.8337 -2.1648 -2.9884 0 -0.7837 2.1648 -1.0051 0zm2.0617 -2.9352l2.4243 0 -0.7471 -1.9784c-0.2263,-0.6007 -0.396,-1.0949 -0.5058,-1.4826 -0.0915,0.4592 -0.2197,0.9135 -0.3861,1.3661l-0.7853 2.0949z"/>
   <path id="_1218222081" class="fil2" d="M117.485 61.3393l0 -7.1467 2.6823 0c0.5457,0 0.9834,0.0732 1.3128,0.2163 0.3311,0.1448 0.5891,0.3678 0.7754,0.669 0.1864,0.2995 0.2812,0.614 0.2812,0.9434 0,0.3045 -0.0832,0.5924 -0.2496,0.8619 -0.1647,0.2696 -0.416,0.4876 -0.7504,0.654 0.4326,0.1264 0.7637,0.3427 0.9967,0.6473 0.233,0.3061 0.3494,0.6672 0.3494,1.0832 0,0.3344 -0.0715,0.6456 -0.213,0.9335 -0.1414,0.2878 -0.3161,0.5091 -0.5241,0.6655 -0.208,0.1564 -0.4692,0.2729 -0.7821,0.3528 -0.3128,0.0799 -0.6972,0.1198 -1.1531,0.1198l-2.7255 0zm0.9468 -4.1432l1.5458 0c0.4176,0 0.7188,-0.0283 0.9018,-0.0832 0.2396,-0.0716 0.421,-0.1897 0.5425,-0.3561 0.1214,-0.1664 0.183,-0.3744 0.183,-0.624 0,-0.2363 -0.0566,-0.4459 -0.1697,-0.6256 -0.1148,-0.1814 -0.2779,-0.3045 -0.4875,-0.3711 -0.2114,-0.0666 -0.5741,-0.0998 -1.0883,-0.0998l-1.4276 0 0 2.1598zm0 3.2996l1.7787 0c0.3062,0 0.5208,-0.0117 0.644,-0.0333 0.218,-0.0399 0.3993,-0.1048 0.5457,-0.1963 0.1465,-0.0899 0.2663,-0.223 0.3611,-0.3961 0.0932,-0.1747 0.1415,-0.3744 0.1415,-0.6023 0,-0.2662 -0.0683,-0.4975 -0.2047,-0.6955 -0.1364,-0.1964 -0.3261,-0.3345 -0.5691,-0.4144 -0.2412,-0.0782 -0.5907,-0.1181 -1.0449,-0.1181l-1.6523 0 0 2.456z"/>
   <polygon id="_12182220812" class="fil2" points="124.204,61.3393 124.204,54.1926 129.371,54.1926 129.371,55.0363 125.15,55.0363 125.15,57.2244 129.103,57.2244 129.103,58.063 125.15,58.063 125.15,60.4957 129.537,60.4957 129.537,61.3393 "/>
   <polygon id="_121822208123" class="fil2" points="130.804,61.3393 130.804,54.1926 131.75,54.1926 131.75,60.4957 135.27,60.4957 135.27,61.3393 "/>
   <path id="_1218222081234" class="fil2" d="M136.396 61.3393l0 -7.1467 2.461 0c0.5558,0 0.9801,0.035 1.2729,0.1032 0.4093,0.0932 0.7588,0.2646 1.0483,0.5108 0.3761,0.3195 0.6589,0.7255 0.8453,1.2214 0.188,0.4958 0.2812,1.0616 0.2812,1.6989 0,0.5424 -0.0632,1.0233 -0.1914,1.4426 -0.1264,0.4193 -0.2878,0.7671 -0.4875,1.0416 -0.198,0.2746 -0.4143,0.4909 -0.6506,0.6473 -0.2346,0.1581 -0.5192,0.2779 -0.8519,0.3594 -0.3345,0.0816 -0.7172,0.1215 -1.1482,0.1215l-2.5791 0zm0.9451 -0.8436l1.5259 0c0.4709,0 0.8419,-0.0433 1.1098,-0.1315 0.2679,-0.0882 0.4809,-0.2113 0.6407,-0.371 0.2246,-0.223 0.3993,-0.5258 0.5241,-0.9036 0.1248,-0.3793 0.188,-0.8369 0.188,-1.3777 0,-0.7471 -0.1231,-1.3212 -0.3677,-1.7222 -0.2463,-0.4027 -0.5441,-0.6706 -0.8952,-0.807 -0.2529,-0.0982 -0.6623,-0.1464 -1.223,-0.1464l-1.5026 0 0 5.4594z"/>
   <polygon id="_12182220812345" class="fil2" points="143.626,61.3393 143.626,54.1926 148.793,54.1926 148.793,55.0363 144.571,55.0363 144.571,57.2244 148.525,57.2244 148.525,58.063 144.571,58.063 144.571,60.4957 148.959,60.4957 148.959,61.3393 "/>
   <polygon id="_121822208123456" class="fil2" points="150.255,61.3393 150.255,54.1926 151.225,54.1926 154.979,59.8035 154.979,54.1926 155.886,54.1926 155.886,61.3393 154.916,61.3393 151.162,55.7235 151.162,61.3393 "/>
   <path id="_1218222081234567" class="fil2" d="M160.209 61.3393l0 -7.1467 2.6823 0c0.5457,0 0.9834,0.0732 1.3128,0.2163 0.3311,0.1448 0.5891,0.3678 0.7754,0.669 0.1864,0.2995 0.2812,0.614 0.2812,0.9434 0,0.3045 -0.0832,0.5924 -0.2496,0.8619 -0.1647,0.2696 -0.416,0.4876 -0.7504,0.654 0.4326,0.1264 0.7637,0.3427 0.9967,0.6473 0.233,0.3061 0.3494,0.6672 0.3494,1.0832 0,0.3344 -0.0715,0.6456 -0.213,0.9335 -0.1414,0.2878 -0.3161,0.5091 -0.5241,0.6655 -0.208,0.1564 -0.4692,0.2729 -0.7821,0.3528 -0.3128,0.0799 -0.6972,0.1198 -1.1531,0.1198l-2.7255 0zm0.9468 -4.1432l1.5458 0c0.4176,0 0.7188,-0.0283 0.9018,-0.0832 0.2396,-0.0716 0.421,-0.1897 0.5425,-0.3561 0.1214,-0.1664 0.183,-0.3744 0.183,-0.624 0,-0.2363 -0.0566,-0.4459 -0.1697,-0.6256 -0.1148,-0.1814 -0.2779,-0.3045 -0.4875,-0.3711 -0.2114,-0.0666 -0.5741,-0.0998 -1.0883,-0.0998l-1.4276 0 0 2.1598zm0 3.2996l1.7787 0c0.3062,0 0.5208,-0.0117 0.644,-0.0333 0.218,-0.0399 0.3993,-0.1048 0.5457,-0.1963 0.1465,-0.0899 0.2663,-0.223 0.3611,-0.3961 0.0932,-0.1747 0.1415,-0.3744 0.1415,-0.6023 0,-0.2662 -0.0683,-0.4975 -0.2047,-0.6955 -0.1364,-0.1964 -0.3261,-0.3345 -0.5691,-0.4144 -0.2412,-0.0782 -0.5907,-0.1181 -1.0449,-0.1181l-1.6523 0 0 2.456z"/>
   <path id="_12182220812345678" class="fil2" d="M166.923 61.3393l0 -7.1467 3.1681 0c0.6373,0 1.1215,0.0649 1.4527,0.1931 0.3311,0.1281 0.5957,0.3544 0.7953,0.6788 0.1981,0.3262 0.2962,0.6856 0.2962,1.0783 0,0.5075 -0.163,0.9335 -0.4925,1.2812 -0.3278,0.3478 -0.8353,0.5691 -1.5209,0.6639 0.2513,0.1198 0.441,0.238 0.5708,0.3561 0.2762,0.2529 0.5374,0.5708 0.7854,0.9501l1.2429 1.9452 -1.1897 0 -0.9451 -1.4876c-0.2762,-0.4276 -0.5042,-0.7571 -0.6839,-0.9834 -0.178,-0.2279 -0.3378,-0.3877 -0.4792,-0.4775 -0.1414,-0.0915 -0.2845,-0.1548 -0.431,-0.1914 -0.1081,-0.0216 -0.2828,-0.0333 -0.5274,-0.0333l-1.0966 0 0 3.1732 -0.9451 0zm0.9451 -3.9918l2.0334 0c0.4309,0 0.7704,-0.0449 1.0133,-0.1348 0.2446,-0.0898 0.4293,-0.2329 0.5558,-0.4293 0.1264,-0.1963 0.1897,-0.4093 0.1897,-0.6406 0,-0.3378 -0.1215,-0.6157 -0.3678,-0.8337 -0.2446,-0.2179 -0.6323,-0.3261 -1.1631,-0.3261l-2.2613 0 0 2.3645z"/>
   <path id="_121822208123456789" class="fil2" d="M173.332 61.3393l2.7455 -7.1467 1.0184 0 2.9252 7.1467 -1.0782 0 -0.8337 -2.1648 -2.9884 0 -0.7837 2.1648 -1.0051 0zm2.0617 -2.9352l2.4243 0 -0.7471 -1.9784c-0.2263,-0.6007 -0.396,-1.0949 -0.5058,-1.4826 -0.0915,0.4592 -0.2197,0.9135 -0.3861,1.3661l-0.7853 2.0949z"/>
   <polygon id="_12182220812345678910" class="fil2" points="180.767,61.3393 180.767,54.1926 181.737,54.1926 185.491,59.8035 185.491,54.1926 186.398,54.1926 186.398,61.3393 185.428,61.3393 181.674,55.7235 181.674,61.3393 "/>
   <path id="_1218222081234567891011" class="fil2" d="M187.987 61.3393l0 -7.1467 2.461 0c0.5558,0 0.9801,0.035 1.2729,0.1032 0.4093,0.0932 0.7588,0.2646 1.0483,0.5108 0.3761,0.3195 0.6589,0.7255 0.8453,1.2214 0.188,0.4958 0.2812,1.0616 0.2812,1.6989 0,0.5424 -0.0632,1.0233 -0.1914,1.4426 -0.1264,0.4193 -0.2878,0.7671 -0.4875,1.0416 -0.198,0.2746 -0.4143,0.4909 -0.6506,0.6473 -0.2346,0.1581 -0.5192,0.2779 -0.8519,0.3594 -0.3345,0.0816 -0.7172,0.1215 -1.1482,0.1215l-2.5791 0zm0.9451 -0.8436l1.5259 0c0.4709,0 0.8419,-0.0433 1.1098,-0.1315 0.2679,-0.0882 0.4809,-0.2113 0.6407,-0.371 0.2246,-0.223 0.3993,-0.5258 0.5241,-0.9036 0.1248,-0.3793 0.188,-0.8369 0.188,-1.3777 0,-0.7471 -0.1231,-1.3212 -0.3677,-1.7222 -0.2463,-0.4027 -0.5441,-0.6706 -0.8952,-0.807 -0.2529,-0.0982 -0.6623,-0.1464 -1.223,-0.1464l-1.5026 0 0 5.4594z"/>
  </g>
 </g>
</svg>
