<?xml version="1.0" encoding="UTF-8"?>
<!DOCTYPE svg PUBLIC "-//W3C//DTD SVG 1.1//EN" "http://www.w3.org/Graphics/SVG/1.1/DTD/svg11.dtd">
<svg version="1.2" width="146.88mm" height="112.95mm" viewBox="1576 3309 14688 11295" preserveAspectRatio="xMidYMid" fill-rule="evenodd" stroke-width="28.222" stroke-linejoin="round" xmlns="http://www.w3.org/2000/svg" xmlns:ooo="http://xml.openoffice.org/svg/export" xmlns:xlink="http://www.w3.org/1999/xlink" xmlns:presentation="http://sun.com/xmlns/staroffice/presentation" xmlns:smil="http://www.w3.org/2001/SMIL20/" xmlns:anim="urn:oasis:names:tc:opendocument:xmlns:animation:1.0" xml:space="preserve">
 <defs class="ClipPathGroup">
  <clipPath id="presentation_clip_path" clipPathUnits="userSpaceOnUse">
   <rect x="1576" y="3309" width="14688" height="11295"/>
  </clipPath>
  <clipPath id="presentation_clip_path_shrink" clipPathUnits="userSpaceOnUse">
   <rect x="1590" y="3320" width="14659" height="11273"/>
  </clipPath>
 </defs>
 <defs class="TextShapeIndex">
  <g ooo:slide="id1" ooo:id-list="id3 id4 id5 id6 id7 id8 id9 id10 id11 id12 id13 id14 id15"/>
 </defs>
 <defs class="EmbeddedBulletChars">
  <g id="bullet-char-template-57356" transform="scale(0.00048828125,-0.00048828125)">
   <path d="M 580,1141 L 1163,571 580,0 -4,571 580,1141 Z"/>
  </g>
  <g id="bullet-char-template-57354" transform="scale(0.00048828125,-0.00048828125)">
   <path d="M 8,1128 L 1137,1128 1137,0 8,0 8,1128 Z"/>
  </g>
  <g id="bullet-char-template-10146" transform="scale(0.00048828125,-0.00048828125)">
   <path d="M 174,0 L 602,739 174,1481 1456,739 174,0 Z M 1358,739 L 309,1346 659,739 1358,739 Z"/>
  </g>
  <g id="bullet-char-template-10132" transform="scale(0.00048828125,-0.00048828125)">
   <path d="M 2015,739 L 1276,0 717,0 1260,543 174,543 174,936 1260,936 717,1481 1274,1481 2015,739 Z"/>
  </g>
  <g id="bullet-char-template-10007" transform="scale(0.00048828125,-0.00048828125)">
   <path d="M 0,-2 C -7,14 -16,27 -25,37 L 356,567 C 262,823 215,952 215,954 215,979 228,992 255,992 264,992 276,990 289,987 310,991 331,999 354,1012 L 381,999 492,748 772,1049 836,1024 860,1049 C 881,1039 901,1025 922,1006 886,937 835,863 770,784 769,783 710,716 594,584 L 774,223 C 774,196 753,168 711,139 L 727,119 C 717,90 699,76 672,76 641,76 570,178 457,381 L 164,-76 C 142,-110 111,-127 72,-127 30,-127 9,-110 8,-76 1,-67 -2,-52 -2,-32 -2,-23 -1,-13 0,-2 Z"/>
  </g>
  <g id="bullet-char-template-10004" transform="scale(0.00048828125,-0.00048828125)">
   <path d="M 285,-33 C 182,-33 111,30 74,156 52,228 41,333 41,471 41,549 55,616 82,672 116,743 169,778 240,778 293,778 328,747 346,684 L 369,508 C 377,444 397,411 428,410 L 1163,1116 C 1174,1127 1196,1133 1229,1133 1271,1133 1292,1118 1292,1087 L 1292,965 C 1292,929 1282,901 1262,881 L 442,47 C 390,-6 338,-33 285,-33 Z"/>
  </g>
  <g id="bullet-char-template-9679" transform="scale(0.00048828125,-0.00048828125)">
   <path d="M 813,0 C 632,0 489,54 383,161 276,268 223,411 223,592 223,773 276,916 383,1023 489,1130 632,1184 813,1184 992,1184 1136,1130 1245,1023 1353,916 1407,772 1407,592 1407,412 1353,268 1245,161 1136,54 992,0 813,0 Z"/>
  </g>
  <g id="bullet-char-template-8226" transform="scale(0.00048828125,-0.00048828125)">
   <path d="M 346,457 C 273,457 209,483 155,535 101,586 74,649 74,723 74,796 101,859 155,911 209,963 273,989 346,989 419,989 480,963 531,910 582,859 608,796 608,723 608,648 583,586 532,535 482,483 420,457 346,457 Z"/>
  </g>
  <g id="bullet-char-template-8211" transform="scale(0.00048828125,-0.00048828125)">
   <path d="M -4,459 L 1135,459 1135,606 -4,606 -4,459 Z"/>
  </g>
  <g id="bullet-char-template-61548" transform="scale(0.00048828125,-0.00048828125)">
   <path d="M 173,740 C 173,903 231,1043 346,1159 462,1274 601,1332 765,1332 928,1332 1067,1274 1183,1159 1299,1043 1357,903 1357,740 1357,577 1299,437 1183,322 1067,206 928,148 765,148 601,148 462,206 346,322 231,437 173,577 173,740 Z"/>
  </g>
 </defs>
 <defs class="TextEmbeddedBitmaps"/>
 <g class="SlideGroup">
  <g>
   <g id="container-id1">
    <g id="id1" class="Slide" clip-path="url(#presentation_clip_path)">
     <g class="Page">
      <g class="com.sun.star.drawing.ClosedBezierShape">
       <g id="id3">
        <rect class="BoundingBox" stroke="none" fill="none" x="1576" y="12622" width="1527" height="1983"/>
        <path fill="rgb(35,31,32)" stroke="none" d="M 2331,12784 C 1990,12784 1770,12982 1770,13317 1770,13715 2019,13865 2347,13865 2667,13865 2913,13663 2913,13317 2913,13032 2717,12784 2331,12784 Z M 2908,12664 L 3102,12664 3102,13975 C 3102,14478 2695,14604 2337,14604 1715,14604 1654,14307 1639,14161 L 1817,14161 C 1846,14307 1885,14457 2345,14457 2701,14457 2908,14289 2908,13961 L 2908,13718 2903,13718 C 2829,13857 2651,14027 2300,14027 1953,14027 1576,13849 1576,13317 1576,12955 1807,12622 2321,12622 2586,12622 2811,12721 2903,12929 L 2908,12929 2908,12664 Z"/>
       </g>
      </g>
      <g class="com.sun.star.drawing.ClosedBezierShape">
       <g id="id4">
        <rect class="BoundingBox" stroke="none" fill="none" x="3341" y="12622" width="839" height="1406"/>
        <path fill="rgb(35,31,32)" stroke="none" d="M 3342,12664 L 3536,12664 3536,12975 3541,12975 C 3612,12813 3740,12622 4064,12622 4119,12622 4150,12627 4179,12632 L 4179,12831 C 4119,12821 4061,12816 4001,12816 3791,12816 3536,12944 3536,13332 L 3536,14027 3342,14027 3342,12664 Z"/>
       </g>
      </g>
      <g class="com.sun.star.drawing.ClosedBezierShape">
       <g id="id5">
        <rect class="BoundingBox" stroke="none" fill="none" x="4196" y="12622" width="1546" height="1448"/>
        <path fill="rgb(35,31,32)" stroke="none" d="M 5352,13293 C 5265,13348 5134,13358 4747,13395 4521,13416 4390,13484 4390,13646 4390,13860 4573,13922 4783,13922 5045,13922 5352,13781 5352,13499 L 5352,13293 Z M 4256,13083 C 4285,12797 4440,12622 4906,12622 5362,12622 5531,12763 5531,13025 L 5531,13739 C 5531,13852 5563,13891 5638,13891 5672,13891 5706,13888 5740,13886 L 5740,14017 C 5701,14025 5641,14037 5578,14037 5381,14037 5370,13904 5368,13797 L 5362,13797 C 5302,13886 5171,14069 4725,14069 4492,14069 4196,13967 4196,13659 4196,13290 4576,13248 4875,13232 5299,13209 5352,13185 5352,13052 5352,12855 5220,12784 4901,12784 4594,12784 4448,12866 4434,13083 L 4256,13083 Z"/>
       </g>
      </g>
      <g class="com.sun.star.drawing.ClosedBezierShape">
       <g id="id6">
        <rect class="BoundingBox" stroke="none" fill="none" x="5816" y="12622" width="1339" height="1448"/>
        <path fill="rgb(35,31,32)" stroke="none" d="M 6921,13067 C 6871,12847 6735,12784 6452,12784 6247,12784 6059,12829 6059,13018 6059,13159 6150,13188 6564,13243 6981,13298 7154,13371 7154,13636 7154,13907 6934,14069 6506,14069 6074,14069 5816,13928 5816,13599 L 5995,13599 C 6030,13828 6158,13907 6506,13907 6777,13907 6960,13852 6960,13646 6960,13510 6863,13450 6438,13407 6014,13366 5864,13266 5864,13025 5864,12790 6056,12622 6452,12622 6894,12622 7075,12782 7099,13067 L 6921,13067 Z"/>
       </g>
      </g>
      <g class="com.sun.star.drawing.ClosedBezierShape">
       <g id="id7">
        <rect class="BoundingBox" stroke="none" fill="none" x="7311" y="12622" width="1338" height="1448"/>
        <path fill="rgb(35,31,32)" stroke="none" d="M 8415,13067 C 8366,12847 8229,12784 7946,12784 7742,12784 7553,12829 7553,13018 7553,13159 7645,13188 8059,13243 8476,13298 8648,13371 8648,13636 8648,13907 8428,14069 8001,14069 7569,14069 7311,13928 7311,13599 L 7490,13599 C 7524,13828 7653,13907 8001,13907 8271,13907 8454,13852 8454,13646 8454,13510 8358,13450 7933,13407 7509,13366 7359,13266 7359,13025 7359,12790 7551,12622 7946,12622 8389,12622 8570,12782 8593,13067 L 8415,13067 Z"/>
       </g>
      </g>
      <g class="com.sun.star.drawing.PolyPolygonShape">
       <g id="id8">
        <rect class="BoundingBox" stroke="none" fill="none" x="9111" y="12664" width="1491" height="1364"/>
        <path fill="rgb(35,31,32)" stroke="none" d="M 10391,12664 L 10601,12664 9961,14027 9752,14027 9111,12664 9321,12664 9857,13804 10391,12664 Z"/>
       </g>
      </g>
      <g class="com.sun.star.drawing.ClosedBezierShape">
       <g id="id9">
        <rect class="BoundingBox" stroke="none" fill="none" x="10596" y="12622" width="1546" height="1448"/>
        <path fill="rgb(35,31,32)" stroke="none" d="M 11752,13293 C 11666,13348 11534,13358 11146,13395 10921,13416 10789,13484 10789,13646 10789,13860 10973,13922 11183,13922 11445,13922 11752,13781 11752,13499 L 11752,13293 Z M 10656,13083 C 10685,12797 10839,12622 11306,12622 11763,12622 11930,12763 11930,13025 L 11930,13739 C 11930,13852 11962,13891 12038,13891 12072,13891 12106,13888 12141,13886 L 12141,14017 C 12101,14025 12041,14037 11978,14037 11781,14037 11771,13904 11768,13797 L 11763,13797 C 11702,13886 11570,14069 11125,14069 10892,14069 10596,13967 10596,13659 10596,13290 10976,13248 11274,13232 11700,13209 11752,13185 11752,13052 11752,12855 11621,12784 11301,12784 10994,12784 10847,12866 10834,13083 L 10656,13083 Z"/>
       </g>
      </g>
      <g class="com.sun.star.drawing.PolyPolygonShape">
       <g id="id10">
        <rect class="BoundingBox" stroke="none" fill="none" x="12300" y="12140" width="196" height="1889"/>
        <path fill="rgb(35,31,32)" stroke="none" d="M 12300,12140 L 12495,12140 12495,14027 12300,14027 12300,12140 Z"/>
       </g>
      </g>
      <g class="com.sun.star.drawing.PolyPolygonShape">
       <g id="id11">
        <rect class="BoundingBox" stroke="none" fill="none" x="12910" y="12140" width="196" height="1889"/>
        <path fill="rgb(35,31,32)" stroke="none" d="M 12910,12140 L 13105,12140 13105,14027 12910,14027 12910,12140 Z"/>
       </g>
      </g>
      <g class="com.sun.star.drawing.ClosedBezierShape">
       <g id="id12">
        <rect class="BoundingBox" stroke="none" fill="none" x="13284" y="12622" width="1511" height="1448"/>
        <path fill="rgb(35,31,32)" stroke="none" d="M 14600,13246 C 14545,12910 14298,12784 14039,12784 13789,12784 13522,12913 13477,13246 L 14600,13246 Z M 14760,13591 C 14682,13833 14477,14069 14026,14069 13467,14069 13284,13677 13284,13345 13284,12965 13517,12622 14026,12622 14377,12622 14794,12774 14794,13392 L 13477,13392 C 13477,13675 13679,13907 14026,13907 14351,13907 14498,13799 14566,13591 L 14760,13591 Z"/>
       </g>
      </g>
      <g class="com.sun.star.drawing.ClosedBezierShape">
       <g id="id13">
        <rect class="BoundingBox" stroke="none" fill="none" x="14774" y="12664" width="1491" height="1894"/>
        <path fill="rgb(35,31,32)" stroke="none" d="M 16264,12664 L 15524,14281 C 15424,14496 15340,14557 15126,14557 15065,14557 14997,14557 14939,14551 L 14939,14389 C 14981,14391 15026,14394 15078,14394 15217,14394 15286,14363 15349,14226 L 15437,14036 14774,12664 14984,12664 15539,13798 16054,12664 16264,12664 Z"/>
       </g>
      </g>
      <g class="com.sun.star.drawing.ClosedBezierShape">
       <g id="id14">
        <rect class="BoundingBox" stroke="none" fill="none" x="1708" y="3308" width="14455" height="7340"/>
        <path fill="rgb(96,16,105)" stroke="none" d="M 16161,4901 C 15676,4971 15124,5144 14783,5269 14783,5269 14755,5028 14731,4950 14202,3261 10875,2801 7299,3922 3722,5042 1252,7319 1780,9006 2309,10694 5636,11155 9213,10034 12405,9034 14714,7114 14797,5513 15258,5273 15718,5087 16161,4969 L 16161,4901 Z"/>
       </g>
      </g>
      <g class="com.sun.star.drawing.ClosedBezierShape">
       <g id="id15">
        <rect class="BoundingBox" stroke="none" fill="none" x="3577" y="4785" width="12586" height="4690"/>
        <path fill="rgb(255,255,255)" stroke="none" d="M 9342,8186 L 8282,6634 6409,6634 C 6409,6634 6170,7472 6171,7471 6553,7192 7331,7193 7331,7193 L 7815,7193 C 7815,7193 8010,7413 7943,7680 7874,7959 7672,8326 7161,8567 6288,8979 4838,8905 4458,7884 4247,7320 4373,6298 5472,5655 7440,4504 8765,5638 8765,5638 L 8987,4881 C 8987,4881 8541,4797 7909,4785 L 7625,4785 C 6844,4800 5867,4942 5092,5448 3202,6679 3614,8017 3618,8036 3863,9165 5683,9935 7401,8979 8098,8591 8403,8014 8403,8014 L 9372,9474 C 10362,7886 13138,5427 16162,4900 L 16162,4834 C 13012,5201 10645,6707 9342,8186 Z"/>
       </g>
      </g>
     </g>
    </g>
   </g>
  </g>
 </g>
</svg>