<?xml version="1.0" encoding="UTF-8"?>
<svg id="Layer_1" data-name="Layer 1" xmlns="http://www.w3.org/2000/svg" viewBox="0 0 464.02 997.22">
  <defs>
    <style>
      .cls-1 {
        fill: #449dd7;
      }

      .cls-2 {
        fill: #3192d0;
      }

      .cls-3 {
        fill: #76beea;
      }

      .cls-4 {
        fill: #2581c4;
      }

      .cls-5 {
        fill: #0a3a5a;
      }

      .cls-6 {
        fill: #c9e1f6;
      }

      .cls-7 {
        fill: #a2d3f3;
      }

      .cls-8 {
        fill: #85c9f0;
      }

      .cls-9 {
        fill: #1d71b8;
      }

      .cls-10 {
        fill: #b0d8f4;
      }

      .cls-11 {
        fill: #d4e5f7;
      }

      .cls-12 {
        fill: #56a8dd;
      }

      .cls-13 {
        fill: #bcdcf5;
      }

      .cls-14 {
        fill: #1d1d1b;
        font-family: MyriadPro-Regular, 'Myriad Pro';
        font-size: 12px;
      }

      .cls-15 {
        fill: #66b2e4;
      }
    </style>
  </defs>
  <text class="cls-14" transform="translate(188.69 10.04)"><tspan x="0" y="0">C</tspan></text>
  <g>
    <polygon class="cls-5" points="77.9 875.94 77.9 885.44 96.92 885.44 96.92 945.07 107.49 945.07 107.49 885.44 126.52 885.44 126.52 875.94 77.9 875.94"/>
    <path class="cls-5" d="M169.48,913.62c7.29-2.55,12.12-9.57,12.12-17.85,0-6.11-2.84-11.9-7.56-15.5-5-3.8-10.83-4.32-15.88-4.32h-26.17v69.13h10.56v-28.99h16.75l12.39,28.99h11.13l-13.34-31.46Zm-26.93-28.27h15.61c3.54,0,6.05,.13,8.67,1.96,2.78,1.86,4.21,4.68,4.21,8.38,0,3.17-1.1,6.02-3.11,8.03-3.04,3.13-6.52,3.37-10.74,3.37h-14.63v-21.73Z"/>
    <path class="cls-5" d="M222.19,875.94h-11.24l-22.37,69.13h9.32l5.97-19.52h23.21l6.73,19.52h10.86l-22.47-69.13Zm2.32,41.1h-17.61l8.85-27.48,8.76,27.48Z"/>
    <path class="cls-5" d="M294.71,920.15l-.25,1.03c-2.54,10.4-7.97,15.67-16.12,15.67-5.91,0-11-3.69-13.95-10.12-1.89-4.11-3.02-10.19-3.02-16.23,0-4.4,.85-26.34,17.37-26.34,7.82,0,12.58,4.63,15.45,15.01l.27,.96,9.98-1.85-.24-1.1c-3.14-14.12-12.32-22.22-25.16-22.22-21.41,0-29.01,18.77-29.01,34.85,0,18.03,8.76,36.22,28.32,36.22,13.26,0,22.19-7.85,25.84-22.69l.26-1.08-9.73-2.13Z"/>
    <polygon class="cls-5" points="386.75 875.94 386.75 927.57 356.75 875.94 344.49 875.94 344.49 945.07 353.69 945.07 353.69 889.64 386.05 945.07 395.95 945.07 395.95 875.94 386.75 875.94"/>
    <path class="cls-5" d="M436.57,909.13v9.2h16.68v2.63c0,9.77-6.17,16.09-15.7,16.09-5.97,0-11.74-3.53-14.66-8.99-2.34-4.43-3.68-10.72-3.68-17.26s1.32-26.63,18.24-26.63c8.01,0,14.22,5.21,15.82,13.28l.22,1.11,10.08-2.49-.27-1.06c-3.37-12.91-12.34-20.03-25.25-20.03-20.78,0-30.08,18.19-30.08,36.22,0,9.54,2.36,17.42,7.24,24.07,5.54,7.36,12.46,10.78,21.75,10.78,7.58,0,13.92-2.63,18.08-7.48l1.89,6.99h7.09v-36.44h-27.45Z"/>
    <rect class="cls-5" x="2.63" y="875.9" width="10.56" height="69.13"/>
    <rect class="cls-5" x="40.03" y="916.41" width="22.96" height="8.23"/>
    <rect class="cls-5" x="319.65" y="875.81" width="10.56" height="69.13"/>
    <path class="cls-9" d="M0,861.16c0,4.27,3.47,7.73,7.75,7.73s7.74-3.47,7.74-7.73-3.46-7.74-7.74-7.74-7.75,3.47-7.75,7.74Z"/>
    <path class="cls-4" d="M32.16,853.42c-4.27,0-7.74,3.47-7.74,7.74s3.47,7.73,7.74,7.73,7.74-3.47,7.74-7.73-3.46-7.74-7.74-7.74Z"/>
    <path class="cls-2" d="M56.59,853.42c-4.27,0-7.74,3.47-7.74,7.74s3.47,7.73,7.74,7.73,7.74-3.47,7.74-7.73-3.46-7.74-7.74-7.74Z"/>
    <path class="cls-1" d="M81.01,853.42c-4.27,0-7.74,3.47-7.74,7.74s3.47,7.73,7.74,7.73,7.74-3.47,7.74-7.73-3.46-7.74-7.74-7.74Z"/>
    <path class="cls-12" d="M105.43,853.42c-4.27,0-7.74,3.47-7.74,7.74s3.47,7.73,7.74,7.73,7.74-3.47,7.74-7.73-3.46-7.74-7.74-7.74Z"/>
    <path class="cls-15" d="M129.85,853.42c-4.27,0-7.74,3.47-7.74,7.74s3.47,7.73,7.74,7.73,7.74-3.47,7.74-7.73-3.47-7.74-7.74-7.74Z"/>
    <path class="cls-3" d="M154.27,853.42c-4.27,0-7.74,3.47-7.74,7.74s3.46,7.73,7.74,7.73,7.74-3.47,7.74-7.73-3.46-7.74-7.74-7.74Z"/>
    <path class="cls-8" d="M178.69,853.42c-4.27,0-7.74,3.47-7.74,7.74s3.46,7.73,7.74,7.73,7.74-3.47,7.74-7.73-3.48-7.74-7.74-7.74Z"/>
    <path class="cls-7" d="M203.11,853.42c-4.27,0-7.74,3.47-7.74,7.74s3.47,7.73,7.74,7.73,7.74-3.47,7.74-7.73-3.48-7.74-7.74-7.74Z"/>
    <path class="cls-10" d="M227.53,853.42c-4.27,0-7.74,3.47-7.74,7.74s3.48,7.73,7.74,7.73,7.74-3.47,7.74-7.73-3.47-7.74-7.74-7.74Z"/>
    <path class="cls-13" d="M251.95,853.42c-4.27,0-7.74,3.47-7.74,7.74s3.47,7.73,7.74,7.73,7.74-3.47,7.74-7.73-3.47-7.74-7.74-7.74Z"/>
    <path class="cls-6" d="M276.37,853.42c-4.28,0-7.74,3.47-7.74,7.74s3.46,7.73,7.74,7.73,7.74-3.47,7.74-7.73-3.46-7.74-7.74-7.74Z"/>
    <path class="cls-11" d="M300.8,853.42c-4.27,0-7.74,3.47-7.74,7.74s3.47,7.73,7.74,7.73,7.74-3.47,7.74-7.73-3.48-7.74-7.74-7.74Z"/>
    <path class="cls-9" d="M317.47,861.16c0,4.27,3.48,7.73,7.74,7.73s7.74-3.47,7.74-7.73-3.47-7.74-7.74-7.74-7.74,3.47-7.74,7.74Z"/>
    <g>
      <path class="cls-5" d="M184.27,988.32c-2.02,4.79-7.44,8.91-14.29,8.91-9.2,0-16.22-7.1-16.22-16.09s6.85-16.09,16.18-16.09c7.69,0,12.52,5.13,14.33,9.08h-3.74c-1.05-1.85-4.58-6.01-10.59-6.01-7.27,0-12.73,5.76-12.73,12.98s5.5,13.07,12.73,13.07c6.51,0,9.83-4.66,10.59-5.84h3.74Z"/>
      <path class="cls-5" d="M196.28,985.75l-10-20.17h3.78l7.98,16.81,7.94-16.81h3.78l-10,20.17v10.93h-3.49v-10.93Z"/>
      <path class="cls-5" d="M213.43,965.58h8.19c2.82,0,4.75,.5,6.14,1.47,2.52,1.43,3.36,4.03,3.36,6.47,0,3.66-2.06,5.5-4.16,6.6,5.59,1.72,5.97,6.47,5.97,7.9-.04,3.36-1.6,5.88-4.24,7.27-1.85,1.13-3.61,1.39-6.68,1.39h-8.57v-31.1Zm3.45,13.45h4.71c1.43,0,2.69-.17,3.66-.63,1.98-1.09,2.52-2.73,2.52-4.62,0-2.27-1.22-3.82-2.52-4.41-.8-.42-1.85-.67-3.87-.71h-4.5v10.38Zm0,14.58h5.63c1.26,0,2.65-.13,3.78-.59,1.85-.8,3.24-2.4,3.28-5.17,0-2.52-1.34-4.37-3.32-5.25-1.39-.59-2.44-.63-4.37-.63h-5v11.64Z"/>
      <path class="cls-5" d="M237.59,965.58h17.23v3.07h-13.78v10.8h13.7v3.07h-13.7v11.09h13.78v3.07h-17.23v-31.1Z"/>
      <path class="cls-5" d="M260.03,965.58h8.11c4.88,0,7.14,.59,8.74,1.6,2.52,1.51,4.24,4.83,4.24,8.36,.04,2.1-.55,4.33-1.85,6.09-1.85,2.52-4.08,3.11-6.93,3.4l7.73,11.64h-3.78l-8.78-13.57h1.01c2.19,0,5.21-.04,6.89-1.6,1.64-1.6,2.35-3.49,2.35-5.72s-1.13-4.75-3.07-6.01c-1.55-1.01-3.49-1.13-6.3-1.13h-4.87v28.03h-3.49v-31.1Z"/>
      <path class="cls-5" d="M286.96,988.02c.5,5.17,4.29,6.26,6.22,6.26,3.24,0,6.22-2.48,6.22-5.92,0-4.37-3.74-5.34-7.35-6.51-2.52-.76-7.94-2.35-7.94-8.24-.08-5.5,4.5-8.57,9.25-8.57,3.87,0,8.32,2.14,8.82,8.03h-3.45c-.38-2.02-1.39-5.08-5.51-5.08-3.11,0-5.67,2.1-5.67,5.34-.04,3.78,3.03,4.71,7.73,6.3,2.94,1.13,7.56,2.77,7.56,8.49,0,5.08-3.82,9.12-9.62,9.12-5.21,0-9.54-3.28-9.75-9.2h3.49Z"/>
      <path class="cls-5" d="M307.51,965.58h17.23v3.07h-13.78v10.8h13.7v3.07h-13.7v11.09h13.78v3.07h-17.23v-31.1Z"/>
      <path class="cls-5" d="M359.32,988.32c-2.02,4.79-7.44,8.91-14.29,8.91-9.2,0-16.22-7.1-16.22-16.09s6.85-16.09,16.18-16.09c7.69,0,12.52,5.13,14.33,9.08h-3.74c-1.05-1.85-4.58-6.01-10.59-6.01-7.27,0-12.73,5.76-12.73,12.98s5.5,13.07,12.73,13.07c6.51,0,9.83-4.66,10.59-5.84h3.74Z"/>
      <path class="cls-5" d="M367.31,965.58v19.71c0,2.35,0,4.16,1.47,6.26,1.09,1.55,3.15,2.61,5.42,2.61s4.29-1.01,5.34-2.56c1.47-2.06,1.47-3.87,1.47-6.3v-19.71h3.45v19.71c.04,3.61-.42,7.19-3.53,9.58-1.72,1.47-4.03,2.35-6.72,2.35-2.19,0-4.92-.63-6.85-2.35-3.28-2.65-3.53-6.18-3.53-9.58v-19.71h3.49Z"/>
      <path class="cls-5" d="M390.33,965.58h8.11c4.88,0,7.14,.59,8.74,1.6,2.52,1.51,4.24,4.83,4.24,8.36,.04,2.1-.55,4.33-1.85,6.09-1.85,2.52-4.08,3.11-6.93,3.4l7.73,11.64h-3.78l-8.78-13.57h1.01c2.19,0,5.21-.04,6.89-1.6,1.64-1.6,2.35-3.49,2.35-5.72s-1.13-4.75-3.07-6.01c-1.55-1.01-3.49-1.13-6.3-1.13h-4.87v28.03h-3.49v-31.1Z"/>
      <path class="cls-5" d="M415.29,965.58h3.45v31.1h-3.45v-31.1Z"/>
      <path class="cls-5" d="M429.83,968.65h-7.65v-3.07h18.83v3.07h-7.69v28.03h-3.49v-28.03Z"/>
      <path class="cls-5" d="M2.63,965.79H19.86v3.07H6.08v10.8h13.7v3.07H6.08v11.09h13.78v3.07H2.63v-31.1Z"/>
      <path class="cls-5" d="M33.3,980.84l-10-15.04h3.99l8.03,12.4,8.03-12.4h3.95l-9.96,15.09,10.72,16.01h-3.99l-8.87-13.49-8.7,13.49h-3.87l10.67-16.05Z"/>
      <path class="cls-5" d="M59.44,965.79c4.37,0,6.43,.5,8.36,1.97,2.06,1.6,3.32,4.5,3.32,7.4s-1.3,5.92-3.19,7.4c-2.06,1.6-4.16,2.1-8.19,2.1h-5v12.23h-3.49v-31.1h8.19Zm-4.71,15.8h4.96c2.61,0,4.2-.29,5.76-1.3,1.34-.88,2.31-2.86,2.31-5.04s-.97-4.2-2.35-5.08c-1.56-1.01-3.15-1.3-5.8-1.3h-4.87v12.73Z"/>
      <path class="cls-5" d="M74.73,965.79h17.23v3.07h-13.78v10.8h13.7v3.07h-13.7v11.09h13.78v3.07h-17.23v-31.1Z"/>
      <path class="cls-5" d="M97.17,965.79h8.11c4.88,0,7.14,.59,8.74,1.6,2.52,1.51,4.24,4.83,4.24,8.36,.04,2.1-.55,4.33-1.85,6.09-1.85,2.52-4.08,3.11-6.93,3.4l7.73,11.64h-3.78l-8.78-13.57h1.01c2.19,0,5.21-.04,6.89-1.6,1.64-1.6,2.35-3.49,2.35-5.72s-1.13-4.75-3.07-6.01c-1.55-1.01-3.49-1.13-6.3-1.13h-4.87v28.03h-3.49v-31.1Z"/>
      <path class="cls-5" d="M126.97,968.86h-7.65v-3.07h18.83v3.07h-7.69v28.03h-3.49v-28.03Z"/>
      <path class="cls-5" d="M446.09,965.64h17.23v3.07h-13.78v10.8h13.7v3.07h-13.7v11.09h13.78v3.07h-17.23v-31.1Z"/>
      <path class="cls-5" d="M461.39,953.29l1.04,3.29-14.4,4.56-1.04-3.29,14.4-4.56Z"/>
      <path class="cls-5" d="M322.81,953.29l1.04,3.29-14.4,4.56-1.04-3.29,14.4-4.56Z"/>
    </g>
  </g>
</svg>