<?xml version="1.0" encoding="utf-8"?>
<!-- Generator: Adobe Illustrator 19.0.0, SVG Export Plug-In . SVG Version: 6.00 Build 0)  -->
<svg version="1.1" id="Layer_1" xmlns="http://www.w3.org/2000/svg" xmlns:xlink="http://www.w3.org/1999/xlink" x="0px" y="0px"
	 viewBox="0 0 428.8 92.8" style="enable-background:new 0 0 428.8 92.8;" xml:space="preserve">
<style type="text/css">
	.st0{fill:#414042;}
	.st1{fill:#EB0029;}
</style>
<g>
	<g>
		<g>
			<path class="st0" d="M0,0.9h20.4c12.3,0,20.4,6.5,20.4,17.3v0.2c0,11.7-9.8,17.8-21.4,17.8H6.1v19.2H0V0.9z M19.6,30.6
				c9,0,14.9-4.8,14.9-12v-0.2c0-7.8-5.8-11.8-14.6-11.8H6.1v24H19.6z"/>
			<path class="st0" d="M46.1,0.9h6.2l19.8,29.7L92,0.9h6.2v54.4h-6.1V11.3L72.2,40.4h-0.3L52.1,11.4v44h-6V0.9z"/>
		</g>
		<g>
			<path class="st0" d="M172,47.4l3.8-4.5c5.7,5.1,11.1,7.7,18.7,7.7c7.3,0,12.1-3.9,12.1-9.3v-0.2c0-5.1-2.7-7.9-14.2-10.3
				c-12.5-2.7-18.3-6.8-18.3-15.7V15c0-8.6,7.5-14.9,17.9-14.9c7.9,0,13.6,2.3,19.1,6.7l-3.6,4.7c-5.1-4.1-10.1-5.9-15.7-5.9
				c-7.1,0-11.6,3.9-11.6,8.8v0.2c0,5.1,2.8,8,14.8,10.6c12.1,2.6,17.7,7.1,17.7,15.4v0.2c0,9.3-7.8,15.4-18.6,15.4
				C185.6,56.1,178.5,53.3,172,47.4z"/>
			<path class="st0" d="M217.1,28.3v-0.2c0-15.4,11.5-28.2,27.5-28.2c9.9,0,15.8,3.5,21.2,8.6l-4.2,4.5c-4.6-4.4-9.7-7.5-17.1-7.5
				c-12.1,0-21.1,9.8-21.1,22.3v0.2c0,12.6,9.1,22.5,21.1,22.5c7.5,0,12.4-2.9,17.6-7.9l4,4c-5.7,5.8-11.9,9.6-21.8,9.6
				C228.7,56.3,217.1,43.9,217.1,28.3z"/>
			<path class="st0" d="M291.2,0.5h5.8l24.8,54.8h-6.6L308.8,41h-29.6l-6.5,14.4h-6.3L291.2,0.5z M306.4,35.5L294,7.7l-12.4,27.8
				H306.4z"/>
			<path class="st0" d="M326.7,0.9h18.9c17.1,0,28.9,11.7,28.9,27.1v0.2c0,15.3-11.8,27.2-28.9,27.2h-18.9V0.9z M345.5,49.7
				c13.8,0,22.6-9.3,22.6-21.4v-0.2c0-12.1-8.8-21.5-22.6-21.5h-12.8v43.1H345.5z"/>
			<path class="st0" d="M398.2,0.5h5.8l24.8,54.8h-6.6L415.8,41h-29.6l-6.5,14.4h-6.3L398.2,0.5z M413.4,35.5L401,7.7l-12.4,27.8
				H413.4z"/>
		</g>
		<polygon class="st0" points="137.3,1.2 124.2,23.9 150.4,23.9 		"/>
		<polygon class="st0" points="168.4,55 161.4,43 113.2,43 106.3,55 		"/>
		<polygon class="st1" points="152.3,27.2 122.3,27.2 115.1,39.7 159.5,39.7 		"/>
	</g>
	<g>
		<g>
			<path class="st1" d="M73,83.9L73,83.9c0-4.9,3.7-8.9,9-8.9c3.2,0,5.2,1.1,6.8,2.6l-2.4,2.8c-1.3-1.2-2.7-1.9-4.4-1.9
				c-2.9,0-5,2.4-5,5.3v0c0,2.9,2,5.4,5,5.4c2,0,3.2-0.8,4.5-2l2.4,2.4c-1.8,1.9-3.7,3.1-7,3.1C76.8,92.8,73,88.9,73,83.9z"/>
			<path class="st1" d="M101.4,85.7l-6.6-10.4h4.4l4.1,6.9l4.2-6.9h4.3l-6.6,10.3v6.8h-3.8V85.7z"/>
			<path class="st1" d="M119,75.3h8c2,0,3.5,0.5,4.5,1.5c0.8,0.8,1.2,1.7,1.2,2.9v0c0,1.9-1,3-2.3,3.7c2,0.8,3.2,1.9,3.2,4.2v0
				c0,3.1-2.6,4.7-6.4,4.7H119V75.3z M126.1,82.2c1.7,0,2.7-0.5,2.7-1.8v0c0-1.1-0.9-1.8-2.5-1.8h-3.7v3.6H126.1z M127.1,89.2
				c1.7,0,2.7-0.6,2.7-1.9v0c0-1.2-0.9-1.9-2.8-1.9h-4.4v3.8H127.1z"/>
			<path class="st1" d="M141.6,75.3h12.9v3.4h-9.2v3.5h8.1v3.4h-8.1v3.6h9.3v3.4h-13.1V75.3z"/>
			<path class="st1" d="M162.9,75.3h7.8c2.2,0,3.9,0.6,5,1.7c1,1,1.5,2.3,1.5,3.9v0c0,2.8-1.5,4.5-3.7,5.3l4.2,6.1h-4.4l-3.7-5.5h-3
				v5.5h-3.8V75.3z M170.5,83.6c1.8,0,2.9-1,2.9-2.4v0c0-1.6-1.1-2.5-3-2.5h-3.8v4.9H170.5z"/>
			<path class="st1" d="M184.3,90l2.2-2.7c1.5,1.3,3.2,2.1,5.1,2.1c1.5,0,2.5-0.6,2.5-1.6v0c0-1-0.6-1.4-3.5-2.2
				c-3.5-0.9-5.7-1.8-5.7-5.3v0c0-3.1,2.5-5.2,6-5.2c2.5,0,4.6,0.8,6.4,2.2l-2,2.8c-1.5-1.1-3-1.7-4.5-1.7c-1.4,0-2.2,0.7-2.2,1.5
				v0.1c0,1.1,0.7,1.5,3.7,2.3c3.5,0.9,5.4,2.2,5.4,5.1v0.1c0,3.4-2.6,5.3-6.3,5.3C189,92.7,186.4,91.8,184.3,90z"/>
			<path class="st1" d="M206.1,75.3h13v3.4h-9.2v3.5h8.1v3.4h-8.1v3.6h9.3v3.4h-13.1V75.3z M214.1,70.1l3.2,1.4l-3.3,2.5h-2.8
				L214.1,70.1z"/>
			<path class="st1" d="M226.7,83.9L226.7,83.9c0-4.9,3.7-8.9,9-8.9c3.2,0,5.2,1.1,6.8,2.6l-2.4,2.8c-1.3-1.2-2.7-1.9-4.4-1.9
				c-2.9,0-5,2.4-5,5.3v0c0,2.9,2,5.4,5,5.4c2,0,3.2-0.8,4.5-2l2.4,2.4c-1.8,1.9-3.7,3.1-7,3.1C230.4,92.8,226.7,88.9,226.7,83.9z"
				/>
			<path class="st1" d="M250.1,85.1v-9.8h3.8V85c0,2.8,1.4,4.2,3.7,4.2c2.3,0,3.7-1.4,3.7-4.1v-9.8h3.8V85c0,5.2-2.9,7.8-7.5,7.8
				C253,92.7,250.1,90.2,250.1,85.1z"/>
			<path class="st1" d="M273.8,75.3h7.8c2.2,0,3.9,0.6,5,1.7c1,1,1.5,2.3,1.5,3.9v0c0,2.8-1.5,4.5-3.7,5.3l4.2,6.1h-4.4l-3.7-5.5h-3
				v5.5h-3.8V75.3z M281.4,83.6c1.8,0,2.9-1,2.9-2.4v0c0-1.6-1.1-2.5-3-2.5h-3.8v4.9H281.4z"/>
			<path class="st1" d="M296.6,75.3h3.8v17.2h-3.8V75.3z"/>
			<path class="st1" d="M313.6,78.8h-5.2v-3.5h14.2v3.5h-5.2v13.7h-3.8V78.8z"/>
			<path class="st1" d="M330.4,75.3h13v3.4h-9.2v3.5h8.1v3.4h-8.1v3.6h9.3v3.4h-13.1V75.3z M338.3,70.1l3.2,1.4l-3.3,2.5h-2.8
				L338.3,70.1z"/>
		</g>
	</g>
</g>
</svg>
