<svg id="Calque_1" data-name="Calque 1" xmlns="http://www.w3.org/2000/svg" xmlns:xlink="http://www.w3.org/1999/xlink" viewBox="0 0 180.6 43"><defs><style>.cls-1{fill:none;}.cls-2{clip-path:url(#clip-path);}.cls-3{fill:#1d1d1b;}.cls-4{fill:#bd1622;}</style><clipPath id="clip-path"><rect class="cls-1" width="180.6" height="43"/></clipPath></defs><title>logo-techso</title><g class="cls-2"><path class="cls-3" d="M0,15.6a14.63,14.63,0,0,1,4.5-2V8.84a12.8,12.8,0,0,1,1.72-1.1,18.93,18.93,0,0,1,1.94-.93H9.57v7.37H18v2.93H9.57V33.35c0,2.24.35,3.83,1.07,4.76a3.79,3.79,0,0,0,3.21,1.4c.67,0,1.52,0,2.53-.14A9.91,9.91,0,0,0,19,38.83l.39.85a7,7,0,0,1-1.27,1.07,15.06,15.06,0,0,1-1.85,1.07,12.79,12.79,0,0,1-2.28.84,9.41,9.41,0,0,1-2.53.34,6.71,6.71,0,0,1-5.15-1.9Q4.49,39.19,4.5,34.93V17.11H0Z"/><path class="cls-3" d="M34.84,16a5.86,5.86,0,0,0-4.9,2.17q-1.68,2.18-2,7.63H40.3c0-.34.06-.67.08-1s0-.62,0-.93a10.67,10.67,0,0,0-1.35-5.74A4.65,4.65,0,0,0,34.84,16m10.3,22.41a5.76,5.76,0,0,1-1.41,1.8,10.32,10.32,0,0,1-2.19,1.46,13.16,13.16,0,0,1-2.71,1,11.93,11.93,0,0,1-3,.37A15.38,15.38,0,0,1,30,42a11,11,0,0,1-4.22-3,13.12,13.12,0,0,1-2.56-4.65,19.44,19.44,0,0,1-.88-6.08q0-7.2,3.32-11t9.4-3.77A14.65,14.65,0,0,1,39,14a9.09,9.09,0,0,1,3.4,1.78,8.9,8.9,0,0,1,2.42,3.29,12.35,12.35,0,0,1,.93,5.09c0,.64,0,1.29-.08,1.94a20,20,0,0,1-.31,2.11H27.75a15.69,15.69,0,0,0,.59,4.42,10.44,10.44,0,0,0,1.77,3.58,8.33,8.33,0,0,0,3,2.39,9.61,9.61,0,0,0,4.22.87,15.08,15.08,0,0,0,4-.56,7.62,7.62,0,0,0,3-1.47Z"/><path class="cls-3" d="M72.38,38.39a8.19,8.19,0,0,1-3.29,3.29A10.45,10.45,0,0,1,63.77,43,14.72,14.72,0,0,1,58,42a10.67,10.67,0,0,1-4.08-3,12.9,12.9,0,0,1-2.45-4.68,21.13,21.13,0,0,1-.82-6q0-7.14,3.49-10.94t9.51-3.8a23,23,0,0,1,4.93.48,15.59,15.59,0,0,1,3.69,1.26c-.12,1.24-.32,2.63-.62,4.17a18.19,18.19,0,0,1-1.13,3.83H69l-2.36-6.7a2.76,2.76,0,0,0-.9-.42A6.65,6.65,0,0,0,64.05,16a6.94,6.94,0,0,0-5.91,2.79q-2.09,2.79-2.08,9.43a14.57,14.57,0,0,0,.59,4.16A11,11,0,0,0,58.45,36a8.88,8.88,0,0,0,3,2.56,9,9,0,0,0,4.25,1A9.67,9.67,0,0,0,69.17,39a10.18,10.18,0,0,0,2.48-1.35Z"/><path class="cls-3" d="M106.65,42.32H94.5v-1.4a18.11,18.11,0,0,1,3.37-1.35V26.4a15.9,15.9,0,0,0-1.23-6.9A4.58,4.58,0,0,0,92.13,17a6.45,6.45,0,0,0-2.64.53,8.71,8.71,0,0,0-2.14,1.38,8.45,8.45,0,0,0-1.63,1.94,9.27,9.27,0,0,0-1,2.28V39.57c.6.15,1.18.32,1.72.5a6.2,6.2,0,0,1,1.6.85v1.4H75.92v-1.4a15.73,15.73,0,0,1,3.72-1.35V3.94l-4.28-.45V2A24.82,24.82,0,0,1,79.16.84Q81.32.35,83.3,0h1.4V19.87h.06a12.27,12.27,0,0,1,3.4-4.5,8.13,8.13,0,0,1,5.38-1.86,14.13,14.13,0,0,1,4,.53,6.26,6.26,0,0,1,3,1.89,9,9,0,0,1,1.8,3.63,22.59,22.59,0,0,1,.62,5.77V39.57c.64.15,1.27.32,1.91.5a6.45,6.45,0,0,1,1.8.85Z"/><path class="cls-3" d="M132,33.67c0-4.83-4.24-6.64-8.22-8l-.88-.3c-2.82-.95-5-1.71-5-3.37v-.1c0-1.05.85-2.28,3.27-2.28a16.5,16.5,0,0,1,7.43,2.48l2.7-4.89a19.14,19.14,0,0,0-10-3c-4.91,0-9.88,2.63-9.88,8.52v.11c0,5,3.9,6.83,8.1,8.06l1.06.32c2.79.82,5,1.47,5,3.25v.11c0,.73-.36,2.43-3.69,2.43a16.1,16.1,0,0,1-8.73-3.19l-3,4.65a19.17,19.17,0,0,0,11.54,4c6.58,0,10.35-3.16,10.35-8.68Z"/><path class="cls-3" d="M159.06,28.45c0,4.62-3.2,8-7.6,8a7.82,7.82,0,0,1-7.71-8.07v-.11c0-4.62,3.2-8,7.6-8a7.81,7.81,0,0,1,7.71,8.08Zm7.13-.21c0-8-6.33-14.11-14.73-14.11s-14.84,6.25-14.84,14.22v.1c0,8,6.33,14.11,14.73,14.11s14.84-6.24,14.84-14.21Z"/><path class="cls-4" d="M180.6,37.44a4.89,4.89,0,1,0-4.89,4.88,4.89,4.89,0,0,0,4.89-4.88"/></g></svg>